<svg width="1605" height="1137" viewBox="0 0 1605 1137" fill="none" xmlns="http://www.w3.org/2000/svg">
<rect x="68" y="49" width="1493" height="97" rx="10" fill="white" fill-opacity="0.5"/>
<path opacity="0.3" d="M98 27C98 21.4772 102.477 17 108 17H1521C1526.52 17 1531 21.4772 1531 27V49H98V27Z" fill="white" fill-opacity="0.5"/>
<g clip-path="url(#clip0_89_86)">
<rect y="104" width="1605" height="1033" rx="20" fill="white"/>
<circle cx="41.5" cy="140.5" r="11.5" fill="#EB736D"/>
<circle cx="76.5" cy="140.5" r="11.5" fill="#F4C35F"/>
<circle cx="111.5" cy="140.5" r="11.5" fill="#72CC65"/>
<path d="M778.985 146.842C778.263 146.842 777.598 146.709 776.99 146.443C776.382 146.177 775.85 145.803 775.394 145.322C774.951 144.841 774.602 144.283 774.349 143.65C774.108 143.017 773.988 142.333 773.988 141.598V141.256C773.988 140.534 774.108 139.856 774.349 139.223C774.59 138.59 774.925 138.032 775.356 137.551C775.799 137.07 776.319 136.696 776.914 136.43C777.522 136.151 778.193 136.012 778.928 136.012C779.701 136.012 780.404 136.177 781.037 136.506C781.67 136.823 782.19 137.323 782.595 138.007C783 138.691 783.228 139.578 783.279 140.667L782.519 139.451V132.63H784.343V146.5H782.899V141.997H783.431C783.38 143.15 783.14 144.087 782.709 144.809C782.278 145.518 781.734 146.038 781.075 146.367C780.429 146.684 779.732 146.842 778.985 146.842ZM779.232 145.246C779.853 145.246 780.416 145.107 780.923 144.828C781.43 144.549 781.835 144.15 782.139 143.631C782.443 143.099 782.595 142.478 782.595 141.769V140.895C782.595 140.198 782.437 139.609 782.12 139.128C781.816 138.634 781.404 138.26 780.885 138.007C780.378 137.741 779.821 137.608 779.213 137.608C778.542 137.608 777.946 137.766 777.427 138.083C776.92 138.4 776.521 138.843 776.23 139.413C775.951 139.983 775.812 140.654 775.812 141.427C775.812 142.2 775.958 142.877 776.249 143.46C776.54 144.03 776.946 144.473 777.465 144.79C777.984 145.094 778.573 145.246 779.232 145.246ZM793.985 146.5V143.46H793.681V139.945C793.681 139.248 793.497 138.723 793.13 138.368C792.775 138.013 792.249 137.836 791.553 137.836C791.16 137.836 790.755 137.842 790.337 137.855C789.919 137.868 789.52 137.88 789.14 137.893C788.76 137.906 788.43 137.925 788.152 137.95V136.354C788.43 136.329 788.722 136.31 789.026 136.297C789.342 136.272 789.665 136.259 789.995 136.259C790.324 136.246 790.641 136.24 790.945 136.24C791.983 136.24 792.832 136.367 793.491 136.62C794.149 136.861 794.637 137.26 794.954 137.817C795.27 138.374 795.429 139.128 795.429 140.078V146.5H793.985ZM790.66 146.766C789.9 146.766 789.241 146.639 788.684 146.386C788.139 146.12 787.715 145.74 787.411 145.246C787.119 144.752 786.974 144.157 786.974 143.46C786.974 142.738 787.132 142.136 787.449 141.655C787.778 141.174 788.253 140.813 788.874 140.572C789.494 140.319 790.242 140.192 791.116 140.192H793.871V141.56H791.04C790.305 141.56 789.741 141.737 789.349 142.092C788.956 142.447 788.76 142.903 788.76 143.46C788.76 144.017 788.956 144.467 789.349 144.809C789.741 145.151 790.305 145.322 791.04 145.322C791.47 145.322 791.882 145.246 792.275 145.094C792.667 144.929 792.99 144.663 793.244 144.296C793.51 143.916 793.655 143.397 793.681 142.738L794.175 143.46C794.111 144.182 793.934 144.79 793.643 145.284C793.364 145.765 792.971 146.133 792.465 146.386C791.971 146.639 791.369 146.766 790.66 146.766ZM802.101 146.804C800.771 146.804 799.739 146.519 799.004 145.949C798.282 145.379 797.909 144.6 797.883 143.612H799.593C799.619 144.005 799.815 144.378 800.182 144.733C800.562 145.075 801.202 145.246 802.101 145.246C802.912 145.246 803.533 145.088 803.963 144.771C804.394 144.442 804.609 144.043 804.609 143.574C804.609 143.156 804.451 142.833 804.134 142.605C803.818 142.364 803.305 142.206 802.595 142.13L801.493 142.016C800.531 141.915 799.745 141.63 799.137 141.161C798.529 140.68 798.225 140.008 798.225 139.147C798.225 138.501 798.39 137.95 798.719 137.494C799.049 137.025 799.505 136.671 800.087 136.43C800.67 136.177 801.341 136.05 802.101 136.05C803.241 136.05 804.166 136.303 804.875 136.81C805.585 137.317 805.952 138.07 805.977 139.071H804.267C804.255 138.666 804.065 138.324 803.697 138.045C803.343 137.754 802.811 137.608 802.101 137.608C801.392 137.608 800.854 137.754 800.486 138.045C800.119 138.336 799.935 138.704 799.935 139.147C799.935 139.527 800.062 139.831 800.315 140.059C800.581 140.287 801.012 140.433 801.607 140.496L802.709 140.61C803.799 140.724 804.673 141.028 805.331 141.522C805.99 142.003 806.319 142.687 806.319 143.574C806.319 144.207 806.136 144.771 805.768 145.265C805.414 145.746 804.92 146.126 804.286 146.405C803.653 146.671 802.925 146.804 802.101 146.804ZM808.963 146.5V132.63H810.787V140.914H810.331C810.331 139.913 810.458 139.052 810.711 138.33C810.977 137.595 811.382 137.032 811.927 136.639C812.472 136.246 813.168 136.05 814.017 136.05H814.093C815.309 136.05 816.227 136.455 816.848 137.266C817.469 138.064 817.779 139.21 817.779 140.705V146.5H815.955V140.325C815.955 139.502 815.721 138.862 815.252 138.406C814.796 137.95 814.201 137.722 813.466 137.722C812.655 137.722 812.003 137.994 811.509 138.539C811.028 139.071 810.787 139.774 810.787 140.648V146.5H808.963ZM826.474 146.842C825.638 146.842 824.891 146.658 824.232 146.291C823.586 145.924 823.073 145.392 822.693 144.695C822.313 143.986 822.104 143.137 822.066 142.149H822.56V146.5H821.116V132.63H822.94V139.375L822.294 140.762C822.345 139.66 822.566 138.761 822.959 138.064C823.352 137.367 823.865 136.854 824.498 136.525C825.144 136.183 825.853 136.012 826.626 136.012C827.348 136.012 828.007 136.151 828.602 136.43C829.197 136.696 829.71 137.07 830.141 137.551C830.572 138.02 830.901 138.571 831.129 139.204C831.357 139.825 831.471 140.496 831.471 141.218V141.56C831.471 142.282 831.351 142.96 831.11 143.593C830.882 144.226 830.546 144.79 830.103 145.284C829.66 145.765 829.128 146.145 828.507 146.424C827.899 146.703 827.221 146.842 826.474 146.842ZM826.265 145.246C826.949 145.246 827.544 145.081 828.051 144.752C828.558 144.423 828.95 143.973 829.229 143.403C829.508 142.82 829.647 142.149 829.647 141.389C829.647 140.629 829.501 139.964 829.21 139.394C828.931 138.824 828.539 138.387 828.032 138.083C827.525 137.766 826.936 137.608 826.265 137.608C825.657 137.608 825.093 137.747 824.574 138.026C824.055 138.292 823.637 138.685 823.32 139.204C823.016 139.711 822.864 140.325 822.864 141.047V141.921C822.864 142.618 823.022 143.213 823.339 143.707C823.656 144.201 824.074 144.581 824.593 144.847C825.112 145.113 825.67 145.246 826.265 145.246ZM838.89 146.842C838.003 146.842 837.224 146.69 836.553 146.386C835.881 146.082 835.311 145.683 834.843 145.189C834.387 144.682 834.038 144.119 833.798 143.498C833.57 142.877 833.456 142.244 833.456 141.598V141.256C833.456 140.61 833.576 139.977 833.817 139.356C834.057 138.723 834.412 138.159 834.881 137.665C835.349 137.158 835.919 136.759 836.591 136.468C837.262 136.164 838.028 136.012 838.89 136.012C839.751 136.012 840.517 136.164 841.189 136.468C841.86 136.759 842.43 137.158 842.899 137.665C843.367 138.159 843.722 138.723 843.963 139.356C844.203 139.977 844.324 140.61 844.324 141.256V141.598C844.324 142.244 844.203 142.877 843.963 143.498C843.735 144.119 843.386 144.682 842.918 145.189C842.462 145.683 841.898 146.082 841.227 146.386C840.555 146.69 839.776 146.842 838.89 146.842ZM838.89 145.208C839.65 145.208 840.296 145.043 840.828 144.714C841.372 144.372 841.784 143.916 842.063 143.346C842.354 142.776 842.5 142.136 842.5 141.427C842.5 140.705 842.354 140.059 842.063 139.489C841.771 138.919 841.353 138.469 840.809 138.14C840.277 137.811 839.637 137.646 838.89 137.646C838.155 137.646 837.515 137.811 836.971 138.14C836.426 138.469 836.008 138.919 835.717 139.489C835.425 140.059 835.28 140.705 835.28 141.427C835.28 142.136 835.419 142.776 835.698 143.346C835.989 143.916 836.401 144.372 836.933 144.714C837.477 145.043 838.13 145.208 838.89 145.208ZM853.193 146.5V143.46H852.889V139.945C852.889 139.248 852.705 138.723 852.338 138.368C851.983 138.013 851.457 137.836 850.761 137.836C850.368 137.836 849.963 137.842 849.545 137.855C849.127 137.868 848.728 137.88 848.348 137.893C847.968 137.906 847.638 137.925 847.36 137.95V136.354C847.638 136.329 847.93 136.31 848.234 136.297C848.55 136.272 848.873 136.259 849.203 136.259C849.532 136.246 849.849 136.24 850.153 136.24C851.191 136.24 852.04 136.367 852.699 136.62C853.357 136.861 853.845 137.26 854.162 137.817C854.478 138.374 854.637 139.128 854.637 140.078V146.5H853.193ZM849.868 146.766C849.108 146.766 848.449 146.639 847.892 146.386C847.347 146.12 846.923 145.74 846.619 145.246C846.327 144.752 846.182 144.157 846.182 143.46C846.182 142.738 846.34 142.136 846.657 141.655C846.986 141.174 847.461 140.813 848.082 140.572C848.702 140.319 849.45 140.192 850.324 140.192H853.079V141.56H850.248C849.513 141.56 848.949 141.737 848.557 142.092C848.164 142.447 847.968 142.903 847.968 143.46C847.968 144.017 848.164 144.467 848.557 144.809C848.949 145.151 849.513 145.322 850.248 145.322C850.678 145.322 851.09 145.246 851.483 145.094C851.875 144.929 852.198 144.663 852.452 144.296C852.718 143.916 852.863 143.397 852.889 142.738L853.383 143.46C853.319 144.182 853.142 144.79 852.851 145.284C852.572 145.765 852.179 146.133 851.673 146.386C851.179 146.639 850.577 146.766 849.868 146.766ZM857.984 146.5V136.354H859.428V140.534H859.352C859.352 139.052 859.675 137.969 860.321 137.285C860.98 136.588 861.962 136.24 863.266 136.24H863.608V137.874H862.962C861.949 137.874 861.17 138.146 860.625 138.691C860.081 139.223 859.808 139.996 859.808 141.009V146.5H857.984ZM869.903 146.842C869.181 146.842 868.516 146.709 867.908 146.443C867.3 146.177 866.768 145.803 866.312 145.322C865.869 144.841 865.52 144.283 865.267 143.65C865.026 143.017 864.906 142.333 864.906 141.598V141.256C864.906 140.534 865.026 139.856 865.267 139.223C865.508 138.59 865.843 138.032 866.274 137.551C866.717 137.07 867.237 136.696 867.832 136.43C868.44 136.151 869.111 136.012 869.846 136.012C870.619 136.012 871.322 136.177 871.955 136.506C872.588 136.823 873.108 137.323 873.513 138.007C873.918 138.691 874.146 139.578 874.197 140.667L873.437 139.451V132.63H875.261V146.5H873.817V141.997H874.349C874.298 143.15 874.058 144.087 873.627 144.809C873.196 145.518 872.652 146.038 871.993 146.367C871.347 146.684 870.65 146.842 869.903 146.842ZM870.15 145.246C870.771 145.246 871.334 145.107 871.841 144.828C872.348 144.549 872.753 144.15 873.057 143.631C873.361 143.099 873.513 142.478 873.513 141.769V140.895C873.513 140.198 873.355 139.609 873.038 139.128C872.734 138.634 872.322 138.26 871.803 138.007C871.296 137.741 870.739 137.608 870.131 137.608C869.46 137.608 868.864 137.766 868.345 138.083C867.838 138.4 867.439 138.843 867.148 139.413C866.869 139.983 866.73 140.654 866.73 141.427C866.73 142.2 866.876 142.877 867.167 143.46C867.458 144.03 867.864 144.473 868.383 144.79C868.902 145.094 869.491 145.246 870.15 145.246ZM878.405 146.5V144.182H880.609V146.5H878.405ZM883.738 146.5V132.63H885.562V140.914H885.106C885.106 139.913 885.233 139.052 885.486 138.33C885.752 137.595 886.158 137.032 886.702 136.639C887.247 136.246 887.944 136.05 888.792 136.05H888.868C890.084 136.05 891.003 136.455 891.623 137.266C892.244 138.064 892.554 139.21 892.554 140.705V146.5H890.73V140.325C890.73 139.502 890.496 138.862 890.027 138.406C889.571 137.95 888.976 137.722 888.241 137.722C887.431 137.722 886.778 137.994 886.284 138.539C885.803 139.071 885.562 139.774 885.562 140.648V146.5H883.738ZM902.029 146.5V143.46H901.725V139.945C901.725 139.248 901.541 138.723 901.174 138.368C900.819 138.013 900.293 137.836 899.597 137.836C899.204 137.836 898.799 137.842 898.381 137.855C897.963 137.868 897.564 137.88 897.184 137.893C896.804 137.906 896.474 137.925 896.196 137.95V136.354C896.474 136.329 896.766 136.31 897.07 136.297C897.386 136.272 897.709 136.259 898.039 136.259C898.368 136.246 898.685 136.24 898.989 136.24C900.027 136.24 900.876 136.367 901.535 136.62C902.193 136.861 902.681 137.26 902.998 137.817C903.314 138.374 903.473 139.128 903.473 140.078V146.5H902.029ZM898.704 146.766C897.944 146.766 897.285 146.639 896.728 146.386C896.183 146.12 895.759 145.74 895.455 145.246C895.163 144.752 895.018 144.157 895.018 143.46C895.018 142.738 895.176 142.136 895.493 141.655C895.822 141.174 896.297 140.813 896.918 140.572C897.538 140.319 898.286 140.192 899.16 140.192H901.915V141.56H899.084C898.349 141.56 897.785 141.737 897.393 142.092C897 142.447 896.804 142.903 896.804 143.46C896.804 144.017 897 144.467 897.393 144.809C897.785 145.151 898.349 145.322 899.084 145.322C899.514 145.322 899.926 145.246 900.319 145.094C900.711 144.929 901.034 144.663 901.288 144.296C901.554 143.916 901.699 143.397 901.725 142.738L902.219 143.46C902.155 144.182 901.978 144.79 901.687 145.284C901.408 145.765 901.015 146.133 900.509 146.386C900.015 146.639 899.413 146.766 898.704 146.766ZM912.957 146.5V143.46H912.653V139.945C912.653 139.248 912.47 138.723 912.102 138.368C911.748 138.013 911.222 137.836 910.525 137.836C910.133 137.836 909.727 137.842 909.309 137.855C908.891 137.868 908.492 137.88 908.112 137.893C907.732 137.906 907.403 137.925 907.124 137.95V136.354C907.403 136.329 907.694 136.31 907.998 136.297C908.315 136.272 908.638 136.259 908.967 136.259C909.297 136.246 909.613 136.24 909.917 136.24C910.956 136.24 911.805 136.367 912.463 136.62C913.122 136.861 913.61 137.26 913.926 137.817C914.243 138.374 914.401 139.128 914.401 140.078V146.5H912.957ZM909.632 146.766C908.872 146.766 908.214 146.639 907.656 146.386C907.112 146.12 906.687 145.74 906.383 145.246C906.092 144.752 905.946 144.157 905.946 143.46C905.946 142.738 906.105 142.136 906.421 141.655C906.751 141.174 907.226 140.813 907.846 140.572C908.467 140.319 909.214 140.192 910.088 140.192H912.843V141.56H910.012C909.278 141.56 908.714 141.737 908.321 142.092C907.929 142.447 907.732 142.903 907.732 143.46C907.732 144.017 907.929 144.467 908.321 144.809C908.714 145.151 909.278 145.322 910.012 145.322C910.443 145.322 910.855 145.246 911.247 145.094C911.64 144.929 911.963 144.663 912.216 144.296C912.482 143.916 912.628 143.397 912.653 142.738L913.147 143.46C913.084 144.182 912.907 144.79 912.615 145.284C912.337 145.765 911.944 146.133 911.437 146.386C910.943 146.639 910.342 146.766 909.632 146.766ZM921.074 146.804C919.744 146.804 918.712 146.519 917.977 145.949C917.255 145.379 916.881 144.6 916.856 143.612H918.566C918.591 144.005 918.788 144.378 919.155 144.733C919.535 145.075 920.175 145.246 921.074 145.246C921.885 145.246 922.505 145.088 922.936 144.771C923.367 144.442 923.582 144.043 923.582 143.574C923.582 143.156 923.424 142.833 923.107 142.605C922.79 142.364 922.277 142.206 921.568 142.13L920.466 142.016C919.503 141.915 918.718 141.63 918.11 141.161C917.502 140.68 917.198 140.008 917.198 139.147C917.198 138.501 917.363 137.95 917.692 137.494C918.021 137.025 918.477 136.671 919.06 136.43C919.643 136.177 920.314 136.05 921.074 136.05C922.214 136.05 923.139 136.303 923.848 136.81C924.557 137.317 924.925 138.07 924.95 139.071H923.24C923.227 138.666 923.037 138.324 922.67 138.045C922.315 137.754 921.783 137.608 921.074 137.608C920.365 137.608 919.826 137.754 919.459 138.045C919.092 138.336 918.908 138.704 918.908 139.147C918.908 139.527 919.035 139.831 919.288 140.059C919.554 140.287 919.985 140.433 920.58 140.496L921.682 140.61C922.771 140.724 923.645 141.028 924.304 141.522C924.963 142.003 925.292 142.687 925.292 143.574C925.292 144.207 925.108 144.771 924.741 145.265C924.386 145.746 923.892 146.126 923.259 146.405C922.626 146.671 921.897 146.804 921.074 146.804ZM927.389 146.5V144.182H929.593V146.5H927.389ZM932.837 146.5V132.63H934.661V146.5H932.837ZM931.431 134.074V132.63H934.661V134.074H931.431ZM938.653 146.5V136.354H940.477V146.5H938.653ZM937.095 137.798V136.354H940.477V137.798H937.095ZM939.166 134.72C938.761 134.72 938.457 134.612 938.254 134.397C938.064 134.182 937.969 133.909 937.969 133.58C937.969 133.251 938.064 132.978 938.254 132.763C938.457 132.548 938.761 132.44 939.166 132.44C939.571 132.44 939.869 132.548 940.059 132.763C940.262 132.978 940.363 133.251 940.363 133.58C940.363 133.909 940.262 134.182 940.059 134.397C939.869 134.612 939.571 134.72 939.166 134.72ZM946.17 146.5L942.712 136.354H944.612L947.994 146.5H946.17ZM946.626 146.5V145.056H948.83V146.5H946.626ZM947.5 146.5L950.445 136.354H952.231L949.229 146.5H947.5ZM958.745 146.842C957.858 146.842 957.092 146.69 956.446 146.386C955.8 146.082 955.274 145.683 954.869 145.189C954.463 144.682 954.159 144.119 953.957 143.498C953.767 142.877 953.672 142.244 953.672 141.598V141.256C953.672 140.597 953.767 139.958 953.957 139.337C954.159 138.716 954.463 138.159 954.869 137.665C955.274 137.158 955.787 136.759 956.408 136.468C957.041 136.164 957.782 136.012 958.631 136.012C959.733 136.012 960.638 136.253 961.348 136.734C962.07 137.203 962.602 137.811 962.944 138.558C963.298 139.305 963.476 140.103 963.476 140.952V141.769H954.47V140.401H962.146L961.728 141.142C961.728 140.42 961.614 139.799 961.386 139.28C961.158 138.748 960.816 138.336 960.36 138.045C959.904 137.754 959.327 137.608 958.631 137.608C957.909 137.608 957.307 137.773 956.826 138.102C956.357 138.431 956.002 138.881 955.762 139.451C955.534 140.021 955.42 140.68 955.42 141.427C955.42 142.149 955.534 142.801 955.762 143.384C956.002 143.954 956.37 144.41 956.864 144.752C957.358 145.081 957.985 145.246 958.745 145.246C959.543 145.246 960.189 145.069 960.683 144.714C961.189 144.359 961.493 143.948 961.595 143.479H963.305C963.165 144.176 962.887 144.777 962.469 145.284C962.051 145.791 961.525 146.177 960.892 146.443C960.258 146.709 959.543 146.842 958.745 146.842Z" fill="#8B9292"/>
<rect x="571.5" y="123" width="595" height="35" rx="17.5" stroke="#D1D3D3"/>
<line x1="0.000287853" y1="175.5" x2="1737" y2="176.5" stroke="#DCDEDE"/>
<rect x="107.314" y="336.625" width="1390.37" height="682.426" rx="29.5" fill="#ECECEC" stroke="#D1D3D3"/>
<path d="M350.88 535.066L310.226 558.319L269.571 535.066L269.571 488.607L310.226 465.353L350.88 488.607L350.88 535.066Z" fill="url(#paint0_linear_89_86)" stroke="white" stroke-width="6"/>
<path d="M525.498 533.216L484.844 556.47L444.189 533.216L444.189 486.757L484.844 463.504L525.498 486.757L525.498 533.216Z" fill="url(#paint1_linear_89_86)" stroke="white" stroke-width="6"/>
<path d="M394.535 608.125L353.88 631.378L313.226 608.125L313.226 561.666L353.88 538.412L394.535 561.666L394.535 608.125Z" fill="url(#paint2_linear_89_86)" stroke="white" stroke-width="6"/>
<path d="M438.189 535.066L397.535 558.319L356.88 535.066L356.88 488.607L397.535 465.353L438.189 488.607L438.189 535.066Z" fill="url(#paint3_linear_89_86)" stroke="white" stroke-width="6"/>
<path d="M481.844 608.125L441.189 631.378L400.535 608.125L400.535 561.666L441.189 538.412L481.844 561.666L481.844 608.125Z" fill="url(#paint4_linear_89_86)" stroke="white" stroke-width="6"/>
<path d="M481.844 608.125L441.189 631.378L400.535 608.125L400.535 561.666L441.189 538.412L481.844 561.666L481.844 608.125Z" fill="url(#paint5_linear_89_86)" stroke="white" stroke-width="6"/>
<path d="M438.189 683.033L397.535 706.287L356.88 683.033L356.88 636.575L397.535 613.321L438.189 636.575L438.189 683.033Z" fill="url(#paint6_linear_89_86)" stroke="white" stroke-width="6"/>
<path d="M394.535 755.168L353.88 778.421L313.226 755.168L313.226 708.709L353.88 685.455L394.535 708.709L394.535 755.168Z" fill="url(#paint7_linear_89_86)" stroke="white" stroke-width="6"/>
<path d="M481.844 755.168L441.189 778.421L400.535 755.168L400.535 708.709L441.189 685.455L481.844 708.709L481.844 755.168Z" fill="url(#paint8_linear_89_86)" stroke="white" stroke-width="6"/>
<path d="M525.498 682.109L484.844 705.362L444.189 682.109L444.189 635.65L484.844 612.396L525.498 635.65L525.498 682.109Z" fill="url(#paint9_linear_89_86)" stroke="white" stroke-width="6"/>
<path d="M481.844 755.168L441.189 778.421L400.535 755.168L400.535 708.709L441.189 685.455L481.844 708.709L481.844 755.168Z" fill="url(#paint10_linear_89_86)" stroke="white" stroke-width="6"/>
<path d="M438.189 830.076L397.535 853.33L356.88 830.076L356.88 783.618L397.535 760.364L438.189 783.618L438.189 830.076Z" fill="url(#paint11_linear_89_86)" stroke="white" stroke-width="6"/>
<path d="M307.226 755.168L266.571 778.421L225.917 755.168L225.917 708.709L266.571 685.455L307.226 708.709L307.226 755.168Z" fill="url(#paint12_linear_89_86)" stroke="white" stroke-width="6"/>
<path d="M350.88 830.076L310.226 853.33L269.571 830.076L269.571 783.618L310.226 760.364L350.88 783.618L350.88 830.076Z" fill="url(#paint13_linear_89_86)" stroke="white" stroke-width="6"/>
<path d="M350.88 682.109L310.226 705.362L269.571 682.109L269.571 635.65L310.226 612.396L350.88 635.65L350.88 682.109Z" fill="url(#paint14_linear_89_86)" stroke="white" stroke-width="6"/>
<path d="M307.226 608.125L266.571 631.378L225.917 608.125L225.917 561.666L266.571 538.412L307.226 561.666L307.226 608.125Z" fill="url(#paint15_linear_89_86)" stroke="white" stroke-width="6"/>
<g filter="url(#filter0_dd_89_86)">
<rect x="990.121" y="401" width="493" height="607" rx="30" fill="white"/>
</g>
<g filter="url(#filter1_d_89_86)">
<rect x="1031.12" y="833" width="412" height="132" rx="10" fill="#F74A77"/>
</g>
<path d="M1068.12 933L1071.12 936L1068.12 933ZM1071.12 936L1068.12 939L1071.12 936ZM1071.12 936H1063.12H1071.12ZM1076.12 936C1076.12 937.182 1075.89 938.352 1075.44 939.444C1074.98 940.536 1074.32 941.528 1073.49 942.364C1072.65 943.2 1071.66 943.863 1070.57 944.315C1069.47 944.767 1068.3 945 1067.12 945C1065.94 945 1064.77 944.767 1063.68 944.315C1062.59 943.863 1061.59 943.2 1060.76 942.364C1059.92 941.528 1059.26 940.536 1058.81 939.444C1058.35 938.352 1058.12 937.182 1058.12 936C1058.12 933.613 1059.07 931.324 1060.76 929.636C1062.45 927.948 1064.73 927 1067.12 927C1069.51 927 1071.8 927.948 1073.49 929.636C1075.17 931.324 1076.12 933.613 1076.12 936Z" stroke="#EF98C2" stroke-width="2" stroke-linecap="round" stroke-linejoin="round"/>
<rect x="1100" y="929" width="130" height="16" rx="8" fill="#FFB6C1"/>
<rect x="1055" y="850" width="189" height="19" rx="9.5" fill="#FFB6C1"/>
<rect x="1055" y="887" width="342" height="24" rx="10" fill="white"/>
<path d="M991.121 431C991.121 414.431 1004.55 401 1021.12 401H1453.12C1469.69 401 1483.12 414.431 1483.12 431V489H991.121V431Z" fill="#F7F7F7"/>
<rect x="1350.49" y="700.5" width="90" height="82" rx="14.5" stroke="#D7D7D7"/>
<path d="M1411.99 735.017L1395.49 744.537L1378.99 735.017L1378.99 715.983L1395.49 706.463L1411.99 715.983L1411.99 735.017Z" fill="url(#paint16_linear_89_86)" stroke="white" stroke-width="6"/>
<path d="M1391.99 763.017L1375.49 772.537L1358.99 763.017L1358.99 743.983L1375.49 734.463L1391.99 743.983L1391.99 763.017Z" fill="url(#paint17_linear_89_86)" stroke="white" stroke-width="6"/>
<path d="M1431.99 762.017L1415.49 771.537L1398.99 762.017L1398.99 742.983L1415.49 733.463L1431.99 742.983L1431.99 762.017Z" fill="url(#paint18_linear_89_86)" stroke="white" stroke-width="6"/>
<rect x="1350.54" y="541.5" width="89.9552" height="82" rx="14.5" stroke="#D7D7D7"/>
<path d="M1399.02 575.527L1387.03 582.526L1375.03 575.527L1375.03 561.473L1387.03 554.474L1399.02 561.473L1399.02 575.527Z" fill="url(#paint19_linear_89_86)" stroke="white" stroke-width="6"/>
<path d="M1389.02 601.527L1377.03 608.526L1365.04 601.527L1365.04 587.473L1377.03 580.474L1389.02 587.473L1389.02 601.527Z" fill="url(#paint20_linear_89_86)" stroke="white" stroke-width="6"/>
<path d="M1414.01 602.527L1402.02 609.526L1390.03 602.527L1390.03 588.473L1402.02 581.474L1414.01 588.473L1414.01 602.527Z" fill="url(#paint21_linear_89_86)" stroke="white" stroke-width="6"/>
<path d="M1425.01 575.527L1413.01 582.526L1401.02 575.527L1401.02 561.473L1413.01 554.474L1425.01 561.473L1425.01 575.527Z" fill="url(#paint22_linear_89_86)" stroke="white" stroke-width="6"/>
<rect x="1029" y="430" width="379" height="31" rx="10" fill="#C4C4C4"/>
<rect x="1028" y="598" width="256" height="18" rx="9" fill="#C4C4C4"/>
<rect x="1028" y="526" width="116" height="15" rx="7.5" fill="#289591"/>
<rect x="1031" y="557" width="25" height="25" rx="5" fill="#888C8C"/>
<rect x="1031" y="761" width="256" height="18" rx="9" fill="#C4C4C4"/>
<rect x="1031" y="689" width="116" height="15" rx="7.5" fill="#F74A77"/>
<rect x="1034" y="720" width="25" height="25" rx="5" fill="#888C8C"/>
<rect x="126" y="225" width="272" height="33" rx="10" fill="#5677EB"/>
<rect x="126" y="272" width="622" height="33" rx="10" fill="#5677EB"/>
<rect x="770" y="272" width="194" height="33" rx="10" fill="#F74A77"/>
</g>
<rect x="0.5" y="104.5" width="1604" height="1032" rx="19.5" stroke="#D7D7D7"/>
<defs>
<filter id="filter0_dd_89_86" x="966.121" y="383" width="541" height="655" filterUnits="userSpaceOnUse" color-interpolation-filters="sRGB">
<feFlood flood-opacity="0" result="BackgroundImageFix"/>
<feColorMatrix in="SourceAlpha" type="matrix" values="0 0 0 0 0 0 0 0 0 0 0 0 0 0 0 0 0 0 127 0" result="hardAlpha"/>
<feOffset dy="6"/>
<feGaussianBlur stdDeviation="12"/>
<feColorMatrix type="matrix" values="0 0 0 0 0 0 0 0 0 0 0 0 0 0 0 0 0 0 0.05 0"/>
<feBlend mode="normal" in2="BackgroundImageFix" result="effect1_dropShadow_89_86"/>
<feColorMatrix in="SourceAlpha" type="matrix" values="0 0 0 0 0 0 0 0 0 0 0 0 0 0 0 0 0 0 127 0" result="hardAlpha"/>
<feMorphology radius="1" operator="dilate" in="SourceAlpha" result="effect2_dropShadow_89_86"/>
<feOffset/>
<feColorMatrix type="matrix" values="0 0 0 0 0 0 0 0 0 0 0 0 0 0 0 0 0 0 0.08 0"/>
<feBlend mode="normal" in2="effect1_dropShadow_89_86" result="effect2_dropShadow_89_86"/>
<feBlend mode="normal" in="SourceGraphic" in2="effect2_dropShadow_89_86" result="shape"/>
</filter>
<filter id="filter1_d_89_86" x="1007.12" y="817" width="460" height="180" filterUnits="userSpaceOnUse" color-interpolation-filters="sRGB">
<feFlood flood-opacity="0" result="BackgroundImageFix"/>
<feColorMatrix in="SourceAlpha" type="matrix" values="0 0 0 0 0 0 0 0 0 0 0 0 0 0 0 0 0 0 127 0" result="hardAlpha"/>
<feOffset dy="8"/>
<feGaussianBlur stdDeviation="12"/>
<feColorMatrix type="matrix" values="0 0 0 0 0.584314 0 0 0 0 0.615686 0 0 0 0 0.647059 0 0 0 0.2 0"/>
<feBlend mode="normal" in2="BackgroundImageFix" result="effect1_dropShadow_89_86"/>
<feBlend mode="normal" in="SourceGraphic" in2="effect1_dropShadow_89_86" result="shape"/>
</filter>
<linearGradient id="paint0_linear_89_86" x1="310.226" y1="561.775" x2="310.226" y2="461.897" gradientUnits="userSpaceOnUse">
<stop stop-color="#FB5A66"/>
<stop offset="1" stop-color="#EF338D"/>
</linearGradient>
<linearGradient id="paint1_linear_89_86" x1="484.844" y1="559.926" x2="484.844" y2="460.048" gradientUnits="userSpaceOnUse">
<stop stop-color="#FB5A66"/>
<stop offset="1" stop-color="#EF338D"/>
</linearGradient>
<linearGradient id="paint2_linear_89_86" x1="353.88" y1="634.834" x2="353.88" y2="534.956" gradientUnits="userSpaceOnUse">
<stop stop-color="#33A9A5"/>
<stop offset="1" stop-color="#3BE085"/>
</linearGradient>
<linearGradient id="paint3_linear_89_86" x1="397.535" y1="561.775" x2="397.535" y2="461.897" gradientUnits="userSpaceOnUse">
<stop stop-color="#FB5A66"/>
<stop offset="1" stop-color="#EF338D"/>
</linearGradient>
<linearGradient id="paint4_linear_89_86" x1="441.189" y1="634.834" x2="441.189" y2="534.956" gradientUnits="userSpaceOnUse">
<stop stop-color="#FB5A66"/>
<stop offset="1" stop-color="#EF338D"/>
</linearGradient>
<linearGradient id="paint5_linear_89_86" x1="441.189" y1="634.834" x2="441.189" y2="534.956" gradientUnits="userSpaceOnUse">
<stop stop-color="#33A9A5"/>
<stop offset="1" stop-color="#3BE085"/>
</linearGradient>
<linearGradient id="paint6_linear_89_86" x1="397.535" y1="709.743" x2="397.535" y2="609.865" gradientUnits="userSpaceOnUse">
<stop stop-color="#33A9A5"/>
<stop offset="1" stop-color="#3BE085"/>
</linearGradient>
<linearGradient id="paint7_linear_89_86" x1="353.88" y1="781.877" x2="353.88" y2="681.999" gradientUnits="userSpaceOnUse">
<stop stop-color="#33A9A5"/>
<stop offset="1" stop-color="#3BE085"/>
</linearGradient>
<linearGradient id="paint8_linear_89_86" x1="441.189" y1="781.877" x2="441.189" y2="681.999" gradientUnits="userSpaceOnUse">
<stop stop-color="#33A9A5"/>
<stop offset="1" stop-color="#3BE085"/>
</linearGradient>
<linearGradient id="paint9_linear_89_86" x1="484.844" y1="708.818" x2="484.844" y2="608.94" gradientUnits="userSpaceOnUse">
<stop stop-color="#DADD2E"/>
<stop offset="1" stop-color="#F7BE2E"/>
</linearGradient>
<linearGradient id="paint10_linear_89_86" x1="441.189" y1="781.877" x2="441.189" y2="681.999" gradientUnits="userSpaceOnUse">
<stop stop-color="#DADD2E"/>
<stop offset="1" stop-color="#F7BE2E"/>
</linearGradient>
<linearGradient id="paint11_linear_89_86" x1="397.535" y1="856.786" x2="397.535" y2="756.908" gradientUnits="userSpaceOnUse">
<stop stop-color="#DADD2E"/>
<stop offset="1" stop-color="#F7BE2E"/>
</linearGradient>
<linearGradient id="paint12_linear_89_86" x1="266.571" y1="781.877" x2="266.571" y2="681.999" gradientUnits="userSpaceOnUse">
<stop stop-color="#33A9A5"/>
<stop offset="1" stop-color="#3BE085"/>
</linearGradient>
<linearGradient id="paint13_linear_89_86" x1="310.226" y1="856.786" x2="310.226" y2="756.908" gradientUnits="userSpaceOnUse">
<stop stop-color="#33A9A5"/>
<stop offset="1" stop-color="#3BE085"/>
</linearGradient>
<linearGradient id="paint14_linear_89_86" x1="310.226" y1="708.818" x2="310.226" y2="608.94" gradientUnits="userSpaceOnUse">
<stop stop-color="#33A9A5"/>
<stop offset="1" stop-color="#3BE085"/>
</linearGradient>
<linearGradient id="paint15_linear_89_86" x1="266.571" y1="634.834" x2="266.571" y2="534.956" gradientUnits="userSpaceOnUse">
<stop stop-color="#FB5A66"/>
<stop offset="1" stop-color="#EF338D"/>
</linearGradient>
<linearGradient id="paint16_linear_89_86" x1="1395.49" y1="748" x2="1395.49" y2="703" gradientUnits="userSpaceOnUse">
<stop stop-color="#FB5A66"/>
<stop offset="1" stop-color="#EF338D"/>
</linearGradient>
<linearGradient id="paint17_linear_89_86" x1="1375.49" y1="776" x2="1375.49" y2="731" gradientUnits="userSpaceOnUse">
<stop stop-color="#FB5A66"/>
<stop offset="1" stop-color="#EF338D"/>
</linearGradient>
<linearGradient id="paint18_linear_89_86" x1="1415.49" y1="775" x2="1415.49" y2="730" gradientUnits="userSpaceOnUse">
<stop stop-color="#FB5A66"/>
<stop offset="1" stop-color="#EF338D"/>
</linearGradient>
<linearGradient id="paint19_linear_89_86" x1="1387.03" y1="586" x2="1387.03" y2="551" gradientUnits="userSpaceOnUse">
<stop stop-color="#33A9A5"/>
<stop offset="1" stop-color="#3BE085"/>
</linearGradient>
<linearGradient id="paint20_linear_89_86" x1="1377.03" y1="612" x2="1377.03" y2="577" gradientUnits="userSpaceOnUse">
<stop stop-color="#33A9A5"/>
<stop offset="1" stop-color="#3BE085"/>
</linearGradient>
<linearGradient id="paint21_linear_89_86" x1="1402.02" y1="613" x2="1402.02" y2="578" gradientUnits="userSpaceOnUse">
<stop stop-color="#DADD2E"/>
<stop offset="1" stop-color="#F7BE2E"/>
</linearGradient>
<linearGradient id="paint22_linear_89_86" x1="1413.01" y1="586" x2="1413.01" y2="551" gradientUnits="userSpaceOnUse">
<stop stop-color="#33A9A5"/>
<stop offset="1" stop-color="#3BE085"/>
</linearGradient>
<clipPath id="clip0_89_86">
<rect y="104" width="1605" height="1033" rx="20" fill="white"/>
</clipPath>
</defs>
</svg>
