<svg width="95" height="95" viewBox="0 0 95 95" fill="none" xmlns="http://www.w3.org/2000/svg">
<path d="M13 76C13 73.2386 15.2386 71 18 71H38C40.7614 71 43 73.2386 43 76V90C43 92.7614 40.7614 95 38 95H18C15.2386 95 13 92.7614 13 90V76Z" fill="#52546B"/>
<path d="M50 43C50 40.2386 52.2386 38 55 38H75C77.7614 38 80 40.2386 80 43V90C80 92.7614 77.7614 95 75 95H55C52.2386 95 50 92.7614 50 90V43Z" fill="#6E6E8F"/>
<path d="M81.9856 13.7537C81.9856 13.7528 81.9847 13.7528 81.9856 13.7537C80.9305 12.4269 79.8764 11.1 78.8213 9.77318C78.3959 9.31779 77.6889 8.6722 76.6627 8.15921C75.7812 7.71936 74.9771 7.53373 74.4087 7.44961C74.415 7.1323 74.4258 3.49377 71.4243 1.31742C68.8466 -0.552597 66.0133 0.0838475 65.5834 0.188093C65.775 1.20951 66.2202 2.8747 67.3616 4.60938C68.7557 6.72995 70.4817 7.88213 71.4252 8.41799C70.5204 7.94889 67.2905 6.41721 63.3303 7.4176C60.7948 8.0577 59.1011 9.44764 58.2826 10.2258C58.6595 10.6465 60.918 13.0871 64.3143 12.9691C65.5933 12.9243 66.6267 12.5311 67.3256 12.1754C67.6224 12.0236 67.966 11.9751 68.288 12.0565C69.0156 12.2422 69.5706 12.8265 69.6749 13.5013C69.826 14.4834 69.0076 15.6658 67.8311 15.6036C67.787 15.6009 67.7429 15.5945 67.6998 15.5835C63.4607 14.5419 59.0031 15.2122 55.9351 18.2866C52.305 21.9251 52.4866 26.6792 52.7511 28.6233C51.0691 27.9192 49.4726 28.4166 49.0373 28.5666C48.9923 28.9982 48.7837 31.3401 50.1877 32.9916C51.5944 34.6458 54.0328 34.9192 55.2893 34.29C55.8173 34.91 56.6223 35.6032 56.8148 35.6004C56.8148 35.6004 56.8148 35.6004 56.8157 35.6004C56.9083 35.6114 57.0018 35.6004 57.0945 35.5995C60.8874 35.5904 64.6794 35.5812 68.4724 35.573C69.4834 35.4898 70.2065 34.6421 70.1633 33.7761C70.1301 33.126 69.6848 32.4703 69.0004 32.271C68.9554 32.2655 68.9104 32.26 68.8663 32.2545C67.7357 32.2756 66.6052 32.2975 65.4746 32.3185C66.1707 32.2829 67.0108 32.1676 67.9291 31.8842C68.7629 31.6263 69.4537 31.2934 69.9906 30.9844C70.0626 31.6016 70.2641 32.6477 70.9126 33.7569C71.4351 34.6512 71.9838 35.3554 72.5136 35.5474C72.9525 35.7065 74.3502 35.6123 74.3502 35.6123C75.2398 35.5181 75.9125 34.7509 75.9063 33.874C75.9 32.9623 75.1624 32.1878 74.2369 32.153C74.218 32.1521 74.2054 32.1329 74.2144 32.1164C74.4986 31.5724 74.7999 30.8911 75.0455 30.0818C75.2739 29.3292 75.3999 28.6434 75.4709 28.0655C76.1644 27.5836 77.7321 26.3436 78.3923 24.213C78.815 22.8496 78.7242 21.5813 78.6756 20.9722C78.6037 20.0688 78.4166 19.3034 78.2241 18.7127C78.2205 18.6944 78.2169 18.677 78.2133 18.6587C78.198 18.474 78.1674 17.7123 78.6936 17.192C78.9778 16.9112 79.325 16.7997 79.3997 16.7768C79.6848 16.69 79.8656 16.7174 80.0401 16.7064C80.9278 16.647 81.5637 15.5679 81.6339 15.4463C82.0512 14.7148 82.0107 14.0024 81.9856 13.7537Z" fill="#878AB0"/>
<path d="M46.9856 48.2247C46.9856 48.2238 46.9847 48.2238 46.9856 48.2247C45.9305 46.9489 44.8764 45.6731 43.8213 44.3973C43.3959 43.9594 42.6889 43.3387 41.6627 42.8454C40.7812 42.4225 39.9771 42.244 39.4087 42.1631C39.415 41.858 39.4258 38.3594 36.4243 36.2667C33.8466 34.4687 31.0133 35.0806 30.5834 35.1809C30.775 36.163 31.2202 37.7641 32.3616 39.4321C33.7557 41.4711 35.4817 42.579 36.4252 43.0942C35.5204 42.6432 32.2905 41.1704 28.3303 42.1323C25.7948 42.7478 24.1011 44.0843 23.2826 44.8325C23.6595 45.237 25.918 47.5837 29.3143 47.4703C30.5933 47.4272 31.6267 47.0491 32.3256 46.7071C32.6224 46.5612 32.966 46.5146 33.288 46.5928C34.0156 46.7713 34.5706 47.3331 34.6749 47.982C34.826 48.9264 34.0076 50.0633 32.8311 50.0035C32.787 50.0008 32.7429 49.9947 32.6998 49.9841C28.4607 48.9826 24.0031 49.6271 20.9351 52.5832C17.305 56.0818 17.4866 60.6531 17.7511 62.5224C16.0691 61.8454 14.4726 62.3237 14.0373 62.4679C13.9923 62.8829 13.7837 65.1347 15.1877 66.7226C16.5944 68.3132 19.0328 68.5761 20.2893 67.9712C20.8173 68.5673 21.6223 69.2338 21.8148 69.2312C21.8148 69.2312 21.8148 69.2312 21.8157 69.2312C21.9083 69.2417 22.0018 69.2312 22.0945 69.2303C25.8874 69.2215 29.6794 69.2127 33.4724 69.2048C34.4834 69.1248 35.2065 68.3097 35.1633 67.4771C35.1301 66.8519 34.6848 66.2215 34.0004 66.0298C33.9554 66.0245 33.9104 66.0192 33.8663 66.014C32.7357 66.0342 31.6052 66.0553 30.4746 66.0755C31.1707 66.0412 32.0108 65.9304 32.9291 65.6579C33.7629 65.4099 34.4537 65.0899 34.9906 64.7927C35.0626 65.3862 35.2641 66.392 35.9126 67.4586C36.4351 68.3185 36.9838 68.9955 37.5136 69.1802C37.9525 69.3332 39.3502 69.2426 39.3502 69.2426C40.2398 69.1521 40.9125 68.4143 40.9063 67.5711C40.9 66.6945 40.1624 65.9498 39.2369 65.9164C39.218 65.9155 39.2054 65.897 39.2144 65.8812C39.4986 65.358 39.7999 64.703 40.0455 63.9248C40.2739 63.2012 40.3999 62.5418 40.4709 61.9861C41.1644 61.5227 42.7321 60.3304 43.3923 58.2817C43.815 56.9707 43.7242 55.7512 43.6756 55.1656C43.6037 54.2969 43.4166 53.561 43.2241 52.993C43.2205 52.9754 43.2169 52.9587 43.2133 52.9411C43.198 52.7635 43.1674 52.031 43.6936 51.5307C43.9778 51.2608 44.325 51.1535 44.3997 51.1316C44.6848 51.048 44.8656 51.0744 45.0401 51.0639C45.9278 51.0067 46.5637 49.9692 46.6339 49.8522C47.0512 49.1488 47.0107 48.4639 46.9856 48.2247Z" fill="#6E6E8F"/>
</svg>
