<svg width="95" height="95" viewBox="0 0 95 95" fill="none" xmlns="http://www.w3.org/2000/svg">
<rect x="1.5" y="1.5" width="92" height="92" rx="18.5" fill="#ECEEFA"/>
<path d="M15 75C15 72.2386 17.2386 70 20 70H37C39.7614 70 42 72.2386 42 75V87C42 89.7614 39.7614 92 37 92H20C17.2386 92 15 89.7614 15 87V75Z" fill="#52546B"/>
<path d="M51 47C51 44.2386 53.2386 42 56 42H72C74.7614 42 77 44.2386 77 47V87C77 89.7614 74.7614 92 72 92H56C53.2386 92 51 89.7614 51 87V47Z" fill="#6E6E8F"/>
<path d="M79.9873 22.9631C79.9873 22.9623 79.9865 22.9623 79.9873 22.9631C79.0602 21.809 78.1338 20.6549 77.2066 19.5008C76.8328 19.1047 76.2115 18.5432 75.3096 18.097C74.535 17.7144 73.8284 17.5529 73.3288 17.4797C73.3344 17.2037 73.3439 14.0389 70.7062 12.1459C68.4409 10.5193 65.9511 11.0729 65.5733 11.1636C65.7416 12.052 66.1329 13.5004 67.1359 15.0093C68.3611 16.8538 69.8779 17.856 70.707 18.322C69.9119 17.914 67.0735 16.5817 63.5933 17.4519C61.3651 18.0087 59.8767 19.2176 59.1575 19.8945C59.4887 20.2604 61.4734 22.3833 64.458 22.2807C65.582 22.2417 66.4902 21.8997 67.1043 21.5903C67.3652 21.4582 67.6671 21.4161 67.9501 21.4869C68.5895 21.6483 69.0772 22.1566 69.1689 22.7436C69.3017 23.5978 68.5824 24.6262 67.5485 24.5722C67.5098 24.5698 67.4711 24.5642 67.4331 24.5547C63.7079 23.6487 59.7906 24.2317 57.0945 26.9058C53.9044 30.0706 54.064 34.2058 54.2964 35.8968C52.8183 35.2844 51.4153 35.7171 51.0328 35.8475C50.9933 36.2229 50.8099 38.2599 52.0437 39.6964C53.2799 41.1352 55.4227 41.373 56.527 40.8258C56.9909 41.3651 57.6984 41.968 57.8675 41.9656C57.8675 41.9656 57.8675 41.9656 57.8683 41.9656C57.9497 41.9751 58.0319 41.9656 58.1133 41.9648C61.4465 41.9568 64.7789 41.9489 68.1121 41.9417C69.0005 41.8693 69.636 41.132 69.5981 40.3788C69.5688 39.8133 69.1776 39.243 68.5761 39.0696C68.5365 39.0648 68.497 39.06 68.4583 39.0553C67.4647 39.0736 66.4712 39.0927 65.4776 39.111C66.0894 39.0799 66.8277 38.9797 67.6347 38.7331C68.3674 38.5088 68.9744 38.2193 69.4463 37.9505C69.5096 38.4874 69.6866 39.3973 70.2565 40.3621C70.7157 41.14 71.1979 41.7524 71.6634 41.9194C72.0492 42.0578 73.2775 41.9759 73.2775 41.9759C74.0592 41.894 74.6504 41.2267 74.6449 40.4639C74.6394 39.6709 73.9912 38.9972 73.1779 38.967C73.1613 38.9662 73.1502 38.9495 73.1581 38.9352C73.4079 38.4619 73.6727 37.8694 73.8885 37.1654C74.0892 36.5108 74.1999 35.9143 74.2623 35.4116C74.8717 34.9925 76.2494 33.9139 76.8296 32.0607C77.2011 30.8748 77.1213 29.7716 77.0786 29.2419C77.0153 28.456 76.8509 27.7903 76.6818 27.2765C76.6786 27.2606 76.6755 27.2454 76.6723 27.2295C76.6589 27.0689 76.632 26.4063 77.0944 25.9537C77.3442 25.7096 77.6493 25.6125 77.7149 25.5926C77.9654 25.5171 78.1243 25.5409 78.2776 25.5314C79.0578 25.4797 79.6166 24.5411 79.6783 24.4354C80.045 23.799 80.0094 23.1794 79.9873 22.9631Z" fill="#878AB0"/>
<path d="M43.9873 50.9631C43.9873 50.9623 43.9865 50.9623 43.9873 50.9631C43.0602 49.809 42.1338 48.6549 41.2066 47.5008C40.8328 47.1047 40.2115 46.5432 39.3096 46.097C38.535 45.7144 37.8284 45.5529 37.3288 45.4797C37.3344 45.2037 37.3439 42.0389 34.7062 40.1459C32.4409 38.5193 29.9511 39.0729 29.5733 39.1636C29.7416 40.052 30.1329 41.5004 31.1359 43.0093C32.3611 44.8538 33.8779 45.856 34.707 46.322C33.9119 45.914 31.0735 44.5817 27.5933 45.4519C25.3651 46.0087 23.8767 47.2176 23.1575 47.8945C23.4887 48.2604 25.4734 50.3833 28.458 50.2807C29.582 50.2417 30.4902 49.8997 31.1043 49.5903C31.3652 49.4582 31.6671 49.4161 31.9501 49.4869C32.5895 49.6483 33.0772 50.1566 33.1689 50.7436C33.3017 51.5978 32.5824 52.6262 31.5485 52.5722C31.5098 52.5698 31.4711 52.5642 31.4331 52.5547C27.7079 51.6487 23.7906 52.2317 21.0945 54.9058C17.9044 58.0706 18.064 62.2058 18.2964 63.8968C16.8183 63.2844 15.4153 63.7171 15.0328 63.8475C14.9933 64.2229 14.8099 66.2599 16.0437 67.6964C17.2799 69.1352 19.4227 69.373 20.527 68.8258C20.9909 69.3651 21.6984 69.968 21.8675 69.9656C21.8675 69.9656 21.8675 69.9656 21.8683 69.9656C21.9497 69.9751 22.0319 69.9656 22.1133 69.9648C25.4465 69.9568 28.7789 69.9489 32.1121 69.9417C33.0005 69.8693 33.636 69.132 33.5981 68.3788C33.5688 67.8133 33.1776 67.243 32.5761 67.0696C32.5365 67.0648 32.497 67.06 32.4583 67.0553C31.4647 67.0736 30.4712 67.0927 29.4776 67.111C30.0894 67.0799 30.8277 66.9797 31.6347 66.7331C32.3674 66.5088 32.9744 66.2193 33.4463 65.9505C33.5096 66.4874 33.6866 67.3973 34.2565 68.3621C34.7157 69.14 35.1979 69.7524 35.6634 69.9194C36.0492 70.0578 37.2775 69.9759 37.2775 69.9759C38.0592 69.894 38.6504 69.2267 38.6449 68.4639C38.6394 67.6709 37.9912 66.9972 37.1779 66.967C37.1613 66.9662 37.1502 66.9495 37.1581 66.9352C37.4079 66.4619 37.6727 65.8694 37.8885 65.1654C38.0892 64.5108 38.1999 63.9143 38.2623 63.4116C38.8717 62.9925 40.2494 61.9139 40.8296 60.0607C41.2011 58.8748 41.1213 57.7716 41.0786 57.2419C41.0153 56.456 40.8509 55.7903 40.6818 55.2765C40.6786 55.2606 40.6755 55.2454 40.6723 55.2295C40.6589 55.0689 40.632 54.4063 41.0944 53.9537C41.3442 53.7096 41.6493 53.6125 41.7149 53.5926C41.9654 53.5171 42.1243 53.5409 42.2776 53.5314C43.0578 53.4797 43.6166 52.5411 43.6783 52.4354C44.045 51.799 44.0094 51.1794 43.9873 50.9631Z" fill="#6E6E8F"/>
<rect x="1.5" y="1.5" width="92" height="92" rx="18.5" stroke="#B8BAD1" stroke-width="3"/>
</svg>
