<svg width="86" height="87" fill="none" xmlns="http://www.w3.org/2000/svg">
<g filter="url(#filter0_d_2770_616)">
<ellipse cx="43" cy="39.5" rx="39" ry="39.5" fill="white"/>
</g>
<g filter="url(#filter1_d_2770_616)">
<ellipse cx="42.9996" cy="39.4999" rx="35.7945" ry="36.2973" fill="#CFD1E0"/>
<path d="M78.2941 39.4999C78.2941 59.2768 62.4857 75.2972 42.9996 75.2972C23.5135 75.2972 7.70508 59.2768 7.70508 39.4999C7.70508 19.723 23.5135 3.70264 42.9996 3.70264C62.4857 3.70264 78.2941 19.723 78.2941 39.4999Z" stroke="#A1A1C2"/>
</g>
<g filter="url(#filter2_d_2770_616)">
<path d="M64.9904 20.8758C64.9904 20.8753 64.9898 20.8753 64.9904 20.8758C64.287 20.0196 63.5843 19.1633 62.8809 18.307C62.5973 18.0132 62.126 17.5965 61.4418 17.2655C60.8542 16.9816 60.3181 16.8618 59.9391 16.8075C59.9433 16.6028 59.9505 14.2547 57.9496 12.8502C56.231 11.6434 54.3422 12.0541 54.0556 12.1214C54.1833 12.7806 54.4801 13.8552 55.2411 14.9746C56.1705 16.3431 57.3212 17.0867 57.9502 17.4325C57.3469 17.1298 55.1937 16.1413 52.5535 16.7869C50.8632 17.2 49.7341 18.097 49.1884 18.5992C49.4397 18.8706 50.9453 20.4457 53.2095 20.3695C54.0622 20.3406 54.7512 20.0869 55.2171 19.8573C55.4149 19.7593 55.644 19.7281 55.8587 19.7806C56.3438 19.9004 56.7137 20.2775 56.7833 20.713C56.884 21.3468 56.3384 22.1098 55.5541 22.0697C55.5247 22.0679 55.4953 22.0638 55.4665 22.0567C52.6405 21.3845 49.6687 21.8171 47.6234 23.8011C45.2033 26.1492 45.3244 29.2172 45.5007 30.4718C44.3794 30.0174 43.3151 30.3385 43.0249 30.4352C42.9949 30.7138 42.8558 32.2251 43.7918 33.2908C44.7296 34.3584 46.3552 34.5348 47.1929 34.1288C47.5448 34.5289 48.0815 34.9762 48.2098 34.9745C48.2098 34.9745 48.2098 34.9745 48.2104 34.9745C48.2722 34.9815 48.3346 34.9745 48.3963 34.9739C50.9249 34.968 53.453 34.9621 55.9816 34.9568C56.6556 34.9031 57.1377 34.356 57.1089 33.7972C57.0867 33.3776 56.7899 32.9545 56.3336 32.8258C56.3036 32.8223 56.2736 32.8187 56.2442 32.8152C55.4905 32.8288 54.7368 32.8429 53.983 32.8565C54.4471 32.8335 55.0072 32.7591 55.6194 32.5762C56.1753 32.4098 56.6358 32.195 56.9938 31.9955C57.0417 32.3939 57.176 33.069 57.6084 33.7848C57.9568 34.3619 58.3225 34.8163 58.6757 34.9402C58.9683 35.0429 59.9001 34.9821 59.9001 34.9821C60.4932 34.9214 60.9417 34.4262 60.9375 33.8603C60.9333 33.272 60.4416 32.7721 59.8246 32.7497C59.812 32.7491 59.8036 32.7367 59.8096 32.7261C59.9991 32.375 60.2 31.9353 60.3637 31.4131C60.516 30.9274 60.5999 30.4848 60.6473 30.1119C61.1096 29.8009 62.1547 29.0007 62.5949 27.6257C62.8767 26.7458 62.8161 25.9273 62.7838 25.5343C62.7358 24.9512 62.6111 24.4573 62.4827 24.0761C62.4803 24.0643 62.4779 24.0531 62.4755 24.0413C62.4653 23.9221 62.445 23.4305 62.7957 23.0947C62.9852 22.9135 63.2167 22.8415 63.2664 22.8268C63.4565 22.7707 63.5771 22.7884 63.6934 22.7814C64.2852 22.743 64.7091 22.0467 64.7559 21.9682C65.0341 21.4961 65.0072 21.0364 64.9904 20.8758Z" fill="#878AB0"/>
</g>
<g filter="url(#filter3_d_2770_616)">
<path d="M43 40C43 37.2386 45.2386 35 48 35H59C61.7614 35 64 37.2386 64 40V58C64 60.7614 61.7614 63 59 63H48C45.2386 63 43 60.7614 43 58V40Z" fill="#6E6E8F"/>
</g>
<g filter="url(#filter4_d_2770_616)">
<path d="M19 58C19 55.2386 21.2386 53 24 53H35C37.7614 53 40 55.2386 40 58C40 60.7614 37.7614 63 35 63H24C21.2386 63 19 60.7614 19 58Z" fill="#52546B"/>
</g>
<g filter="url(#filter5_d_2770_616)">
<path d="M40.9904 38.6052C40.9904 38.6046 40.9898 38.6046 40.9904 38.6052C40.287 37.7297 39.5843 36.8542 38.8809 35.9787C38.5973 35.6782 38.126 35.2522 37.4418 34.9137C36.8542 34.6234 36.3181 34.501 35.9391 34.4454C35.9433 34.2361 35.9505 31.8352 33.9496 30.3991C32.231 29.1652 30.3422 29.5851 30.0556 29.6539C30.1833 30.3279 30.4801 31.4267 31.2411 32.5713C32.1705 33.9706 33.3212 34.7309 33.9502 35.0844C33.3469 34.7749 31.1937 33.7642 28.5535 34.4243C26.8632 34.8467 25.7341 35.7639 25.1884 36.2773C25.4397 36.5549 26.9453 38.1654 29.2095 38.0875C30.0622 38.058 30.7512 37.7985 31.2171 37.5638C31.4149 37.4636 31.644 37.4316 31.8587 37.4853C32.3438 37.6078 32.7137 37.9934 32.7833 38.4387C32.884 39.0868 32.3384 39.8669 31.5541 39.8259C31.5247 39.8241 31.4953 39.8199 31.4665 39.8126C28.6405 39.1254 25.6687 39.5677 23.6234 41.5963C21.2033 43.9972 21.3244 47.1342 21.5007 48.417C20.3794 47.9524 19.3151 48.2807 19.0249 48.3796C18.9949 48.6644 18.8558 50.2097 19.7918 51.2994C20.7296 52.391 22.3552 52.5714 23.1929 52.1563C23.5448 52.5654 24.0815 53.0227 24.2098 53.0209C24.2098 53.0209 24.2098 53.0209 24.2104 53.0209C24.2722 53.0282 24.3346 53.0209 24.3963 53.0203C26.9249 53.0143 29.453 53.0082 31.9816 53.0028C32.6556 52.9479 33.1377 52.3886 33.1089 51.8171C33.0867 51.3881 32.7899 50.9555 32.3336 50.824C32.3036 50.8203 32.2736 50.8167 32.2442 50.8131C31.4905 50.827 30.7368 50.8415 29.983 50.8553C30.4471 50.8318 31.0072 50.7558 31.6194 50.5687C32.1753 50.3986 32.6358 50.1789 32.9938 49.975C33.0417 50.3823 33.176 51.0726 33.6084 51.8045C33.9568 52.3946 34.3225 52.8592 34.6757 52.9859C34.9683 53.0909 35.9001 53.0288 35.9001 53.0288C36.4932 52.9666 36.9417 52.4604 36.9375 51.8817C36.9333 51.2801 36.4416 50.7691 35.8246 50.7461C35.812 50.7455 35.8036 50.7328 35.8096 50.722C35.9991 50.363 36.2 49.9134 36.3637 49.3794C36.516 48.8828 36.5999 48.4303 36.6473 48.049C37.1096 47.731 38.1547 46.9128 38.5949 45.5069C38.8767 44.6072 38.8161 43.7703 38.7838 43.3684C38.7358 42.7723 38.6111 42.2672 38.4827 41.8774C38.4803 41.8654 38.4779 41.8539 38.4755 41.8418C38.4653 41.72 38.445 41.2173 38.7957 40.874C38.9852 40.6888 39.2167 40.6151 39.2664 40.6001C39.4565 40.5427 39.5771 40.5608 39.6934 40.5536C40.2852 40.5144 40.7091 39.8024 40.7559 39.7221C41.0341 39.2394 41.0072 38.7694 40.9904 38.6052Z" fill="#6E6E8F"/>
</g>
<defs>
<filter id="filter0_d_2770_616" x="0" y="0" width="86" height="87" filterUnits="userSpaceOnUse" color-interpolation-filters="sRGB">
<feFlood flood-opacity="0" result="BackgroundImageFix"/>
<feColorMatrix in="SourceAlpha" type="matrix" values="0 0 0 0 0 0 0 0 0 0 0 0 0 0 0 0 0 0 127 0" result="hardAlpha"/>
<feOffset dy="4"/>
<feGaussianBlur stdDeviation="2"/>
<feComposite in2="hardAlpha" operator="out"/>
<feColorMatrix type="matrix" values="0 0 0 0 0 0 0 0 0 0 0 0 0 0 0 0 0 0 0.15 0"/>
<feBlend mode="normal" in2="BackgroundImageFix" result="effect1_dropShadow_2770_616"/>
<feBlend mode="normal" in="SourceGraphic" in2="effect1_dropShadow_2770_616" result="shape"/>
</filter>
<filter id="filter1_d_2770_616" x="3.20508" y="3.20264" width="79.5898" height="80.5947" filterUnits="userSpaceOnUse" color-interpolation-filters="sRGB">
<feFlood flood-opacity="0" result="BackgroundImageFix"/>
<feColorMatrix in="SourceAlpha" type="matrix" values="0 0 0 0 0 0 0 0 0 0 0 0 0 0 0 0 0 0 127 0" result="hardAlpha"/>
<feOffset dy="4"/>
<feGaussianBlur stdDeviation="2"/>
<feComposite in2="hardAlpha" operator="out"/>
<feColorMatrix type="matrix" values="0 0 0 0 0 0 0 0 0 0 0 0 0 0 0 0 0 0 0.1 0"/>
<feBlend mode="normal" in2="BackgroundImageFix" result="effect1_dropShadow_2770_616"/>
<feBlend mode="normal" in="SourceGraphic" in2="effect1_dropShadow_2770_616" result="shape"/>
</filter>
<filter id="filter2_d_2770_616" x="39" y="12" width="30" height="31" filterUnits="userSpaceOnUse" color-interpolation-filters="sRGB">
<feFlood flood-opacity="0" result="BackgroundImageFix"/>
<feColorMatrix in="SourceAlpha" type="matrix" values="0 0 0 0 0 0 0 0 0 0 0 0 0 0 0 0 0 0 127 0" result="hardAlpha"/>
<feOffset dy="4"/>
<feGaussianBlur stdDeviation="2"/>
<feComposite in2="hardAlpha" operator="out"/>
<feColorMatrix type="matrix" values="0 0 0 0 0 0 0 0 0 0 0 0 0 0 0 0 0 0 0.2 0"/>
<feBlend mode="normal" in2="BackgroundImageFix" result="effect1_dropShadow_2770_616"/>
<feBlend mode="normal" in="SourceGraphic" in2="effect1_dropShadow_2770_616" result="shape"/>
</filter>
<filter id="filter3_d_2770_616" x="39" y="35" width="29" height="36" filterUnits="userSpaceOnUse" color-interpolation-filters="sRGB">
<feFlood flood-opacity="0" result="BackgroundImageFix"/>
<feColorMatrix in="SourceAlpha" type="matrix" values="0 0 0 0 0 0 0 0 0 0 0 0 0 0 0 0 0 0 127 0" result="hardAlpha"/>
<feOffset dy="4"/>
<feGaussianBlur stdDeviation="2"/>
<feComposite in2="hardAlpha" operator="out"/>
<feColorMatrix type="matrix" values="0 0 0 0 0 0 0 0 0 0 0 0 0 0 0 0 0 0 0.2 0"/>
<feBlend mode="normal" in2="BackgroundImageFix" result="effect1_dropShadow_2770_616"/>
<feBlend mode="normal" in="SourceGraphic" in2="effect1_dropShadow_2770_616" result="shape"/>
</filter>
<filter id="filter4_d_2770_616" x="15" y="53" width="29" height="18" filterUnits="userSpaceOnUse" color-interpolation-filters="sRGB">
<feFlood flood-opacity="0" result="BackgroundImageFix"/>
<feColorMatrix in="SourceAlpha" type="matrix" values="0 0 0 0 0 0 0 0 0 0 0 0 0 0 0 0 0 0 127 0" result="hardAlpha"/>
<feOffset dy="4"/>
<feGaussianBlur stdDeviation="2"/>
<feComposite in2="hardAlpha" operator="out"/>
<feColorMatrix type="matrix" values="0 0 0 0 0 0 0 0 0 0 0 0 0 0 0 0 0 0 0.2 0"/>
<feBlend mode="normal" in2="BackgroundImageFix" result="effect1_dropShadow_2770_616"/>
<feBlend mode="normal" in="SourceGraphic" in2="effect1_dropShadow_2770_616" result="shape"/>
</filter>
<filter id="filter5_d_2770_616" x="15" y="29.5298" width="30" height="31.5171" filterUnits="userSpaceOnUse" color-interpolation-filters="sRGB">
<feFlood flood-opacity="0" result="BackgroundImageFix"/>
<feColorMatrix in="SourceAlpha" type="matrix" values="0 0 0 0 0 0 0 0 0 0 0 0 0 0 0 0 0 0 127 0" result="hardAlpha"/>
<feOffset dy="4"/>
<feGaussianBlur stdDeviation="2"/>
<feComposite in2="hardAlpha" operator="out"/>
<feColorMatrix type="matrix" values="0 0 0 0 0 0 0 0 0 0 0 0 0 0 0 0 0 0 0.2 0"/>
<feBlend mode="normal" in2="BackgroundImageFix" result="effect1_dropShadow_2770_616"/>
<feBlend mode="normal" in="SourceGraphic" in2="effect1_dropShadow_2770_616" result="shape"/>
</filter>
</defs>
</svg>
