<svg width="86" height="87" viewBox="0 0 86 87" fill="none" xmlns="http://www.w3.org/2000/svg">
<g filter="url(#filter0_d_2770_616)">
<ellipse cx="43" cy="39.5" rx="39" ry="39.5" fill="white"/>
</g>
<g filter="url(#filter1_d_2770_616)">
<ellipse cx="42.9996" cy="39.4999" rx="35.7945" ry="36.2973" fill="#CFD1E0"/>
<path d="M78.2941 39.4999C78.2941 59.2768 62.4857 75.2972 42.9996 75.2972C23.5135 75.2972 7.70508 59.2768 7.70508 39.4999C7.70508 19.723 23.5135 3.70264 42.9996 3.70264C62.4857 3.70264 78.2941 19.723 78.2941 39.4999Z" stroke="#A1A1C2"/>
</g>
<g filter="url(#filter2_d_2770_616)">
<path d="M64.9904 19.8758C64.9904 19.8753 64.9898 19.8753 64.9904 19.8758C64.287 19.0196 63.5843 18.1633 62.8809 17.307C62.5973 17.0132 62.126 16.5965 61.4418 16.2655C60.8542 15.9816 60.3181 15.8618 59.9391 15.8075C59.9433 15.6028 59.9505 13.2547 57.9496 11.8502C56.231 10.6434 54.3422 11.0541 54.0556 11.1214C54.1833 11.7806 54.4801 12.8552 55.2411 13.9746C56.1705 15.3431 57.3212 16.0867 57.9502 16.4325C57.3469 16.1298 55.1937 15.1413 52.5535 15.7869C50.8632 16.2 49.7341 17.097 49.1884 17.5992C49.4397 17.8706 50.9453 19.4457 53.2095 19.3695C54.0622 19.3406 54.7512 19.0869 55.2171 18.8573C55.4149 18.7593 55.644 18.7281 55.8587 18.7806C56.3438 18.9004 56.7137 19.2775 56.7833 19.713C56.884 20.3468 56.3384 21.1098 55.5541 21.0697C55.5247 21.0679 55.4953 21.0638 55.4665 21.0567C52.6405 20.3845 49.6687 20.8171 47.6234 22.8011C45.2033 25.1492 45.3244 28.2172 45.5007 29.4718C44.3794 29.0174 43.3151 29.3385 43.0249 29.4352C42.9949 29.7138 42.8558 31.2251 43.7918 32.2908C44.7296 33.3584 46.3552 33.5348 47.1929 33.1288C47.5448 33.5289 48.0815 33.9762 48.2098 33.9745C48.2098 33.9745 48.2098 33.9745 48.2104 33.9745C48.2722 33.9815 48.3346 33.9745 48.3963 33.9739C50.9249 33.968 53.453 33.9621 55.9816 33.9568C56.6556 33.9031 57.1377 33.356 57.1089 32.7972C57.0867 32.3776 56.7899 31.9545 56.3336 31.8258C56.3036 31.8223 56.2736 31.8187 56.2442 31.8152C55.4905 31.8288 54.7368 31.8429 53.983 31.8565C54.4471 31.8335 55.0072 31.7591 55.6194 31.5762C56.1753 31.4098 56.6358 31.195 56.9938 30.9955C57.0417 31.3939 57.176 32.069 57.6084 32.7848C57.9568 33.3619 58.3225 33.8163 58.6757 33.9402C58.9683 34.0429 59.9001 33.9821 59.9001 33.9821C60.4932 33.9214 60.9417 33.4262 60.9375 32.8603C60.9333 32.272 60.4416 31.7721 59.8246 31.7497C59.812 31.7491 59.8036 31.7367 59.8096 31.7261C59.9991 31.375 60.2 30.9353 60.3637 30.4131C60.516 29.9274 60.5999 29.4848 60.6473 29.1119C61.1096 28.8009 62.1547 28.0007 62.5949 26.6257C62.8767 25.7458 62.8161 24.9273 62.7838 24.5343C62.7358 23.9512 62.6111 23.4573 62.4827 23.0761C62.4803 23.0643 62.4779 23.0531 62.4755 23.0413C62.4653 22.9221 62.445 22.4305 62.7957 22.0947C62.9852 21.9135 63.2167 21.8415 63.2664 21.8268C63.4565 21.7707 63.5771 21.7884 63.6934 21.7814C64.2852 21.743 64.7091 21.0467 64.7559 20.9682C65.0341 20.4961 65.0072 20.0364 64.9904 19.8758Z" fill="#878AB0"/>
</g>
<g filter="url(#filter3_d_2770_616)">
<path d="M43 39C43 36.2386 45.2386 34 48 34H59C61.7614 34 64 36.2386 64 39V57C64 59.7614 61.7614 62 59 62H48C45.2386 62 43 59.7614 43 57V39Z" fill="#6E6E8F"/>
</g>
<g filter="url(#filter4_d_2770_616)">
<path d="M19 57C19 54.2386 21.2386 52 24 52H35C37.7614 52 40 54.2386 40 57V57C40 59.7614 37.7614 62 35 62H24C21.2386 62 19 59.7614 19 57V57Z" fill="#52546B"/>
</g>
<g filter="url(#filter5_d_2770_616)">
<path d="M40.9904 37.6052C40.9904 37.6046 40.9898 37.6046 40.9904 37.6052C40.287 36.7297 39.5843 35.8542 38.8809 34.9787C38.5973 34.6782 38.126 34.2522 37.4418 33.9137C36.8542 33.6234 36.3181 33.501 35.9391 33.4454C35.9433 33.2361 35.9505 30.8352 33.9496 29.3991C32.231 28.1652 30.3422 28.5851 30.0556 28.6539C30.1833 29.3279 30.4801 30.4267 31.2411 31.5713C32.1705 32.9706 33.3212 33.7309 33.9502 34.0844C33.3469 33.7749 31.1937 32.7642 28.5535 33.4243C26.8632 33.8467 25.7341 34.7639 25.1884 35.2773C25.4397 35.5549 26.9453 37.1654 29.2095 37.0875C30.0622 37.058 30.7512 36.7985 31.2171 36.5638C31.4149 36.4636 31.644 36.4316 31.8587 36.4853C32.3438 36.6078 32.7137 36.9934 32.7833 37.4387C32.884 38.0868 32.3384 38.8669 31.5541 38.8259C31.5247 38.8241 31.4953 38.8199 31.4665 38.8126C28.6405 38.1254 25.6687 38.5677 23.6234 40.5963C21.2033 42.9972 21.3244 46.1342 21.5007 47.417C20.3794 46.9524 19.3151 47.2807 19.0249 47.3796C18.9949 47.6644 18.8558 49.2097 19.7918 50.2994C20.7296 51.391 22.3552 51.5714 23.1929 51.1563C23.5448 51.5654 24.0815 52.0227 24.2098 52.0209C24.2098 52.0209 24.2098 52.0209 24.2104 52.0209C24.2722 52.0282 24.3346 52.0209 24.3963 52.0203C26.9249 52.0143 29.453 52.0082 31.9816 52.0028C32.6556 51.9479 33.1377 51.3886 33.1089 50.8171C33.0867 50.3881 32.7899 49.9555 32.3336 49.824C32.3036 49.8203 32.2736 49.8167 32.2442 49.8131C31.4905 49.827 30.7368 49.8415 29.983 49.8553C30.4471 49.8318 31.0072 49.7558 31.6194 49.5687C32.1753 49.3986 32.6358 49.1789 32.9938 48.975C33.0417 49.3823 33.176 50.0726 33.6084 50.8045C33.9568 51.3946 34.3225 51.8592 34.6757 51.9859C34.9683 52.0909 35.9001 52.0288 35.9001 52.0288C36.4932 51.9666 36.9417 51.4604 36.9375 50.8817C36.9333 50.2801 36.4416 49.7691 35.8246 49.7461C35.812 49.7455 35.8036 49.7328 35.8096 49.722C35.9991 49.363 36.2 48.9134 36.3637 48.3794C36.516 47.8828 36.5999 47.4303 36.6473 47.049C37.1096 46.731 38.1547 45.9128 38.5949 44.5069C38.8767 43.6072 38.8161 42.7703 38.7838 42.3684C38.7358 41.7723 38.6111 41.2672 38.4827 40.8774C38.4803 40.8654 38.4779 40.8539 38.4755 40.8418C38.4653 40.72 38.445 40.2173 38.7957 39.874C38.9852 39.6888 39.2167 39.6151 39.2664 39.6001C39.4565 39.5427 39.5771 39.5608 39.6934 39.5536C40.2852 39.5144 40.7091 38.8024 40.7559 38.7221C41.0341 38.2394 41.0072 37.7694 40.9904 37.6052Z" fill="#6E6E8F"/>
</g>
<defs>
<filter id="filter0_d_2770_616" x="0" y="0" width="86" height="87" filterUnits="userSpaceOnUse" color-interpolation-filters="sRGB">
<feFlood flood-opacity="0" result="BackgroundImageFix"/>
<feColorMatrix in="SourceAlpha" type="matrix" values="0 0 0 0 0 0 0 0 0 0 0 0 0 0 0 0 0 0 127 0" result="hardAlpha"/>
<feOffset dy="4"/>
<feGaussianBlur stdDeviation="2"/>
<feComposite in2="hardAlpha" operator="out"/>
<feColorMatrix type="matrix" values="0 0 0 0 0 0 0 0 0 0 0 0 0 0 0 0 0 0 0.15 0"/>
<feBlend mode="normal" in2="BackgroundImageFix" result="effect1_dropShadow_2770_616"/>
<feBlend mode="normal" in="SourceGraphic" in2="effect1_dropShadow_2770_616" result="shape"/>
</filter>
<filter id="filter1_d_2770_616" x="3.20508" y="3.20264" width="79.5898" height="80.5947" filterUnits="userSpaceOnUse" color-interpolation-filters="sRGB">
<feFlood flood-opacity="0" result="BackgroundImageFix"/>
<feColorMatrix in="SourceAlpha" type="matrix" values="0 0 0 0 0 0 0 0 0 0 0 0 0 0 0 0 0 0 127 0" result="hardAlpha"/>
<feOffset dy="4"/>
<feGaussianBlur stdDeviation="2"/>
<feComposite in2="hardAlpha" operator="out"/>
<feColorMatrix type="matrix" values="0 0 0 0 0 0 0 0 0 0 0 0 0 0 0 0 0 0 0.1 0"/>
<feBlend mode="normal" in2="BackgroundImageFix" result="effect1_dropShadow_2770_616"/>
<feBlend mode="normal" in="SourceGraphic" in2="effect1_dropShadow_2770_616" result="shape"/>
</filter>
<filter id="filter2_d_2770_616" x="39" y="11" width="30" height="31" filterUnits="userSpaceOnUse" color-interpolation-filters="sRGB">
<feFlood flood-opacity="0" result="BackgroundImageFix"/>
<feColorMatrix in="SourceAlpha" type="matrix" values="0 0 0 0 0 0 0 0 0 0 0 0 0 0 0 0 0 0 127 0" result="hardAlpha"/>
<feOffset dy="4"/>
<feGaussianBlur stdDeviation="2"/>
<feComposite in2="hardAlpha" operator="out"/>
<feColorMatrix type="matrix" values="0 0 0 0 0 0 0 0 0 0 0 0 0 0 0 0 0 0 0.2 0"/>
<feBlend mode="normal" in2="BackgroundImageFix" result="effect1_dropShadow_2770_616"/>
<feBlend mode="normal" in="SourceGraphic" in2="effect1_dropShadow_2770_616" result="shape"/>
</filter>
<filter id="filter3_d_2770_616" x="39" y="34" width="29" height="36" filterUnits="userSpaceOnUse" color-interpolation-filters="sRGB">
<feFlood flood-opacity="0" result="BackgroundImageFix"/>
<feColorMatrix in="SourceAlpha" type="matrix" values="0 0 0 0 0 0 0 0 0 0 0 0 0 0 0 0 0 0 127 0" result="hardAlpha"/>
<feOffset dy="4"/>
<feGaussianBlur stdDeviation="2"/>
<feComposite in2="hardAlpha" operator="out"/>
<feColorMatrix type="matrix" values="0 0 0 0 0 0 0 0 0 0 0 0 0 0 0 0 0 0 0.2 0"/>
<feBlend mode="normal" in2="BackgroundImageFix" result="effect1_dropShadow_2770_616"/>
<feBlend mode="normal" in="SourceGraphic" in2="effect1_dropShadow_2770_616" result="shape"/>
</filter>
<filter id="filter4_d_2770_616" x="15" y="52" width="29" height="18" filterUnits="userSpaceOnUse" color-interpolation-filters="sRGB">
<feFlood flood-opacity="0" result="BackgroundImageFix"/>
<feColorMatrix in="SourceAlpha" type="matrix" values="0 0 0 0 0 0 0 0 0 0 0 0 0 0 0 0 0 0 127 0" result="hardAlpha"/>
<feOffset dy="4"/>
<feGaussianBlur stdDeviation="2"/>
<feComposite in2="hardAlpha" operator="out"/>
<feColorMatrix type="matrix" values="0 0 0 0 0 0 0 0 0 0 0 0 0 0 0 0 0 0 0.2 0"/>
<feBlend mode="normal" in2="BackgroundImageFix" result="effect1_dropShadow_2770_616"/>
<feBlend mode="normal" in="SourceGraphic" in2="effect1_dropShadow_2770_616" result="shape"/>
</filter>
<filter id="filter5_d_2770_616" x="15" y="28.5298" width="30" height="31.5171" filterUnits="userSpaceOnUse" color-interpolation-filters="sRGB">
<feFlood flood-opacity="0" result="BackgroundImageFix"/>
<feColorMatrix in="SourceAlpha" type="matrix" values="0 0 0 0 0 0 0 0 0 0 0 0 0 0 0 0 0 0 127 0" result="hardAlpha"/>
<feOffset dy="4"/>
<feGaussianBlur stdDeviation="2"/>
<feComposite in2="hardAlpha" operator="out"/>
<feColorMatrix type="matrix" values="0 0 0 0 0 0 0 0 0 0 0 0 0 0 0 0 0 0 0.2 0"/>
<feBlend mode="normal" in2="BackgroundImageFix" result="effect1_dropShadow_2770_616"/>
<feBlend mode="normal" in="SourceGraphic" in2="effect1_dropShadow_2770_616" result="shape"/>
</filter>
</defs>
</svg>
