<svg width="100" height="100" viewBox="0 0 100 100" fill="none" xmlns="http://www.w3.org/2000/svg">
<rect x="0.5" y="0.5" width="99" height="99" rx="19.5" fill="#F2F2F7"/>
<path d="M16 80C16 77.2386 18.2386 75 21 75H41C43.7614 75 46 77.2386 46 80V99H16V80Z" fill="#EF8509"/>
<path d="M53 47C53 44.2386 55.2386 42 58 42H78C80.7614 42 83 44.2386 83 47V99H53V47Z" fill="#E62541"/>
<path d="M84.9856 17.7537C84.9856 17.7528 84.9847 17.7528 84.9856 17.7537C83.9305 16.4269 82.8764 15.1 81.8213 13.7732C81.3959 13.3178 80.6889 12.6722 79.6627 12.1592C78.7812 11.7194 77.9771 11.5337 77.4087 11.4496C77.415 11.1323 77.4258 7.49377 74.4243 5.31742C71.8466 3.4474 69.0133 4.08385 68.5834 4.18809C68.775 5.20951 69.2202 6.8747 70.3616 8.60938C71.7557 10.7299 73.4817 11.8821 74.4252 12.418C73.5204 11.9489 70.2905 10.4172 66.3303 11.4176C63.7948 12.0577 62.1011 13.4476 61.2826 14.2258C61.6595 14.6465 63.918 17.0871 67.3143 16.9691C68.5933 16.9243 69.6267 16.5311 70.3256 16.1754C70.6224 16.0236 70.966 15.9751 71.288 16.0565C72.0156 16.2422 72.5706 16.8265 72.6749 17.5013C72.826 18.4834 72.0076 19.6658 70.8311 19.6036C70.787 19.6009 70.7429 19.5945 70.6998 19.5835C66.4607 18.5419 62.0031 19.2122 58.9351 22.2866C55.305 25.9251 55.4866 30.6792 55.7511 32.6233C54.0691 31.9192 52.4726 32.4166 52.0373 32.5666C51.9923 32.9982 51.7837 35.3401 53.1877 36.9916C54.5944 38.6458 57.0328 38.9192 58.2893 38.29C58.8173 38.91 59.6223 39.6032 59.8148 39.6004C59.8148 39.6004 59.8148 39.6004 59.8157 39.6004C59.9083 39.6114 60.0018 39.6004 60.0945 39.5995C63.8874 39.5904 67.6794 39.5812 71.4724 39.573C72.4834 39.4898 73.2065 38.6421 73.1633 37.7761C73.1301 37.126 72.6848 36.4703 72.0004 36.271C71.9554 36.2655 71.9104 36.26 71.8663 36.2545C70.7357 36.2756 69.6052 36.2975 68.4746 36.3185C69.1707 36.2829 70.0108 36.1676 70.9291 35.8842C71.7629 35.6263 72.4537 35.2934 72.9906 34.9844C73.0626 35.6016 73.2641 36.6477 73.9126 37.7569C74.4351 38.6512 74.9838 39.3554 75.5136 39.5474C75.9525 39.7065 77.3502 39.6123 77.3502 39.6123C78.2398 39.5181 78.9125 38.7509 78.9063 37.874C78.9 36.9623 78.1624 36.1878 77.2369 36.153C77.218 36.1521 77.2054 36.1329 77.2144 36.1164C77.4986 35.5724 77.7999 34.8911 78.0455 34.0818C78.2739 33.3292 78.3999 32.6434 78.4709 32.0655C79.1644 31.5836 80.7321 30.3436 81.3923 28.213C81.815 26.8496 81.7242 25.5813 81.6756 24.9722C81.6037 24.0688 81.4166 23.3034 81.2241 22.7127C81.2205 22.6944 81.2169 22.677 81.2133 22.6587C81.198 22.474 81.1674 21.7123 81.6936 21.192C81.9778 20.9112 82.325 20.7997 82.3997 20.7768C82.6848 20.69 82.8656 20.7174 83.0401 20.7064C83.9278 20.647 84.5637 19.5679 84.6339 19.4463C85.0512 18.7148 85.0107 18.0024 84.9856 17.7537Z" fill="url(#paint0_linear_2760_660)"/>
<path d="M49.9856 52.2247C49.9856 52.2238 49.9847 52.2238 49.9856 52.2247C48.9305 50.9489 47.8764 49.6731 46.8213 48.3973C46.3959 47.9594 45.6889 47.3387 44.6627 46.8454C43.7812 46.4225 42.9771 46.244 42.4087 46.1631C42.415 45.858 42.4258 42.3594 39.4243 40.2667C36.8466 38.4687 34.0133 39.0806 33.5834 39.1809C33.775 40.163 34.2202 41.7641 35.3616 43.4321C36.7557 45.4711 38.4817 46.579 39.4252 47.0942C38.5204 46.6432 35.2905 45.1704 31.3303 46.1323C28.7948 46.7478 27.1011 48.0843 26.2826 48.8325C26.6595 49.237 28.918 51.5837 32.3143 51.4703C33.5933 51.4272 34.6267 51.0491 35.3256 50.7071C35.6224 50.5612 35.966 50.5146 36.288 50.5928C37.0156 50.7713 37.5706 51.3331 37.6749 51.982C37.826 52.9264 37.0076 54.0633 35.8311 54.0035C35.787 54.0008 35.7429 53.9947 35.6998 53.9841C31.4607 52.9826 27.0031 53.6271 23.9351 56.5832C20.305 60.0818 20.4866 64.6531 20.7511 66.5224C19.0691 65.8454 17.4726 66.3237 17.0373 66.4679C16.9923 66.8829 16.7837 69.1347 18.1877 70.7226C19.5944 72.3132 22.0328 72.5761 23.2893 71.9712C23.8173 72.5673 24.6223 73.2338 24.8148 73.2312C24.8148 73.2312 24.8148 73.2312 24.8157 73.2312C24.9083 73.2417 25.0018 73.2312 25.0945 73.2303C28.8874 73.2215 32.6794 73.2127 36.4724 73.2048C37.4834 73.1248 38.2065 72.3097 38.1633 71.4771C38.1301 70.8519 37.6848 70.2215 37.0004 70.0298C36.9554 70.0245 36.9104 70.0192 36.8663 70.014C35.7357 70.0342 34.6052 70.0553 33.4746 70.0755C34.1707 70.0412 35.0108 69.9304 35.9291 69.6579C36.7629 69.4099 37.4537 69.0899 37.9906 68.7927C38.0626 69.3862 38.2641 70.392 38.9126 71.4586C39.4351 72.3185 39.9838 72.9955 40.5136 73.1802C40.9525 73.3332 42.3502 73.2426 42.3502 73.2426C43.2398 73.1521 43.9125 72.4143 43.9063 71.5711C43.9 70.6945 43.1624 69.9498 42.2369 69.9164C42.218 69.9155 42.2054 69.897 42.2144 69.8812C42.4986 69.358 42.7999 68.703 43.0455 67.9248C43.2739 67.2012 43.3999 66.5418 43.4709 65.9861C44.1644 65.5227 45.7321 64.3304 46.3923 62.2817C46.815 60.9707 46.7242 59.7512 46.6756 59.1656C46.6037 58.2969 46.4166 57.561 46.2241 56.993C46.2205 56.9754 46.2169 56.9587 46.2133 56.9411C46.198 56.7635 46.1674 56.031 46.6936 55.5307C46.9778 55.2608 47.325 55.1535 47.3997 55.1316C47.6848 55.048 47.8656 55.0744 48.0401 55.0639C48.9278 55.0067 49.5637 53.9692 49.6339 53.8522C50.0512 53.1488 50.0107 52.4639 49.9856 52.2247Z" fill="url(#paint1_linear_2760_660)"/>
<rect x="0.5" y="0.5" width="99" height="99" rx="19.5" stroke="#CFD1E0"/>
<defs>
<linearGradient id="paint0_linear_2760_660" x1="68.5" y1="4" x2="68.5" y2="39.64" gradientUnits="userSpaceOnUse">
<stop stop-color="#EC1103"/>
<stop offset="0.203125" stop-color="#D1242A"/>
<stop offset="0.932292" stop-color="#F1254D"/>
</linearGradient>
<linearGradient id="paint1_linear_2760_660" x1="33.5" y1="39" x2="33.5" y2="73.2692" gradientUnits="userSpaceOnUse">
<stop stop-color="#C87D0D"/>
<stop offset="0.932292" stop-color="#EE8408"/>
</linearGradient>
</defs>
</svg>
