<svg width="100" height="100" viewBox="0 0 100 100" fill="none" xmlns="http://www.w3.org/2000/svg">
<rect x="0.5" y="0.5" width="99" height="99" rx="19.5" fill="#F2F2F7"/>
<g filter="url(#filter0_d_2758_645)">
<g filter="url(#filter1_d_2758_645)">
<path d="M14 49.9999C14 67.6718 30.12 81.9998 50 81.9998C55.8855 82.0198 61.7008 80.7228 67.02 78.2038L86 81.9998L80.42 67.1198C83.952 62.1678 86 56.2959 86 49.9999C86 32.3279 69.88 18 50 18C30.12 18 14 32.3279 14 49.9999Z" fill="#D3564E"/>
<path d="M14 49.9999C14 67.6718 30.12 81.9998 50 81.9998C55.8855 82.0198 61.7008 80.7228 67.02 78.2038L86 81.9998L80.42 67.1198C83.952 62.1678 86 56.2959 86 49.9999C86 32.3279 69.88 18 50 18C30.12 18 14 32.3279 14 49.9999Z" stroke="#FF9089" stroke-width="2" stroke-linecap="round" stroke-linejoin="round"/>
</g>
<path d="M50 42.1247V46.4997V42.1247ZM50 55.2499H50.0224H50ZM34.4856 64H65.5144C68.963 64 71.1173 60.3534 69.393 57.4374L53.8786 31.187C52.1543 28.271 47.8457 28.271 46.1214 31.187L30.607 57.4374C28.8827 60.3534 31.037 64 34.4856 64Z" stroke="#FF9089" stroke-width="3" stroke-linecap="round" stroke-linejoin="round"/>
</g>
<rect x="0.5" y="0.5" width="99" height="99" rx="19.5" stroke="#CFD1E0"/>
<defs>
<filter id="filter0_d_2758_645" x="1" y="13" width="98" height="82" filterUnits="userSpaceOnUse" color-interpolation-filters="sRGB">
<feFlood flood-opacity="0" result="BackgroundImageFix"/>
<feColorMatrix in="SourceAlpha" type="matrix" values="0 0 0 0 0 0 0 0 0 0 0 0 0 0 0 0 0 0 127 0" result="hardAlpha"/>
<feOffset dy="4"/>
<feGaussianBlur stdDeviation="2"/>
<feComposite in2="hardAlpha" operator="out"/>
<feColorMatrix type="matrix" values="0 0 0 0 0 0 0 0 0 0 0 0 0 0 0 0 0 0 0.05 0"/>
<feBlend mode="normal" in2="BackgroundImageFix" result="effect1_dropShadow_2758_645"/>
<feBlend mode="normal" in="SourceGraphic" in2="effect1_dropShadow_2758_645" result="shape"/>
</filter>
<filter id="filter1_d_2758_645" x="9" y="17" width="82" height="74" filterUnits="userSpaceOnUse" color-interpolation-filters="sRGB">
<feFlood flood-opacity="0" result="BackgroundImageFix"/>
<feColorMatrix in="SourceAlpha" type="matrix" values="0 0 0 0 0 0 0 0 0 0 0 0 0 0 0 0 0 0 127 0" result="hardAlpha"/>
<feOffset dy="4"/>
<feGaussianBlur stdDeviation="2"/>
<feComposite in2="hardAlpha" operator="out"/>
<feColorMatrix type="matrix" values="0 0 0 0 0 0 0 0 0 0 0 0 0 0 0 0 0 0 0.25 0"/>
<feBlend mode="normal" in2="BackgroundImageFix" result="effect1_dropShadow_2758_645"/>
<feBlend mode="normal" in="SourceGraphic" in2="effect1_dropShadow_2758_645" result="shape"/>
</filter>
</defs>
</svg>
