<svg width="50" height="55" viewBox="0 0 50 55" fill="none" xmlns="http://www.w3.org/2000/svg">
    <path fill-rule="evenodd" clip-rule="evenodd" d="M26.0239 0.030043C25.1759 0.0921326 24.0861 0.291849 24.0861 0.385269C24.0861 1.39573 25.3185 4.62852 26.3538 6.33341C28.0348 9.10167 31.2917 12.1632 33.2422 12.8087C33.2856 12.8232 33.2491 12.9508 33.1765 13.0382C33.171 13.045 32.9393 12.9212 32.6617 12.7632C31.8594 12.3069 30.5245 11.8166 29.2093 11.4951C23.8659 10.1892 18.235 11.3452 13.8611 14.6458C13.3776 15.0107 12.6138 15.65 12.591 15.7089C12.5714 15.7593 13.2807 16.5575 13.663 16.9155C17.0983 20.1316 22.0686 20.8852 26.333 18.8367C27.4986 18.2768 28.4143 18.2855 29.3108 18.8652C31.9408 20.5655 30.0285 24.7992 27.0494 23.8719C13.6415 19.6982 0.677491 31.6459 3.90397 45.2028C4.04029 45.7759 4.04158 45.7731 3.62558 45.8335C0.519128 46.2844 -1.02876 49.8048 0.753722 52.3647C2.25478 54.5204 5.35561 54.783 7.22111 52.9122C7.50049 52.6322 7.63771 52.5684 7.70556 52.687C7.91826 53.0588 9.51528 54.5889 9.86181 54.753L10.0886 54.8603L18.1873 54.8709L26.2862 54.8815L26.954 54.74L27.6219 54.5984L27.8433 54.6838C29.6231 55.3699 31.6101 53.5661 31.1607 51.6726C30.7957 50.1348 28.9282 49.2282 27.5796 49.9341C27.5257 49.9624 27.5001 49.9546 27.4803 49.9036C27.4508 49.827 27.4257 49.8278 25.4673 49.9525C24.0655 50.042 22.9728 49.9753 22.9728 49.8002C22.9728 49.7292 22.9934 49.7251 23.21 49.7534C23.6724 49.814 25.5546 49.7835 26.0651 49.7069C27.5597 49.4832 28.5717 49.1156 29.9262 48.3044C30.8501 47.7512 30.952 47.712 30.9903 47.8959C31.0003 47.944 31.0569 48.2209 31.1162 48.5112C31.5838 50.8046 32.8092 52.931 34.5681 54.5012L34.9913 54.8789L36.4221 54.88C38.3563 54.8811 38.9035 54.7357 39.6079 54.034C41.1416 52.5061 40.1509 49.8614 37.983 49.6955C37.5655 49.6636 37.5619 49.6517 37.8156 49.1499C38.6323 47.5342 39.2222 45.7097 39.5067 43.9209C39.5524 43.6337 39.598 43.3616 39.6081 43.316C39.6185 43.2689 39.7876 43.1223 40.0005 42.9758C43.3316 40.684 45.1369 36.7153 44.6962 32.6538C44.6518 32.2444 44.1757 29.6872 44.0332 29.0925C43.6245 27.3866 44.7672 25.871 46.5917 25.6989C48.412 25.5271 50.1239 23.3278 49.9187 21.4247L49.891 21.1679L48.811 19.8138C48.2172 19.069 47.1467 17.7257 46.4324 16.8286C45.7181 15.9315 44.9668 15.0243 44.7626 14.8127C43.1731 13.1644 40.7936 11.9807 38.4208 11.6578C37.9915 11.5993 38.0026 11.619 37.992 10.9015C37.8995 4.57502 32.3832 -0.435771 26.0239 0.030043Z" fill="white"/>
</svg>
