<svg width="51" height="39" viewBox="0 0 51 39" fill="none" xmlns="http://www.w3.org/2000/svg">
<path d="M23.6304 8.48645C24.6914 7.83777 26.4804 7.83786 27.5411 8.48665L50.2678 22.3869C51.2442 22.9841 51.244 23.9167 50.2675 24.5138L27.3696 38.5135C26.3086 39.1622 24.5196 39.1621 23.4589 38.5134L0.732179 24.6131C-0.244192 24.0159 -0.244041 23.0833 0.732521 22.4863L23.6304 8.48645Z" fill="#77797B" fill-opacity="0.84"/>
<path d="M23.6304 4.48645C24.6914 3.83777 26.4804 3.83786 27.5411 4.48665L50.2678 18.3869C51.2442 18.9841 51.244 19.9167 50.2675 20.5138L27.3696 34.5135C26.3086 35.1622 24.5196 35.1621 23.4589 34.5134L0.732179 20.6131C-0.244192 20.0159 -0.244041 19.0833 0.732521 18.4863L23.6304 4.48645Z" fill="#77797B" fill-opacity="0.76"/>
<path d="M23.6304 0.486445C24.6914 -0.162231 26.4804 -0.162135 27.5411 0.486654L50.2678 14.3869C51.2442 14.9841 51.244 15.9167 50.2675 16.5138L27.3696 30.5135C26.3086 31.1622 24.5196 31.1621 23.4589 30.5134L0.732179 16.6131C-0.244192 16.0159 -0.244041 15.0833 0.732521 14.4863L23.6304 0.486445Z" fill="#77797B" fill-opacity="0.88"/>
</svg>
