<svg width="117" height="37" viewBox="0 0 117 37" fill="none" xmlns="http://www.w3.org/2000/svg">
<path d="M30.9864 12.9845C30.9864 12.9836 30.9856 12.9836 30.9864 12.9845C29.9953 11.7319 29.0051 10.4792 28.014 9.22659C27.6143 8.79667 26.9502 8.18719 25.9862 7.70288C25.1581 7.28764 24.4028 7.11239 23.8688 7.03297C23.8747 6.73341 23.8848 3.29837 21.0653 1.24374C18.6437 -0.521692 15.9822 0.0791581 15.5783 0.177573C15.7583 1.14187 16.1765 2.71392 17.2488 4.35159C18.5584 6.35356 20.1798 7.44131 21.0661 7.94719C20.2161 7.50433 17.182 6.05831 13.4618 7.00275C11.0799 7.60706 9.48894 8.91926 8.72005 9.65392C9.07408 10.051 11.1957 12.3552 14.3861 12.2438C15.5876 12.2015 16.5584 11.8303 17.215 11.4945C17.4938 11.3512 17.8165 11.3054 18.119 11.3822C18.8026 11.5575 19.3239 12.1091 19.4219 12.7462C19.5639 13.6734 18.795 14.7896 17.6898 14.7309C17.6484 14.7283 17.607 14.7223 17.5664 14.7119C13.5843 13.7287 9.39684 14.3614 6.51479 17.2638C3.10466 20.6989 3.27534 25.1871 3.52375 27.0225C1.94373 26.3577 0.443983 26.8274 0.035038 26.969C-0.00720844 27.3764 -0.203232 29.5873 1.1157 31.1464C2.43717 32.7081 4.72777 32.9662 5.90813 32.3723C6.4041 32.9576 7.16032 33.612 7.34113 33.6094C7.34113 33.6094 7.34113 33.6094 7.34197 33.6094C7.429 33.6198 7.51687 33.6094 7.6039 33.6085C11.167 33.5999 14.7292 33.5913 18.2922 33.5835C19.2419 33.5049 19.9213 32.7047 19.8807 31.8871C19.8494 31.2733 19.4312 30.6543 18.7882 30.4661C18.746 30.461 18.7037 30.4558 18.6623 30.4506C17.6002 30.4705 16.5382 30.4912 15.4761 30.511C16.1301 30.4774 16.9192 30.3686 17.7819 30.101C18.5652 29.8575 19.2141 29.5433 19.7185 29.2515C19.7861 29.8342 19.9753 30.8218 20.5845 31.869C21.0754 32.7133 21.5908 33.378 22.0885 33.5593C22.5008 33.7095 23.8138 33.6206 23.8138 33.6206C24.6495 33.5317 25.2815 32.8074 25.2756 31.9795C25.2697 31.1188 24.5768 30.3876 23.7074 30.3548C23.6896 30.3539 23.6778 30.3358 23.6863 30.3203C23.9533 29.8066 24.2363 29.1634 24.467 28.3994C24.6816 27.6889 24.7999 27.0415 24.8666 26.4959C25.5181 26.0409 26.9908 24.8703 27.611 22.8588C28.0081 21.5717 27.9227 20.3743 27.8771 19.7993C27.8095 18.9464 27.6338 18.2238 27.4529 17.6661C27.4496 17.6489 27.4462 17.6325 27.4428 17.6152C27.4284 17.4408 27.3997 16.7217 27.894 16.2305C28.161 15.9654 28.4871 15.8601 28.5573 15.8385C28.8251 15.7565 28.9949 15.7824 29.1589 15.7721C29.9928 15.716 30.5902 14.6973 30.6561 14.5825C31.0481 13.8918 31.0101 13.2193 30.9864 12.9845Z" fill="#5C5D71"/>
<path d="M42.336 31.373V8.01305H47.456V21.485H46.688C46.688 19.7144 46.912 18.221 47.36 17.005C47.808 15.789 48.4693 14.8717 49.344 14.253C50.2187 13.613 51.3173 13.293 52.64 13.293H52.864C54.8053 13.293 56.288 13.9864 57.312 15.373C58.336 16.7384 58.848 18.7437 58.848 21.389V31.373H53.728V21.069C53.728 20.109 53.44 19.341 52.864 18.765C52.3093 18.1677 51.5733 17.869 50.656 17.869C49.696 17.869 48.9173 18.1784 48.32 18.797C47.744 19.4157 47.456 20.237 47.456 21.261V31.373H42.336ZM73.803 31.373V26.189H72.939V20.557C72.939 19.661 72.7257 18.989 72.299 18.541C71.8723 18.093 71.1897 17.869 70.251 17.869C69.7817 17.869 69.163 17.8797 68.395 17.901C67.627 17.9224 66.8377 17.9544 66.027 17.997C65.2163 18.0397 64.4803 18.0824 63.819 18.125V13.805C64.3097 13.7624 64.8857 13.7197 65.547 13.677C66.2083 13.6344 66.891 13.6024 67.595 13.581C68.299 13.5597 68.9603 13.549 69.579 13.549C71.371 13.549 72.875 13.805 74.091 14.317C75.3283 14.829 76.267 15.6077 76.907 16.653C77.547 17.677 77.867 18.9997 77.867 20.621V31.373H73.803ZM68.203 31.821C66.9443 31.821 65.835 31.597 64.875 31.149C63.9363 30.701 63.2003 30.061 62.667 29.229C62.1337 28.3757 61.867 27.3624 61.867 26.189C61.867 24.909 62.1977 23.8637 62.859 23.053C63.5203 22.221 64.4483 21.613 65.643 21.229C66.8377 20.8237 68.2137 20.621 69.771 20.621H73.515V23.469H69.739C68.843 23.469 68.1497 23.693 67.659 24.141C67.1897 24.5677 66.955 25.1544 66.955 25.901C66.955 26.605 67.1897 27.181 67.659 27.629C68.1497 28.0557 68.843 28.269 69.739 28.269C70.315 28.269 70.827 28.173 71.275 27.981C71.7443 27.7677 72.1283 27.4157 72.427 26.925C72.7257 26.4344 72.8963 25.7517 72.939 24.877L74.155 26.157C74.0483 27.373 73.7497 28.397 73.259 29.229C72.7897 30.061 72.1283 30.701 71.275 31.149C70.443 31.597 69.419 31.821 68.203 31.821ZM92.803 31.373V26.189H91.939V20.557C91.939 19.661 91.7257 18.989 91.299 18.541C90.8723 18.093 90.1897 17.869 89.251 17.869C88.7817 17.869 88.163 17.8797 87.395 17.901C86.627 17.9224 85.8377 17.9544 85.027 17.997C84.2163 18.0397 83.4803 18.0824 82.819 18.125V13.805C83.3097 13.7624 83.8857 13.7197 84.547 13.677C85.2083 13.6344 85.891 13.6024 86.595 13.581C87.299 13.5597 87.9603 13.549 88.579 13.549C90.371 13.549 91.875 13.805 93.091 14.317C94.3283 14.829 95.267 15.6077 95.907 16.653C96.547 17.677 96.867 18.9997 96.867 20.621V31.373H92.803ZM87.203 31.821C85.9443 31.821 84.835 31.597 83.875 31.149C82.9363 30.701 82.2003 30.061 81.667 29.229C81.1337 28.3757 80.867 27.3624 80.867 26.189C80.867 24.909 81.1977 23.8637 81.859 23.053C82.5203 22.221 83.4483 21.613 84.643 21.229C85.8377 20.8237 87.2137 20.621 88.771 20.621H92.515V23.469H88.739C87.843 23.469 87.1497 23.693 86.659 24.141C86.1897 24.5677 85.955 25.1544 85.955 25.901C85.955 26.605 86.1897 27.181 86.659 27.629C87.1497 28.0557 87.843 28.269 88.739 28.269C89.315 28.269 89.827 28.173 90.275 27.981C90.7443 27.7677 91.1283 27.4157 91.427 26.925C91.7257 26.4344 91.8963 25.7517 91.939 24.877L93.155 26.157C93.0483 27.373 92.7497 28.397 92.259 29.229C91.7897 30.061 91.1283 30.701 90.275 31.149C89.443 31.597 88.419 31.821 87.203 31.821ZM107.867 31.917C105.371 31.917 103.419 31.405 102.011 30.381C100.603 29.357 99.8563 27.917 99.771 26.061H104.315C104.4 26.6157 104.731 27.117 105.307 27.565C105.904 27.9917 106.79 28.205 107.963 28.205C108.859 28.205 109.595 28.0557 110.171 27.757C110.768 27.437 111.067 26.989 111.067 26.413C111.067 25.901 110.843 25.4957 110.395 25.197C109.947 24.877 109.147 24.653 107.995 24.525L106.619 24.397C104.507 24.1837 102.918 23.597 101.851 22.637C100.806 21.677 100.283 20.4504 100.283 18.957C100.283 17.7197 100.592 16.685 101.211 15.853C101.83 15.021 102.683 14.3917 103.771 13.965C104.88 13.5384 106.139 13.325 107.547 13.325C109.808 13.325 111.632 13.8264 113.019 14.829C114.406 15.8104 115.131 17.2397 115.195 19.117H110.651C110.566 18.541 110.267 18.061 109.755 17.677C109.243 17.2717 108.486 17.069 107.483 17.069C106.694 17.069 106.064 17.2184 105.595 17.517C105.126 17.8157 104.891 18.221 104.891 18.733C104.891 19.2237 105.094 19.597 105.499 19.853C105.904 20.109 106.566 20.2904 107.483 20.397L108.859 20.525C111.014 20.7597 112.688 21.357 113.883 22.317C115.078 23.277 115.675 24.5677 115.675 26.189C115.675 27.3624 115.355 28.3864 114.715 29.261C114.075 30.1144 113.168 30.7757 111.995 31.245C110.822 31.693 109.446 31.917 107.867 31.917Z" fill="#5C5D71"/>
</svg>
