<svg width="105" height="107" viewBox="0 0 105 107" fill="none" xmlns="http://www.w3.org/2000/svg">
<rect width="105" height="107" rx="20" fill="url(#paint0_linear_2532_892)"/>
<path d="M89.7252 43.6078C89.7252 43.6058 89.7232 43.6058 89.7252 43.6078C87.3248 40.6571 84.9265 37.7064 82.5261 34.7556C81.5581 33.7429 79.9497 32.3072 77.6148 31.1663C75.6093 30.1882 73.7798 29.7753 72.4865 29.5882C72.5009 28.8826 72.5254 20.7909 65.6967 15.951C59.8317 11.7923 53.3856 13.2076 52.4075 13.4395C52.8433 15.711 53.8563 19.4142 56.4532 23.2719C59.625 27.9878 63.552 30.5501 65.6987 31.7418C63.64 30.6986 56.2915 27.2923 47.2813 29.5171C41.5125 30.9406 37.6592 34.0316 35.797 35.7622C36.6544 36.6977 41.7929 42.1254 49.52 41.863C52.43 41.7634 54.7813 40.8889 56.3713 40.0979C57.0466 39.7603 57.8283 39.6525 58.5609 39.8335C60.2164 40.2463 61.4791 41.5458 61.7164 43.0466C62.0602 45.2306 60.198 47.8601 57.5214 47.7218C57.4211 47.7157 57.3208 47.7015 57.2226 47.6771C47.578 45.3608 37.4362 46.8514 30.456 53.6884C22.1968 61.78 22.6102 72.3527 23.2118 76.6761C19.3851 75.1102 15.7527 76.2165 14.7623 76.55C14.66 77.5099 14.1852 82.7179 17.3796 86.3906C20.5801 90.0694 26.1279 90.6774 28.9867 89.2783C30.1879 90.6571 32.0194 92.1985 32.4573 92.1924C32.4573 92.1924 32.4573 92.1924 32.4594 92.1924C32.6701 92.2168 32.883 92.1924 33.0937 92.1904C41.7233 92.1701 50.3509 92.1497 58.9804 92.1314C61.2806 91.9464 62.9258 90.0612 62.8276 88.1354C62.7519 86.6895 61.739 85.2314 60.1817 84.7881C60.0793 84.7759 59.977 84.7637 59.8767 84.7515C57.3044 84.7983 54.7322 84.8471 52.1599 84.8939C53.7438 84.8146 55.6551 84.5583 57.7444 83.9279C59.6414 83.3544 61.213 82.6142 62.4347 81.9268C62.5984 83.2995 63.0568 85.626 64.5323 88.0927C65.7212 90.0816 66.9695 91.6474 68.1748 92.0745C69.1734 92.4283 72.3535 92.2189 72.3535 92.2189C74.3774 92.0094 75.9081 90.3032 75.8938 88.353C75.8794 86.3255 74.2014 84.6031 72.0957 84.5258C72.0527 84.5238 72.0241 84.481 72.0445 84.4444C72.6912 83.2345 73.3767 81.7194 73.9354 79.9197C74.4552 78.246 74.7416 76.7209 74.9033 75.4356C76.4811 74.3639 80.0479 71.6064 81.5499 66.8681C82.5117 63.836 82.3051 61.0154 82.1946 59.661C82.0308 57.6518 81.6052 55.9497 81.1673 54.636C81.1591 54.5954 81.1509 54.5567 81.1427 54.516C81.1079 54.1053 81.0383 52.4113 82.2355 51.2542C82.8821 50.6298 83.672 50.3817 83.8419 50.3309C84.4906 50.1377 84.9019 50.1987 85.2989 50.1743C87.3187 50.0421 88.7655 47.6425 88.9251 47.372C89.8746 45.7451 89.7825 44.161 89.7252 43.6078Z" fill="white"/>
<defs>
<linearGradient id="paint0_linear_2532_892" x1="52.5" y1="0" x2="52.5" y2="107" gradientUnits="userSpaceOnUse">
<stop stop-color="#90A2F3"/>
<stop offset="1" stop-color="#6074CC"/>
</linearGradient>
</defs>
</svg>
