<svg width="45" height="45" viewBox="0 0 45 45" fill="none" xmlns="http://www.w3.org/2000/svg">
<circle cx="22.5" cy="22.5" r="22.5" fill="#39CAF9"/>
<path fill-rule="evenodd" clip-rule="evenodd" d="M23.6345 3.01861C23.1251 3.05708 22.4703 3.18081 22.4703 3.23868C22.4703 3.86467 23.2108 5.86745 23.8327 6.92365C24.8426 8.63864 26.7993 10.5353 27.9711 10.9352C27.9971 10.9442 27.9752 11.0232 27.9316 11.0774C27.9283 11.0816 27.7891 11.0049 27.6224 10.907C27.1404 10.6243 26.3384 10.3206 25.5482 10.1214C22.3381 9.31241 18.9552 10.0285 16.3274 12.0733C16.037 12.2994 15.5781 12.6954 15.5644 12.7319C15.5526 12.7631 15.9787 13.2577 16.2084 13.4794C18.2722 15.4718 21.2583 15.9387 23.8202 14.6697C24.5205 14.3228 25.0706 14.3282 25.6092 14.6873C27.1893 15.7407 26.0404 18.3635 24.2506 17.789C16.1955 15.2034 8.40702 22.6051 10.3454 31.0039C10.4273 31.359 10.4281 31.3572 10.1782 31.3946C8.31188 31.674 7.38194 33.8549 8.45282 35.4408C9.35462 36.7763 11.2175 36.9389 12.3383 35.78C12.5061 35.6066 12.5885 35.567 12.6293 35.6405C12.7571 35.8709 13.7165 36.8188 13.9247 36.9204L14.061 36.9869L18.9265 36.9934L23.7921 37L24.1933 36.9123L24.5946 36.8246L24.7276 36.8775C25.7968 37.3026 26.9906 36.1851 26.7206 35.012C26.5013 34.0593 25.3793 33.4977 24.5691 33.935C24.5368 33.9525 24.5214 33.9477 24.5095 33.9161C24.4917 33.8687 24.4767 33.8691 23.3001 33.9464C22.458 34.0018 21.8015 33.9605 21.8015 33.852C21.8015 33.8081 21.8139 33.8055 21.944 33.8231C22.2218 33.8606 23.3526 33.8417 23.6593 33.7942C24.5572 33.6556 25.1652 33.4279 25.9789 32.9254C26.534 32.5827 26.5952 32.5584 26.6183 32.6723C26.6242 32.7022 26.6582 32.8736 26.6938 33.0535C26.9748 34.4743 27.7109 35.7916 28.7677 36.7644L29.0219 36.9984L29.8815 36.999C31.0435 36.9997 31.3723 36.9097 31.7955 36.475C32.7169 35.5284 32.1217 33.89 30.8192 33.7872C30.5684 33.7674 30.5663 33.76 30.7186 33.4492C31.2093 32.4482 31.5637 31.3179 31.7346 30.2097C31.7621 30.0318 31.7895 29.8632 31.7956 29.835C31.8018 29.8058 31.9034 29.715 32.0313 29.6242C34.0326 28.2044 35.1172 25.7458 34.8524 23.2295C34.8257 22.976 34.5397 21.3917 34.4541 21.0233C34.2085 19.9665 34.895 19.0275 35.9912 18.9209C37.0848 18.8144 38.1132 17.4519 37.9899 16.273L37.9733 16.1139L37.3245 15.275C36.9677 14.8136 36.3246 13.9814 35.8955 13.4256C35.4663 12.8698 35.0149 12.3078 34.8923 12.1768C33.9373 11.1556 32.5078 10.4222 31.0822 10.2222C30.8243 10.1859 30.831 10.1982 30.8247 9.7537C30.7691 5.8343 27.455 2.73003 23.6345 3.01861Z" fill="#FCFCFC"/>
</svg>
