<svg version="1.1" xmlns="http://www.w3.org/2000/svg" width="72" height="80"
	 viewBox="0 0 419.53 595.28" style="enable-background:new 0 0 419.53 595.28;">
<path d="M393.06,233.66C393.06,233.65,393.05,233.65,393.06,233.66c-11.73-14.51-23.45-29.02-35.18-43.53
	c-4.73-4.98-12.59-12.04-24-17.65c-9.8-4.81-18.74-6.84-25.06-7.76c0.07-3.47,0.19-43.26-33.18-67.06
	c-28.66-20.45-60.16-13.49-64.94-12.35c2.13,11.17,7.08,29.38,19.77,48.35c15.5,23.19,34.69,35.79,45.18,41.65
	c-10.06-5.13-45.97-21.88-90-10.94c-28.19,7-47.02,22.2-56.12,30.71c4.19,4.6,29.3,31.29,67.06,30c14.22-0.49,25.71-4.79,33.48-8.68
	c3.3-1.66,7.12-2.19,10.7-1.3c8.09,2.03,14.26,8.42,15.42,15.8c1.68,10.74-7.42,23.67-20.5,22.99c-0.49-0.03-0.98-0.1-1.46-0.22
	c-47.13-11.39-96.69-4.06-130.8,29.56c-40.36,39.79-38.34,91.78-35.4,113.04c-18.7-7.7-36.45-2.26-41.29-0.62
	c-0.5,4.72-2.82,30.33,12.79,48.39c15.64,18.09,42.75,21.08,56.72,14.2c5.87,6.78,14.82,14.36,16.96,14.33c0,0,0,0,0.01,0
	c1.03,0.12,2.07,0,3.1-0.01c42.17-0.1,84.33-0.2,126.5-0.29c11.24-0.91,19.28-10.18,18.8-19.65c-0.37-7.11-5.32-14.28-12.93-16.46
	c-0.5-0.06-1-0.12-1.49-0.18c-12.57,0.23-25.14,0.47-37.71,0.7c7.74-0.39,17.08-1.65,27.29-4.75c9.27-2.82,16.95-6.46,22.92-9.84
	c0.8,6.75,3.04,18.19,10.25,30.32c5.81,9.78,11.91,17.48,17.8,19.58c4.88,1.74,20.42,0.71,20.42,0.71
	c9.89-1.03,17.37-9.42,17.3-19.01c-0.07-9.97-8.27-18.44-18.56-18.82c-0.21-0.01-0.35-0.22-0.25-0.4c3.16-5.95,6.51-13.4,9.24-22.25
	c2.54-8.23,3.94-15.73,4.73-22.05c7.71-5.27,25.14-18.83,32.48-42.13c4.7-14.91,3.69-28.78,3.15-35.44
	c-0.8-9.88-2.88-18.25-5.02-24.71c-0.04-0.2-0.08-0.39-0.12-0.59c-0.17-2.02-0.51-10.35,5.34-16.04c3.16-3.07,7.02-4.29,7.85-4.54
	c3.17-0.95,5.18-0.65,7.12-0.77c9.87-0.65,16.94-12.45,17.72-13.78C393.79,244.17,393.34,236.38,393.06,233.66z" fill="white"/>
</svg>
