<svg id="svg" version="1.1" xmlns="http://www.w3.org/2000/svg" xmlns:xlink="http://www.w3.org/1999/xlink" width="400" height="422.88984263233186" viewBox="0, 0, 400,422.88984263233186"><g id="svgg"><path id="path0" d="M217.454 25.468 C 211.569 25.902,204.006 27.298,204.006 27.951 C 204.006 35.014,212.559 57.611,219.743 69.528 C 231.409 88.878,254.011 110.278,267.547 114.790 C 267.848 114.891,267.595 115.783,267.091 116.394 C 267.053 116.441,265.445 115.576,263.519 114.472 C 257.951 111.282,248.687 107.855,239.560 105.608 C 202.478 96.480,163.401 104.560,133.047 127.631 C 129.692 130.182,124.391 134.650,124.233 135.062 C 124.097 135.414,129.019 140.994,131.672 143.496 C 155.512 165.976,190.005 171.244,219.599 156.925 C 227.688 153.011,234.043 153.072,240.264 157.124 C 258.516 169.009,245.245 198.602,224.571 192.120 C 131.523 162.947,41.556 246.460,63.947 341.222 C 64.893 345.228,64.902 345.208,62.015 345.630 C 40.457 348.782,29.715 373.389,42.085 391.283 C 52.502 406.351,74.021 408.186,86.967 395.110 C 88.906 393.153,89.858 392.707,90.329 393.536 C 91.805 396.135,102.888 406.830,105.293 407.977 L 106.867 408.727 163.070 408.801 L 219.274 408.875 223.909 407.886 L 228.544 406.896 230.080 407.493 C 242.431 412.289,256.221 399.681,253.102 386.445 C 250.569 375.696,237.609 369.359,228.250 374.293 C 227.876 374.491,227.698 374.436,227.561 374.080 C 227.356 373.545,227.182 373.550,213.591 374.422 C 203.863 375.047,196.280 374.581,196.280 373.357 C 196.280 372.861,196.423 372.832,197.926 373.030 C 201.135 373.454,214.197 373.240,217.740 372.705 C 228.112 371.141,235.135 368.572,244.535 362.902 C 250.947 359.035,251.654 358.761,251.920 360.046 C 251.989 360.383,252.382 362.318,252.793 364.347 C 256.038 380.378,264.542 395.241,276.749 406.217 L 279.685 408.857 289.615 408.864 C 303.038 408.872,306.835 407.856,311.724 402.951 C 322.367 392.271,315.492 373.785,300.447 372.625 C 297.550 372.402,297.525 372.319,299.285 368.812 C 304.953 357.518,309.047 344.765,311.021 332.261 C 311.338 330.254,311.655 328.352,311.725 328.033 C 311.797 327.704,312.971 326.679,314.448 325.655 C 337.565 309.636,350.094 281.895,347.035 253.505 C 346.727 250.644,343.423 232.769,342.434 228.612 C 339.598 216.688,347.528 206.094,360.190 204.891 C 372.822 203.690,384.702 188.317,383.278 175.015 L 383.086 173.220 375.591 163.755 C 371.470 158.549,364.041 149.159,359.084 142.888 C 354.127 136.618,348.913 130.277,347.496 128.798 C 336.465 117.276,319.952 109.002,303.485 106.745 C 300.506 106.336,300.583 106.474,300.510 101.459 C 299.868 57.237,261.586 22.212,217.454 25.468 " stroke="none" fill="#fcfcfc" fill-rule="evenodd"></path><path id="path1" d="M216.667 25.384 C 217.099 25.449,217.808 25.449,218.240 25.384 C 218.673 25.318,218.319 25.265,217.454 25.265 C 216.588 25.265,216.234 25.318,216.667 25.384 M227.829 25.384 C 228.264 25.450,228.908 25.448,229.260 25.380 C 229.612 25.312,229.256 25.259,228.469 25.261 C 227.682 25.263,227.394 25.318,227.829 25.384 M213.519 25.662 C 213.795 25.734,214.245 25.734,214.521 25.662 C 214.796 25.590,214.571 25.531,214.020 25.531 C 213.469 25.531,213.244 25.590,213.519 25.662 M231.259 25.662 C 231.534 25.734,231.985 25.734,232.260 25.662 C 232.536 25.590,232.310 25.531,231.760 25.531 C 231.209 25.531,230.984 25.590,231.259 25.662 M241.631 27.487 C 242.732 27.783,243.759 27.988,243.911 27.941 C 244.233 27.841,240.552 26.883,239.998 26.921 C 239.795 26.936,240.529 27.190,241.631 27.487 M203.829 27.594 C 203.742 27.821,203.732 28.239,203.805 28.524 C 203.895 28.872,203.950 28.790,203.973 28.276 C 203.993 27.806,204.199 27.459,204.506 27.379 C 204.976 27.256,204.975 27.246,204.497 27.215 C 204.217 27.197,203.917 27.367,203.829 27.594 M244.778 28.326 C 245.093 28.461,245.544 28.572,245.780 28.572 C 246.050 28.572,245.997 28.481,245.637 28.326 C 245.322 28.191,244.871 28.080,244.635 28.080 C 244.365 28.080,244.418 28.171,244.778 28.326 M248.927 29.542 C 249.006 29.621,250.293 30.165,251.788 30.752 C 271.093 38.333,288.090 55.412,295.289 74.462 C 295.809 75.839,296.288 76.912,296.353 76.847 C 296.574 76.626,294.357 71.402,292.398 67.525 C 285.087 53.064,273.004 40.927,258.655 33.632 C 254.454 31.497,248.286 28.903,248.927 29.542 M205.901 37.768 C 206.001 38.319,206.196 39.027,206.333 39.342 C 206.505 39.735,206.527 39.600,206.402 38.913 C 206.302 38.362,206.108 37.654,205.970 37.339 C 205.798 36.946,205.777 37.081,205.901 37.768 M206.910 41.202 C 206.910 41.438,207.084 42.082,207.296 42.632 C 207.508 43.183,207.682 43.441,207.682 43.205 C 207.682 42.969,207.508 42.325,207.296 41.774 C 207.084 41.223,206.910 40.966,206.910 41.202 M208.765 46.924 C 208.862 47.318,209.116 48.026,209.331 48.498 C 209.645 49.187,209.688 49.215,209.547 48.641 C 209.450 48.247,209.195 47.539,208.980 47.067 C 208.667 46.378,208.624 46.350,208.765 46.924 M209.728 49.625 C 209.728 50.743,215.326 62.578,218.330 67.811 C 229.122 86.612,247.965 105.470,263.794 113.310 C 265.919 114.363,267.239 115.182,267.239 115.448 C 267.239 116.140,266.791 115.979,263.685 114.163 C 260.923 112.549,255.301 109.983,255.058 110.225 C 254.998 110.286,256.007 110.760,257.302 111.278 C 258.597 111.796,261.248 113.116,263.193 114.211 C 266.668 116.169,267.526 116.402,267.524 115.388 C 267.523 115.020,266.386 114.301,263.447 112.806 C 243.145 102.485,221.758 77.984,211.434 53.219 C 209.959 49.681,209.728 49.195,209.728 49.625 M297.322 80.114 C 297.322 80.351,297.433 80.801,297.568 81.116 C 297.723 81.477,297.814 81.529,297.814 81.259 C 297.814 81.023,297.703 80.572,297.568 80.258 C 297.413 79.897,297.322 79.844,297.322 80.114 M297.894 82.117 C 297.894 82.353,298.005 82.804,298.140 83.119 C 298.295 83.479,298.386 83.532,298.386 83.262 C 298.386 83.026,298.275 82.575,298.140 82.260 C 297.985 81.900,297.894 81.847,297.894 82.117 M298.483 84.263 C 298.483 84.578,298.586 85.157,298.712 85.551 C 298.894 86.117,298.942 86.147,298.942 85.694 C 298.942 85.379,298.838 84.800,298.712 84.406 C 298.531 83.840,298.483 83.810,298.483 84.263 M299.923 91.845 C 299.923 92.396,299.982 92.622,300.054 92.346 C 300.126 92.071,300.126 91.620,300.054 91.345 C 299.982 91.069,299.923 91.295,299.923 91.845 M300.209 94.134 C 300.209 94.685,300.268 94.911,300.340 94.635 C 300.412 94.360,300.412 93.909,300.340 93.634 C 300.268 93.358,300.209 93.584,300.209 94.134 M300.515 97.568 C 300.515 98.433,300.569 98.788,300.634 98.355 C 300.700 97.922,300.700 97.214,300.634 96.781 C 300.569 96.348,300.515 96.702,300.515 97.568 M207.212 101.786 C 208.267 101.840,210.070 101.841,211.218 101.786 C 212.366 101.732,211.502 101.687,209.299 101.687 C 207.096 101.686,206.157 101.731,207.212 101.786 M200.506 102.067 C 201.020 102.131,201.793 102.130,202.223 102.064 C 202.653 101.999,202.232 101.947,201.288 101.948 C 200.343 101.950,199.992 102.003,200.506 102.067 M216.529 102.067 C 217.043 102.131,217.816 102.130,218.245 102.064 C 218.675 101.999,218.255 101.947,217.310 101.948 C 216.366 101.950,216.014 102.003,216.529 102.067 M196.781 102.348 C 197.135 102.416,197.715 102.416,198.069 102.348 C 198.423 102.280,198.133 102.224,197.425 102.224 C 196.717 102.224,196.427 102.280,196.781 102.348 M220.529 102.348 C 220.883 102.416,221.463 102.416,221.817 102.348 C 222.171 102.280,221.881 102.224,221.173 102.224 C 220.465 102.224,220.175 102.280,220.529 102.348 M194.063 102.629 C 194.338 102.701,194.789 102.701,195.064 102.629 C 195.340 102.557,195.114 102.498,194.564 102.498 C 194.013 102.498,193.788 102.557,194.063 102.629 M223.534 102.629 C 223.809 102.701,224.260 102.701,224.535 102.629 C 224.810 102.557,224.585 102.498,224.034 102.498 C 223.484 102.498,223.258 102.557,223.534 102.629 M191.774 102.915 C 192.049 102.987,192.500 102.987,192.775 102.915 C 193.051 102.843,192.825 102.785,192.275 102.785 C 191.724 102.785,191.499 102.843,191.774 102.915 M178.827 105.293 C 178.260 105.475,178.231 105.522,178.684 105.522 C 178.999 105.522,179.578 105.419,179.971 105.293 C 180.538 105.112,180.568 105.064,180.114 105.064 C 179.800 105.064,179.220 105.167,178.827 105.293 M240.486 105.741 C 241.903 106.116,243.186 106.385,243.338 106.338 C 243.659 106.240,238.831 104.994,238.279 105.033 C 238.077 105.047,239.070 105.366,240.486 105.741 M176.109 106.019 C 174.980 106.410,174.978 106.413,175.966 106.246 C 177.133 106.049,178.326 105.614,177.682 105.620 C 177.446 105.622,176.738 105.802,176.109 106.019 M300.898 106.009 C 300.989 106.245,301.339 106.423,301.676 106.405 C 302.159 106.378,302.183 106.344,301.788 106.241 C 301.513 106.169,301.288 105.990,301.288 105.845 C 301.288 105.699,301.163 105.579,301.010 105.579 C 300.858 105.579,300.807 105.773,300.898 106.009 M173.534 106.724 C 173.173 106.879,173.120 106.970,173.391 106.970 C 173.627 106.970,174.077 106.859,174.392 106.724 C 174.753 106.569,174.806 106.478,174.535 106.478 C 174.299 106.478,173.848 106.589,173.534 106.724 M244.206 106.724 C 244.521 106.859,244.971 106.970,245.207 106.970 C 245.478 106.970,245.425 106.879,245.064 106.724 C 244.750 106.589,244.299 106.478,244.063 106.478 C 243.792 106.478,243.845 106.569,244.206 106.724 M168.723 108.207 C 167.336 108.683,166.251 109.122,166.312 109.183 C 166.372 109.243,167.700 108.853,169.262 108.316 C 170.825 107.779,171.910 107.340,171.674 107.340 C 171.438 107.341,170.110 107.731,168.723 108.207 M249.336 108.316 C 250.898 108.853,252.226 109.243,252.286 109.182 C 252.416 109.053,247.199 107.286,246.780 107.318 C 246.623 107.330,247.773 107.779,249.336 108.316 M313.448 108.727 C 313.763 108.862,314.213 108.973,314.449 108.973 C 314.720 108.973,314.667 108.882,314.306 108.727 C 313.991 108.592,313.541 108.481,313.305 108.481 C 313.034 108.481,313.087 108.572,313.448 108.727 M164.664 109.738 C 163.948 110.083,163.925 110.123,164.521 109.977 C 165.331 109.779,166.243 109.314,165.808 109.321 C 165.651 109.323,165.136 109.511,164.664 109.738 M252.933 109.537 C 253.169 109.683,253.684 109.888,254.077 109.993 C 254.574 110.126,254.662 110.104,254.363 109.920 C 254.127 109.774,253.612 109.568,253.219 109.463 C 252.722 109.330,252.634 109.353,252.933 109.537 M319.170 110.589 C 322.724 111.902,323.233 112.057,322.399 111.570 C 321.692 111.158,316.488 109.297,316.080 109.310 C 315.891 109.316,317.282 109.892,319.170 110.589 M156.132 113.291 C 144.481 118.720,124.498 132.252,123.953 135.082 C 123.755 136.114,131.262 143.978,136.255 147.966 C 141.479 152.139,153.674 159.372,155.482 159.370 C 155.654 159.370,153.734 158.352,151.216 157.108 C 141.438 152.276,132.461 145.327,126.017 137.601 C 123.741 134.872,123.676 135.279,126.824 132.563 C 136.764 123.985,144.991 118.830,159.943 111.809 C 160.494 111.550,160.815 111.333,160.658 111.327 C 160.501 111.321,158.464 112.205,156.132 113.291 M327.327 114.101 C 334.225 117.568,339.392 121.105,345.148 126.303 C 348.122 128.989,382.580 171.770,383.176 173.518 C 383.368 174.080,383.375 174.078,383.319 173.478 C 383.249 172.709,350.970 131.863,347.783 128.511 C 342.421 122.871,334.274 117.069,326.560 113.396 C 321.799 111.130,322.263 111.557,327.327 114.101 M226.967 154.418 C 227.242 154.490,227.693 154.490,227.969 154.418 C 228.244 154.346,228.019 154.287,227.468 154.287 C 226.917 154.287,226.692 154.346,226.967 154.418 M231.831 154.418 C 232.107 154.490,232.557 154.490,232.833 154.418 C 233.108 154.346,232.883 154.287,232.332 154.287 C 231.781 154.287,231.556 154.346,231.831 154.418 M224.464 154.837 C 223.194 155.260,216.870 158.310,216.998 158.438 C 217.058 158.498,218.312 157.939,219.784 157.196 C 221.256 156.452,223.362 155.549,224.464 155.188 C 225.565 154.827,226.209 154.536,225.894 154.542 C 225.579 154.547,224.936 154.680,224.464 154.837 M236.227 155.448 C 240.897 157.250,244.470 160.478,246.744 164.950 C 247.916 167.254,248.142 167.247,247.051 164.941 C 244.875 160.342,239.453 155.710,235.336 154.935 C 234.864 154.846,235.265 155.077,236.227 155.448 M215.165 159.010 C 214.614 159.258,212.618 160.013,210.730 160.688 C 208.841 161.363,207.445 161.922,207.626 161.930 C 208.096 161.952,213.416 160.076,215.220 159.252 C 216.055 158.871,216.609 158.559,216.452 158.559 C 216.295 158.559,215.715 158.762,215.165 159.010 M157.654 160.181 C 157.890 160.326,158.405 160.532,158.798 160.637 C 159.295 160.770,159.383 160.748,159.084 160.563 C 158.848 160.417,158.333 160.212,157.940 160.107 C 157.443 159.974,157.356 159.996,157.654 160.181 M162.232 161.803 C 162.783 162.015,163.426 162.188,163.662 162.188 C 163.898 162.188,163.641 162.015,163.090 161.803 C 162.539 161.590,161.896 161.417,161.660 161.417 C 161.423 161.417,161.681 161.590,162.232 161.803 M205.866 162.232 C 205.505 162.387,205.452 162.478,205.722 162.478 C 205.959 162.478,206.409 162.367,206.724 162.232 C 207.085 162.077,207.137 161.986,206.867 161.986 C 206.631 161.986,206.180 162.097,205.866 162.232 M201.144 163.376 C 200.578 163.558,200.548 163.605,201.001 163.605 C 201.316 163.605,201.896 163.502,202.289 163.376 C 202.855 163.195,202.885 163.147,202.432 163.147 C 202.117 163.147,201.538 163.250,201.144 163.376 M176.470 164.723 C 176.826 164.792,177.341 164.789,177.614 164.717 C 177.888 164.646,177.597 164.590,176.967 164.593 C 176.338 164.596,176.114 164.655,176.470 164.723 M193.065 164.723 C 193.421 164.792,193.936 164.789,194.209 164.717 C 194.483 164.646,194.192 164.590,193.562 164.593 C 192.933 164.596,192.709 164.655,193.065 164.723 M179.905 165.014 C 180.419 165.078,181.192 165.077,181.622 165.011 C 182.052 164.946,181.631 164.894,180.687 164.896 C 179.742 164.897,179.391 164.951,179.905 165.014 M189.061 165.014 C 189.575 165.078,190.348 165.077,190.778 165.011 C 191.208 164.946,190.787 164.894,189.843 164.896 C 188.898 164.897,188.547 164.951,189.061 165.014 M247.823 167.382 C 247.823 167.618,247.933 168.069,248.069 168.383 C 248.224 168.744,248.315 168.797,248.315 168.526 C 248.315 168.290,248.204 167.840,248.069 167.525 C 247.914 167.164,247.823 167.111,247.823 167.382 M248.741 173.104 C 248.741 174.442,248.790 174.989,248.850 174.320 C 248.911 173.652,248.911 172.557,248.850 171.888 C 248.790 171.220,248.741 171.767,248.741 173.104 M383.487 176.681 C 383.489 177.468,383.544 177.756,383.610 177.321 C 383.676 176.886,383.674 176.242,383.606 175.890 C 383.538 175.538,383.485 175.894,383.487 176.681 M248.113 177.440 C 247.926 178.250,247.825 178.965,247.889 179.028 C 247.952 179.092,248.162 178.486,248.355 177.682 C 248.548 176.879,248.649 176.164,248.579 176.094 C 248.509 176.025,248.300 176.631,248.113 177.440 M246.982 181.088 C 245.233 185.598,241.215 189.530,236.338 191.505 C 235.315 191.920,234.634 192.262,234.825 192.267 C 236.535 192.306,241.218 189.384,243.645 186.763 C 245.439 184.824,247.981 180.425,247.734 179.684 C 247.681 179.525,247.343 180.157,246.982 181.088 M383.185 180.258 C 383.185 180.808,383.244 181.034,383.316 180.758 C 383.388 180.483,383.388 180.032,383.316 179.757 C 383.244 179.481,383.185 179.707,383.185 180.258 M381.847 185.912 C 379.308 194.002,372.780 200.728,364.100 204.197 C 363.151 204.576,362.761 204.808,363.233 204.712 C 367.474 203.854,374.434 198.871,377.809 194.278 C 379.844 191.509,382.976 184.884,382.484 184.391 C 382.417 184.325,382.131 185.009,381.847 185.912 M184.491 186.193 C 185.797 186.246,187.857 186.246,189.069 186.192 C 190.282 186.139,189.213 186.095,186.695 186.096 C 184.177 186.096,183.186 186.140,184.491 186.193 M177.468 186.471 C 177.901 186.537,178.609 186.537,179.041 186.471 C 179.474 186.405,179.120 186.352,178.255 186.352 C 177.389 186.352,177.035 186.405,177.468 186.471 M194.211 186.473 C 194.725 186.537,195.498 186.536,195.928 186.471 C 196.358 186.405,195.937 186.353,194.993 186.355 C 194.049 186.356,193.697 186.410,194.211 186.473 M174.034 186.749 C 174.310 186.821,174.760 186.821,175.036 186.749 C 175.311 186.677,175.086 186.619,174.535 186.619 C 173.984 186.619,173.759 186.677,174.034 186.749 M198.215 186.755 C 198.571 186.823,199.086 186.820,199.360 186.749 C 199.633 186.677,199.342 186.621,198.712 186.624 C 198.083 186.628,197.859 186.686,198.215 186.755 M171.320 187.041 C 171.675 187.109,172.190 187.107,172.464 187.035 C 172.738 186.963,172.446 186.907,171.817 186.910 C 171.187 186.914,170.964 186.972,171.320 187.041 M200.930 187.036 C 201.205 187.108,201.656 187.108,201.931 187.036 C 202.207 186.964,201.981 186.905,201.431 186.905 C 200.880 186.905,200.655 186.964,200.930 187.036 M203.219 187.322 C 203.494 187.394,203.945 187.394,204.220 187.322 C 204.496 187.250,204.270 187.191,203.720 187.191 C 203.169 187.191,202.943 187.250,203.219 187.322 M161.230 188.555 C 160.459 188.751,160.445 188.774,161.087 188.779 C 161.481 188.782,162.124 188.681,162.518 188.555 C 163.480 188.247,162.441 188.247,161.230 188.555 M158.512 189.127 C 157.946 189.309,157.916 189.356,158.369 189.356 C 158.684 189.356,159.263 189.253,159.657 189.127 C 160.223 188.946,160.253 188.898,159.800 188.898 C 159.485 188.898,158.906 189.001,158.512 189.127 M218.455 190.272 C 218.770 190.407,219.220 190.518,219.456 190.518 C 219.727 190.518,219.674 190.427,219.313 190.272 C 218.999 190.137,218.548 190.026,218.312 190.026 C 218.041 190.026,218.094 190.117,218.455 190.272 M151.788 190.844 C 151.428 190.999,151.375 191.090,151.645 191.090 C 151.881 191.090,152.332 190.979,152.647 190.844 C 153.007 190.689,153.060 190.598,152.790 190.598 C 152.554 190.598,152.103 190.709,151.788 190.844 M221.602 191.130 C 221.917 191.265,222.368 191.376,222.604 191.376 C 222.874 191.376,222.821 191.285,222.461 191.130 C 222.146 190.995,221.695 190.884,221.459 190.884 C 221.189 190.884,221.242 190.975,221.602 191.130 M149.356 191.559 C 148.805 191.771,148.548 191.945,148.784 191.945 C 149.020 191.945,149.664 191.771,150.215 191.559 C 150.765 191.347,151.023 191.174,150.787 191.174 C 150.551 191.174,149.907 191.347,149.356 191.559 M225.322 192.275 C 226.109 192.565,226.946 192.803,227.182 192.803 C 227.418 192.803,226.967 192.565,226.180 192.275 C 225.393 191.984,224.557 191.747,224.320 191.747 C 224.084 191.747,224.535 191.984,225.322 192.275 M228.974 193.052 C 229.409 193.118,230.053 193.116,230.405 193.048 C 230.756 192.980,230.401 192.927,229.614 192.929 C 228.827 192.931,228.539 192.986,228.974 193.052 M142.407 193.901 C 141.338 194.306,140.514 194.686,140.574 194.747 C 140.683 194.856,144.523 193.482,144.754 193.252 C 145.017 192.990,144.254 193.201,142.407 193.901 M137.402 195.899 C 136.098 196.466,135.079 196.977,135.136 197.034 C 135.230 197.128,139.901 195.204,140.176 194.957 C 140.536 194.634,139.501 194.985,137.402 195.899 M128.898 199.946 C 105.741 211.838,87.071 230.305,74.751 253.505 C 72.872 257.045,69.422 264.653,69.610 264.842 C 69.674 264.905,70.088 264.086,70.532 263.022 C 81.708 236.216,102.657 213.802,129.471 199.958 C 132.461 198.414,134.778 197.152,134.621 197.153 C 134.464 197.154,131.888 198.411,128.898 199.946 M360.304 205.069 C 360.739 205.135,361.383 205.133,361.735 205.066 C 362.087 204.998,361.731 204.944,360.944 204.946 C 360.157 204.948,359.869 205.004,360.304 205.069 M353.766 206.378 C 349.285 208.323,343.303 214.290,343.353 216.766 C 343.356 216.908,343.741 216.330,344.209 215.481 C 346.618 211.111,350.392 207.851,355.004 206.158 C 355.596 205.941,355.887 205.759,355.651 205.754 C 355.415 205.749,354.566 206.030,353.766 206.378 M342.652 218.622 C 342.405 219.453,342.211 220.399,342.220 220.724 C 342.229 221.050,342.473 220.415,342.761 219.313 C 343.381 216.952,343.300 216.440,342.652 218.622 M342.020 224.034 C 342.020 225.529,342.068 226.141,342.127 225.393 C 342.186 224.646,342.186 223.423,342.127 222.675 C 342.068 221.928,342.020 222.539,342.020 224.034 M342.529 228.612 C 342.529 228.848,342.640 229.299,342.775 229.614 C 342.930 229.974,343.021 230.027,343.021 229.757 C 343.021 229.521,342.911 229.070,342.775 228.755 C 342.620 228.395,342.529 228.342,342.529 228.612 M346.847 250.930 C 346.847 251.481,346.906 251.706,346.978 251.431 C 347.050 251.155,347.050 250.705,346.978 250.429 C 346.906 250.154,346.847 250.379,346.847 250.930 M347.134 253.219 C 347.134 253.770,347.193 253.995,347.264 253.720 C 347.336 253.444,347.336 252.994,347.264 252.718 C 347.193 252.443,347.134 252.668,347.134 253.219 M347.439 256.366 C 347.439 257.232,347.493 257.586,347.558 257.153 C 347.624 256.720,347.624 256.012,347.558 255.579 C 347.493 255.147,347.439 255.501,347.439 256.366 M347.706 262.089 C 347.706 262.639,347.765 262.865,347.837 262.589 C 347.909 262.314,347.909 261.863,347.837 261.588 C 347.765 261.313,347.706 261.538,347.706 262.089 M68.705 266.845 C 68.364 267.737,68.133 268.515,68.192 268.574 C 68.251 268.633,68.579 267.952,68.920 267.060 C 69.261 266.169,69.492 265.391,69.433 265.332 C 69.374 265.273,69.046 265.954,68.705 266.845 M347.435 267.668 C 347.437 268.455,347.493 268.743,347.559 268.308 C 347.624 267.873,347.623 267.229,347.555 266.877 C 347.487 266.525,347.433 266.881,347.435 267.668 M66.839 272.014 C 66.272 273.716,65.818 275.237,65.830 275.394 C 65.842 275.551,66.356 274.208,66.971 272.409 C 67.587 270.611,68.041 269.090,67.980 269.029 C 67.920 268.969,67.406 270.312,66.839 272.014 M347.134 270.959 C 347.134 271.509,347.193 271.735,347.264 271.459 C 347.336 271.184,347.336 270.733,347.264 270.458 C 347.193 270.182,347.134 270.408,347.134 270.959 M346.847 273.247 C 346.847 273.798,346.906 274.024,346.978 273.748 C 347.050 273.473,347.050 273.022,346.978 272.747 C 346.906 272.471,346.847 272.697,346.847 273.247 M65.400 276.558 C 65.294 276.978,65.263 277.376,65.331 277.443 C 65.398 277.511,65.540 277.223,65.645 276.804 C 65.750 276.384,65.781 275.986,65.714 275.919 C 65.646 275.851,65.505 276.139,65.400 276.558 M64.827 278.561 C 64.722 278.981,64.691 279.379,64.759 279.446 C 64.826 279.514,64.967 279.226,65.073 278.806 C 65.178 278.387,65.209 277.989,65.141 277.921 C 65.074 277.854,64.933 278.142,64.827 278.561 M345.255 281.021 C 344.986 282.142,344.818 283.111,344.881 283.174 C 344.944 283.237,345.220 282.375,345.494 281.259 C 345.767 280.142,345.936 279.173,345.868 279.106 C 345.800 279.038,345.524 279.899,345.255 281.021 M344.232 284.718 C 344.039 285.364,343.933 285.945,343.997 286.010 C 344.062 286.074,344.273 285.598,344.466 284.953 C 344.660 284.307,344.765 283.726,344.701 283.661 C 344.636 283.597,344.426 284.073,344.232 284.718 M342.951 288.588 C 342.698 289.331,342.540 289.989,342.601 290.050 C 342.662 290.110,342.918 289.552,343.172 288.808 C 343.425 288.065,343.583 287.407,343.522 287.347 C 343.462 287.286,343.205 287.845,342.951 288.588 M341.669 291.884 C 341.330 292.699,341.100 293.413,341.158 293.471 C 341.216 293.528,341.540 292.909,341.879 292.093 C 342.218 291.278,342.448 290.564,342.390 290.506 C 342.332 290.449,342.008 291.068,341.669 291.884 M339.080 297.467 C 333.261 308.812,324.415 318.893,313.948 326.109 C 312.750 326.935,311.895 327.611,312.049 327.611 C 312.475 327.611,317.732 323.786,320.327 321.588 C 325.877 316.886,332.197 309.593,336.029 303.465 C 337.667 300.848,341.181 294.161,341.009 293.990 C 340.956 293.937,340.088 295.502,339.080 297.467 M61.016 299.428 C 61.020 300.057,61.078 300.281,61.147 299.925 C 61.215 299.569,61.212 299.054,61.141 298.781 C 61.069 298.507,61.013 298.798,61.016 299.428 M60.744 302.718 C 60.744 303.584,60.797 303.938,60.863 303.505 C 60.929 303.072,60.929 302.364,60.863 301.931 C 60.797 301.499,60.744 301.853,60.744 302.718 M60.495 312.303 C 60.495 315.923,60.536 317.364,60.586 315.506 C 60.636 313.648,60.636 310.687,60.585 308.925 C 60.535 307.164,60.494 308.684,60.495 312.303 M60.740 321.745 C 60.742 322.532,60.798 322.820,60.863 322.385 C 60.929 321.950,60.927 321.306,60.859 320.955 C 60.792 320.603,60.738 320.959,60.740 321.745 M61.016 325.179 C 61.020 325.808,61.078 326.032,61.147 325.676 C 61.215 325.320,61.212 324.805,61.141 324.532 C 61.069 324.258,61.013 324.549,61.016 325.179 M311.588 328.755 C 311.588 329.227,311.638 329.614,311.699 329.614 C 311.759 329.614,311.866 329.227,311.935 328.755 C 312.004 328.283,311.955 327.897,311.825 327.897 C 311.694 327.897,311.588 328.283,311.588 328.755 M63.290 339.485 C 63.290 339.800,63.393 340.379,63.519 340.773 C 63.701 341.339,63.748 341.369,63.748 340.916 C 63.748 340.601,63.645 340.021,63.519 339.628 C 63.338 339.062,63.290 339.032,63.290 339.485 M64.247 344.452 C 64.147 344.769,63.845 345.085,63.577 345.156 C 63.216 345.251,63.252 345.293,63.715 345.317 C 64.298 345.348,64.936 344.383,64.573 344.020 C 64.494 343.941,64.348 344.136,64.247 344.452 M308.178 345.804 C 307.994 346.537,307.896 347.190,307.962 347.256 C 308.027 347.322,308.232 346.775,308.417 346.042 C 308.601 345.309,308.699 344.655,308.633 344.589 C 308.568 344.524,308.363 345.070,308.178 345.804 M55.042 347.162 C 47.561 350.196,40.164 357.704,38.503 363.948 C 38.399 364.342,38.826 363.602,39.453 362.305 C 42.841 355.296,48.693 349.855,55.723 347.180 C 57.100 346.656,58.033 346.226,57.797 346.223 C 57.561 346.221,56.321 346.643,55.042 347.162 M307.036 349.668 C 306.843 350.314,306.737 350.895,306.801 350.960 C 306.866 351.024,307.077 350.548,307.270 349.902 C 307.464 349.257,307.569 348.676,307.505 348.611 C 307.440 348.547,307.230 349.023,307.036 349.668 M305.351 354.712 C 304.099 358.295,304.052 358.451,304.383 357.940 C 304.774 357.336,306.474 352.445,306.340 352.311 C 306.279 352.250,305.834 353.330,305.351 354.712 M302.873 361.168 C 302.267 362.618,300.895 365.578,299.823 367.744 C 297.593 372.256,297.583 372.553,299.673 372.482 L 301.144 372.432 299.862 372.319 C 298.032 372.159,298.036 372.029,300.012 368.008 C 302.002 363.956,304.242 358.796,304.081 358.635 C 304.023 358.577,303.480 359.717,302.873 361.168 M245.494 362.404 C 239.206 366.294,236.707 367.559,231.996 369.241 C 230.056 369.934,228.624 370.507,228.814 370.515 C 229.323 370.536,235.034 368.456,237.305 367.422 C 238.387 366.929,241.863 364.950,245.029 363.024 C 248.360 360.999,251.027 359.556,251.359 359.603 C 251.831 359.668,251.856 359.631,251.502 359.388 C 250.922 358.990,251.403 358.749,245.494 362.404 M252.980 366.667 C 252.977 367.276,253.714 369.726,253.756 369.242 C 253.769 369.084,253.601 368.312,253.382 367.525 C 253.163 366.738,252.982 366.352,252.980 366.667 M253.831 369.957 C 253.831 370.193,253.942 370.644,254.077 370.959 C 254.232 371.319,254.323 371.372,254.323 371.102 C 254.323 370.866,254.212 370.415,254.077 370.100 C 253.922 369.739,253.831 369.687,253.831 369.957 M227.039 370.815 C 226.678 370.970,226.625 371.061,226.896 371.061 C 227.132 371.061,227.582 370.951,227.897 370.815 C 228.258 370.660,228.311 370.570,228.040 370.570 C 227.804 370.570,227.353 370.680,227.039 370.815 M36.706 372.389 C 36.708 373.176,36.763 373.464,36.829 373.029 C 36.895 372.594,36.893 371.950,36.825 371.598 C 36.757 371.246,36.703 371.602,36.706 372.389 M254.384 371.837 C 254.355 372.270,255.263 374.876,255.396 374.742 C 255.457 374.682,255.258 373.934,254.956 373.081 C 254.653 372.229,254.396 371.669,254.384 371.837 M232.690 372.729 C 232.965 372.801,233.416 372.801,233.691 372.729 C 233.966 372.657,233.741 372.599,233.190 372.599 C 232.639 372.599,232.414 372.657,232.690 372.729 M196.280 373.391 C 196.280 373.705,196.382 373.963,196.505 373.963 C 196.629 373.963,196.730 373.705,196.730 373.391 C 196.730 373.076,196.629 372.818,196.505 372.818 C 196.382 372.818,196.280 373.076,196.280 373.391 M216.667 373.016 C 216.942 373.088,217.393 373.088,217.668 373.016 C 217.943 372.944,217.718 372.885,217.167 372.885 C 216.617 372.885,216.391 372.944,216.667 373.016 M229.497 373.409 C 228.399 373.799,227.846 373.872,227.590 373.660 C 227.392 373.495,226.479 373.407,225.561 373.465 L 223.891 373.568 225.622 373.623 C 226.574 373.652,227.488 373.811,227.653 373.976 C 227.862 374.185,228.595 374.057,230.071 373.554 C 231.236 373.158,231.931 372.839,231.617 372.847 C 231.302 372.854,230.348 373.107,229.497 373.409 M197.929 373.307 C 198.285 373.375,198.800 373.373,199.073 373.301 C 199.347 373.229,199.056 373.173,198.426 373.177 C 197.797 373.180,197.573 373.238,197.929 373.307 M213.381 373.312 C 213.896 373.375,214.668 373.374,215.098 373.309 C 215.528 373.244,215.107 373.191,214.163 373.193 C 213.219 373.195,212.867 373.248,213.381 373.312 M242.105 373.784 C 247.112 375.843,250.820 379.644,252.662 384.605 C 252.972 385.440,253.156 385.737,253.070 385.265 C 252.249 380.728,244.603 373.058,240.954 373.111 C 240.697 373.115,241.215 373.418,242.105 373.784 M306.974 374.397 C 311.117 376.458,313.971 379.551,315.773 383.932 C 316.139 384.822,316.442 385.340,316.445 385.083 C 316.495 381.648,309.610 374.531,305.007 373.260 C 304.614 373.151,305.499 373.663,306.974 374.397 M201.078 373.598 C 201.592 373.662,202.365 373.660,202.795 373.595 C 203.225 373.530,202.804 373.478,201.860 373.479 C 200.916 373.481,200.564 373.534,201.078 373.598 M207.805 373.601 C 208.558 373.660,209.717 373.660,210.381 373.600 C 211.045 373.540,210.429 373.491,209.013 373.492 C 207.597 373.493,207.053 373.542,207.805 373.601 M219.385 373.884 C 219.896 373.947,220.733 373.947,221.245 373.884 C 221.756 373.820,221.338 373.768,220.315 373.768 C 219.292 373.768,218.873 373.820,219.385 373.884 M197.929 374.165 C 198.285 374.234,198.800 374.231,199.073 374.159 C 199.347 374.088,199.056 374.032,198.426 374.035 C 197.797 374.038,197.573 374.097,197.929 374.165 M214.664 374.168 C 215.097 374.233,215.805 374.233,216.237 374.168 C 216.670 374.102,216.316 374.049,215.451 374.049 C 214.585 374.049,214.231 374.102,214.664 374.168 M200.930 374.454 C 201.363 374.519,202.071 374.519,202.504 374.454 C 202.936 374.388,202.582 374.335,201.717 374.335 C 200.851 374.335,200.497 374.388,200.930 374.454 M210.801 374.456 C 211.313 374.519,212.149 374.519,212.661 374.456 C 213.172 374.392,212.754 374.341,211.731 374.341 C 210.708 374.341,210.290 374.392,210.801 374.456 M255.508 375.220 C 255.508 376.413,259.547 384.856,262.218 389.247 C 266.569 396.400,277.885 409.156,279.879 409.156 C 280.056 409.156,279.634 408.747,278.941 408.246 C 271.509 402.875,261.504 389.349,257.209 378.864 C 255.767 375.346,255.508 374.790,255.508 375.220 M36.706 376.967 C 36.708 377.754,36.763 378.042,36.829 377.607 C 36.895 377.172,36.893 376.528,36.825 376.176 C 36.757 375.824,36.703 376.180,36.706 376.967 M37.245 380.973 C 37.240 381.288,37.347 381.803,37.482 382.117 C 37.795 382.846,37.795 382.094,37.482 381.116 C 37.298 380.541,37.251 380.513,37.245 380.973 M37.783 383.119 C 37.773 383.963,39.682 388.222,41.066 390.443 C 44.418 395.825,51.893 401.658,56.795 402.717 C 57.268 402.819,56.607 402.467,55.328 401.934 C 47.503 398.674,41.600 392.708,38.725 385.154 C 38.209 383.798,37.785 382.883,37.783 383.119 M253.610 390.415 C 253.610 391.989,253.658 392.596,253.716 391.764 C 253.774 390.933,253.774 389.645,253.715 388.903 C 253.656 388.161,253.609 388.841,253.610 390.415 M87.459 394.718 C 84.865 397.635,80.683 400.426,76.254 402.196 C 75.308 402.574,74.921 402.804,75.393 402.707 C 78.343 402.104,83.291 399.080,86.724 395.783 C 89.703 392.923,89.275 392.927,91.703 395.736 C 97.674 402.643,105.430 409.331,106.815 408.767 C 107.044 408.673,107.029 408.622,106.765 408.606 C 106.012 408.562,103.562 407.163,102.363 406.092 C 99.414 403.459,95.843 399.882,92.923 396.638 C 89.319 392.633,89.315 392.632,87.459 394.718 M252.503 396.749 C 250.962 401.282,246.792 405.495,242.034 407.326 C 241.025 407.714,240.587 407.959,241.059 407.871 C 243.954 407.331,248.711 403.823,250.786 400.697 C 251.896 399.025,253.312 395.844,253.155 395.375 C 253.105 395.223,252.811 395.842,252.503 396.749 M316.189 395.747 C 316.055 398.511,311.311 404.213,307.529 406.155 C 304.823 407.545,304.786 407.829,307.481 406.527 C 311.243 404.709,317.110 397.535,316.365 395.664 C 316.254 395.386,316.205 395.409,316.189 395.747 M58.226 403.147 C 58.541 403.283,59.056 403.389,59.371 403.385 C 59.831 403.378,59.802 403.332,59.227 403.147 C 58.249 402.834,57.497 402.834,58.226 403.147 M62.021 403.922 C 62.376 403.990,62.891 403.988,63.165 403.916 C 63.439 403.845,63.147 403.789,62.518 403.792 C 61.888 403.795,61.665 403.854,62.021 403.922 M69.313 403.917 C 69.589 403.989,70.039 403.989,70.315 403.917 C 70.590 403.845,70.365 403.786,69.814 403.786 C 69.263 403.786,69.038 403.845,69.313 403.917 M65.594 404.203 C 65.869 404.275,66.320 404.275,66.595 404.203 C 66.871 404.131,66.645 404.072,66.094 404.072 C 65.544 404.072,65.318 404.131,65.594 404.203 M228.480 407.170 C 228.646 407.439,230.605 408.117,230.762 407.960 C 230.821 407.901,230.300 407.648,229.604 407.397 C 228.908 407.147,228.402 407.045,228.480 407.170 M232.976 408.495 C 233.251 408.567,233.702 408.567,233.977 408.495 C 234.253 408.423,234.027 408.364,233.476 408.364 C 232.926 408.364,232.700 408.423,232.976 408.495 M237.268 408.495 C 237.543 408.567,237.994 408.567,238.269 408.495 C 238.544 408.423,238.319 408.364,237.768 408.364 C 237.217 408.364,236.992 408.423,237.268 408.495 M300.286 408.735 C 299.657 408.942,299.399 409.116,299.714 409.121 C 300.029 409.126,300.672 408.953,301.144 408.737 C 302.226 408.242,301.785 408.241,300.286 408.735 M109.517 409.072 C 109.873 409.141,110.388 409.138,110.661 409.066 C 110.935 408.995,110.644 408.939,110.014 408.942 C 109.385 408.945,109.161 409.004,109.517 409.072 " stroke="none" fill="#ababab" fill-rule="evenodd"></path><path id="path2" d="M36.696 374.678 C 36.699 375.308,36.758 375.531,36.826 375.175 C 36.895 374.820,36.892 374.305,36.820 374.031 C 36.749 373.757,36.693 374.049,36.696 374.678 M137.840 409.084 C 152.672 409.125,176.942 409.125,191.774 409.084 C 206.606 409.043,194.471 409.010,164.807 409.010 C 135.143 409.010,123.008 409.043,137.840 409.084 M284.746 409.084 C 287.371 409.131,291.749 409.131,294.474 409.084 C 297.198 409.037,295.050 408.998,289.700 408.998 C 284.349 408.998,282.120 409.037,284.746 409.084 " stroke="none" fill="#cccccc" fill-rule="evenodd"></path><path id="path3" d="" stroke="none" fill="#d4d4d4" fill-rule="evenodd"></path><path id="path4" d="M347.353 128.612 C 347.887 129.163,348.388 129.614,348.467 129.614 C 348.546 129.614,348.173 129.163,347.639 128.612 C 347.106 128.062,346.604 127.611,346.526 127.611 C 346.447 127.611,346.820 128.062,347.353 128.612 M184.478 165.009 C 184.832 165.077,185.411 165.077,185.765 165.009 C 186.119 164.941,185.830 164.885,185.122 164.885 C 184.413 164.885,184.124 164.941,184.478 165.009 M205.222 373.588 C 205.497 373.660,205.948 373.660,206.223 373.588 C 206.499 373.516,206.273 373.457,205.722 373.457 C 205.172 373.457,204.946 373.516,205.222 373.588 " stroke="none" fill="#dcdcdc" fill-rule="evenodd"></path></g></svg>