<svg width="303" height="125" viewBox="0 0 303 125" fill="none" xmlns="http://www.w3.org/2000/svg">
<path d="M80.7515 33.9598C80.7515 33.9575 80.7493 33.9575 80.7515 33.9598C78.1687 30.6836 75.5881 27.4075 73.0052 24.1313C71.9637 23.0069 70.233 21.4128 67.7207 20.1462C65.5628 19.0602 63.5943 18.6018 62.2027 18.3941C62.2181 17.6106 62.2445 8.62659 54.8968 3.25289C48.5861 -1.36444 41.6501 0.207031 40.5976 0.464427C41.0666 2.98646 42.1565 7.09802 44.9507 11.3812C48.3637 16.6172 52.5892 19.4621 54.899 20.7852C52.6838 19.6269 44.7768 15.845 35.0818 18.3151C28.8746 19.8956 24.7284 23.3275 22.7247 25.249C23.6473 26.2876 29.1763 32.3138 37.4907 32.0225C40.6218 31.9119 43.1518 30.941 44.8627 30.0627C45.5893 29.6879 46.4304 29.5682 47.2187 29.7692C49.0001 30.2275 50.3586 31.6703 50.614 33.3366C50.984 35.7615 48.9802 38.681 46.1001 38.5274C45.9922 38.5207 45.8844 38.5048 45.7787 38.4778C35.4011 35.9061 24.4884 37.5611 16.9777 45.152C8.09083 54.136 8.53562 65.8746 9.18298 70.6748C5.06542 68.9363 1.15703 70.1646 0.0913099 70.5348C-0.0187854 71.6006 -0.529628 77.3829 2.90755 81.4606C6.35133 85.5451 12.3207 86.2202 15.3968 84.6668C16.6893 86.1976 18.66 87.9091 19.1312 87.9023C19.1312 87.9023 19.1312 87.9023 19.1334 87.9023C19.3602 87.9294 19.5892 87.9023 19.816 87.9C29.1014 87.8775 38.3847 87.8549 47.6701 87.8346C50.145 87.6291 51.9154 85.5361 51.8097 83.3979C51.7282 81.7925 50.6383 80.1737 48.9626 79.6814C48.8525 79.6679 48.7424 79.6543 48.6345 79.6408C45.8667 79.6927 43.0989 79.7469 40.3311 79.7988C42.0354 79.7108 44.092 79.4263 46.3401 78.7264C48.3813 78.0896 50.0724 77.2678 51.3869 76.5046C51.5631 78.0287 52.0563 80.6117 53.6439 83.3505C54.9232 85.5586 56.2663 87.2972 57.5633 87.7713C58.6378 88.1642 62.0596 87.9317 62.0596 87.9317C64.2372 87.6991 65.8843 85.8048 65.8689 83.6395C65.8534 81.3884 64.0479 79.476 61.7821 79.3902C61.7359 79.3879 61.7051 79.3405 61.7271 79.2999C62.4229 77.9564 63.1605 76.2743 63.7616 74.2761C64.3209 72.4179 64.6292 70.7245 64.8031 69.2975C66.5008 68.1077 70.3387 65.046 71.9549 59.7852C72.9898 56.4187 72.7674 53.2871 72.6485 51.7833C72.4724 49.5526 72.0144 47.6627 71.5432 46.2042C71.5344 46.159 71.5256 46.1161 71.5167 46.0709C71.4793 45.6148 71.4044 43.7341 72.6926 42.4493C73.3884 41.7562 74.2383 41.4807 74.4211 41.4243C75.1191 41.2098 75.5616 41.2775 75.9888 41.2504C78.1621 41.1036 79.7188 38.4394 79.8906 38.1391C80.9123 36.3328 80.8132 34.5739 80.7515 33.9598Z" fill="white"/>
<path d="M113.475 84V31.44H123.483V62.112H121.755C121.755 58.176 122.259 54.84 123.267 52.104C124.275 49.368 125.763 47.28 127.731 45.84C129.747 44.4 132.291 43.68 135.363 43.68H135.795C140.259 43.68 143.643 45.216 145.947 48.288C148.251 51.36 149.403 55.824 149.403 61.68V84H139.395V60.744C139.395 58.248 138.675 56.28 137.235 54.84C135.843 53.4 133.995 52.68 131.691 52.68C129.243 52.68 127.251 53.496 125.715 55.128C124.227 56.712 123.483 58.8 123.483 61.392V84H113.475ZM183.85 84V72.408H182.194V59.52C182.194 57.264 181.642 55.584 180.538 54.48C179.434 53.376 177.73 52.824 175.426 52.824C174.226 52.824 172.786 52.848 171.106 52.896C169.426 52.944 167.722 53.016 165.994 53.112C164.314 53.16 162.802 53.232 161.458 53.328V44.832C162.562 44.736 163.81 44.64 165.202 44.544C166.594 44.448 168.01 44.4 169.45 44.4C170.938 44.352 172.33 44.328 173.626 44.328C177.658 44.328 180.994 44.856 183.634 45.912C186.322 46.968 188.338 48.624 189.682 50.88C191.074 53.136 191.77 56.088 191.77 59.736V84H183.85ZM171.25 85.008C168.418 85.008 165.922 84.504 163.762 83.496C161.65 82.488 159.994 81.048 158.794 79.176C157.642 77.304 157.066 75.048 157.066 72.408C157.066 69.528 157.762 67.176 159.154 65.352C160.594 63.528 162.586 62.16 165.13 61.248C167.722 60.336 170.746 59.88 174.202 59.88H183.274V65.856H174.058C171.754 65.856 169.978 66.432 168.73 67.584C167.53 68.688 166.93 70.128 166.93 71.904C166.93 73.68 167.53 75.12 168.73 76.224C169.978 77.328 171.754 77.88 174.058 77.88C175.45 77.88 176.722 77.64 177.874 77.16C179.074 76.632 180.058 75.768 180.826 74.568C181.642 73.32 182.098 71.64 182.194 69.528L184.642 72.336C184.402 75.072 183.73 77.376 182.626 79.248C181.57 81.12 180.082 82.56 178.162 83.568C176.29 84.528 173.986 85.008 171.25 85.008ZM226.178 84V72.408H224.522V59.52C224.522 57.264 223.97 55.584 222.866 54.48C221.762 53.376 220.058 52.824 217.754 52.824C216.554 52.824 215.114 52.848 213.434 52.896C211.754 52.944 210.05 53.016 208.322 53.112C206.642 53.16 205.13 53.232 203.786 53.328V44.832C204.89 44.736 206.138 44.64 207.53 44.544C208.922 44.448 210.338 44.4 211.778 44.4C213.266 44.352 214.658 44.328 215.954 44.328C219.986 44.328 223.322 44.856 225.962 45.912C228.65 46.968 230.666 48.624 232.01 50.88C233.402 53.136 234.098 56.088 234.098 59.736V84H226.178ZM213.578 85.008C210.746 85.008 208.25 84.504 206.09 83.496C203.978 82.488 202.322 81.048 201.122 79.176C199.97 77.304 199.394 75.048 199.394 72.408C199.394 69.528 200.09 67.176 201.482 65.352C202.922 63.528 204.914 62.16 207.458 61.248C210.05 60.336 213.074 59.88 216.53 59.88H225.602V65.856H216.386C214.082 65.856 212.306 66.432 211.058 67.584C209.858 68.688 209.258 70.128 209.258 71.904C209.258 73.68 209.858 75.12 211.058 76.224C212.306 77.328 214.082 77.88 216.386 77.88C217.778 77.88 219.05 77.64 220.202 77.16C221.402 76.632 222.386 75.768 223.154 74.568C223.97 73.32 224.426 71.64 224.522 69.528L226.97 72.336C226.73 75.072 226.058 77.376 224.954 79.248C223.898 81.12 222.41 82.56 220.49 83.568C218.618 84.528 216.314 85.008 213.578 85.008ZM259.003 85.224C253.627 85.224 249.403 84.096 246.331 81.84C243.307 79.536 241.723 76.368 241.579 72.336H250.579C250.723 73.68 251.467 74.904 252.811 76.008C254.155 77.112 256.267 77.664 259.147 77.664C261.547 77.664 263.443 77.232 264.835 76.368C266.275 75.504 266.995 74.328 266.995 72.84C266.995 71.544 266.443 70.512 265.339 69.744C264.283 68.976 262.459 68.472 259.867 68.232L256.411 67.872C252.043 67.392 248.683 66.144 246.331 64.128C243.979 62.112 242.803 59.424 242.803 56.064C242.803 53.376 243.475 51.12 244.819 49.296C246.163 47.472 248.011 46.104 250.363 45.192C252.763 44.232 255.499 43.752 258.571 43.752C263.371 43.752 267.259 44.808 270.235 46.92C273.211 49.032 274.771 52.128 274.915 56.208H265.915C265.819 54.864 265.147 53.712 263.899 52.752C262.651 51.792 260.851 51.312 258.499 51.312C256.387 51.312 254.755 51.72 253.603 52.536C252.451 53.352 251.875 54.408 251.875 55.704C251.875 56.952 252.331 57.912 253.243 58.584C254.203 59.256 255.739 59.712 257.851 59.952L261.307 60.312C265.915 60.792 269.515 62.064 272.107 64.128C274.747 66.192 276.067 68.976 276.067 72.48C276.067 75.072 275.347 77.328 273.907 79.248C272.515 81.12 270.547 82.584 268.003 83.64C265.459 84.696 262.459 85.224 259.003 85.224Z" fill="white"/>
<path d="M2.78943 117V99.48H6.12543V109.704H5.54943C5.54943 108.392 5.71743 107.28 6.05343 106.368C6.38943 105.456 6.88543 104.76 7.54143 104.28C8.21343 103.8 9.06143 103.56 10.0854 103.56H10.2294C11.7174 103.56 12.8454 104.072 13.6134 105.096C14.3814 106.12 14.7654 107.608 14.7654 109.56V117H11.4294V109.248C11.4294 108.416 11.1894 107.76 10.7094 107.28C10.2454 106.8 9.62943 106.56 8.86143 106.56C8.04543 106.56 7.38143 106.832 6.86943 107.376C6.37343 107.904 6.12543 108.6 6.12543 109.464V117H2.78943ZM26.5359 117V113.136H25.9839V108.84C25.9839 108.088 25.7999 107.528 25.4319 107.16C25.0639 106.792 24.4959 106.608 23.7279 106.608C23.3279 106.608 22.8479 106.616 22.2879 106.632C21.7279 106.648 21.1599 106.672 20.5839 106.704C20.0239 106.72 19.5199 106.744 19.0719 106.776V103.944C19.4399 103.912 19.8559 103.88 20.3199 103.848C20.7839 103.816 21.2559 103.8 21.7359 103.8C22.2319 103.784 22.6959 103.776 23.1279 103.776C24.4719 103.776 25.5839 103.952 26.4639 104.304C27.3599 104.656 28.0319 105.208 28.4799 105.96C28.9439 106.712 29.1759 107.696 29.1759 108.912V117H26.5359ZM22.3359 117.336C21.3919 117.336 20.5599 117.168 19.8399 116.832C19.1359 116.496 18.5839 116.016 18.1839 115.392C17.7999 114.768 17.6079 114.016 17.6079 113.136C17.6079 112.176 17.8399 111.392 18.3039 110.784C18.7839 110.176 19.4479 109.72 20.2959 109.416C21.1599 109.112 22.1679 108.96 23.3199 108.96H26.3439V110.952H23.2719C22.5039 110.952 21.9119 111.144 21.4959 111.528C21.0959 111.896 20.8959 112.376 20.8959 112.968C20.8959 113.56 21.0959 114.04 21.4959 114.408C21.9119 114.776 22.5039 114.96 23.2719 114.96C23.7359 114.96 24.1599 114.88 24.5439 114.72C24.9439 114.544 25.2719 114.256 25.5279 113.856C25.7999 113.44 25.9519 112.88 25.9839 112.176L26.7999 113.112C26.7199 114.024 26.4959 114.792 26.1279 115.416C25.7759 116.04 25.2799 116.52 24.6399 116.856C24.0159 117.176 23.2479 117.336 22.3359 117.336ZM33.0373 121.8V103.968H35.6773V109.584L35.2693 109.56C35.3333 108.232 35.6053 107.12 36.0853 106.224C36.5813 105.328 37.2373 104.664 38.0533 104.232C38.8693 103.784 39.7813 103.56 40.7893 103.56C41.7173 103.56 42.5493 103.728 43.2853 104.064C44.0373 104.4 44.6773 104.872 45.2053 105.48C45.7493 106.088 46.1653 106.8 46.4533 107.616C46.7413 108.416 46.8853 109.28 46.8853 110.208V110.712C46.8853 111.656 46.7413 112.536 46.4533 113.352C46.1813 114.152 45.7733 114.864 45.2293 115.488C44.7013 116.096 44.0613 116.576 43.3093 116.928C42.5573 117.264 41.7173 117.432 40.7893 117.432C39.8133 117.432 38.9173 117.232 38.1013 116.832C37.3013 116.416 36.6533 115.784 36.1573 114.936C35.6613 114.072 35.3813 112.96 35.3173 111.6L36.3733 113.208V121.8H33.0373ZM39.9493 114.624C40.6693 114.624 41.2933 114.448 41.8213 114.096C42.3653 113.744 42.7893 113.256 43.0933 112.632C43.3973 111.992 43.5493 111.272 43.5493 110.472C43.5493 109.64 43.3973 108.92 43.0933 108.312C42.7893 107.704 42.3653 107.232 41.8213 106.896C41.2933 106.544 40.6693 106.368 39.9493 106.368C39.2933 106.368 38.6853 106.512 38.1253 106.8C37.5813 107.088 37.1333 107.512 36.7813 108.072C36.4453 108.632 36.2773 109.304 36.2773 110.088V111.048C36.2773 111.8 36.4533 112.44 36.8053 112.968C37.1573 113.496 37.6133 113.904 38.1733 114.192C38.7333 114.48 39.3253 114.624 39.9493 114.624ZM50.1066 121.8V103.968H52.7466V109.584L52.3386 109.56C52.4026 108.232 52.6746 107.12 53.1546 106.224C53.6506 105.328 54.3066 104.664 55.1226 104.232C55.9386 103.784 56.8506 103.56 57.8586 103.56C58.7866 103.56 59.6186 103.728 60.3546 104.064C61.1066 104.4 61.7466 104.872 62.2746 105.48C62.8186 106.088 63.2346 106.8 63.5226 107.616C63.8106 108.416 63.9546 109.28 63.9546 110.208V110.712C63.9546 111.656 63.8106 112.536 63.5226 113.352C63.2506 114.152 62.8426 114.864 62.2986 115.488C61.7706 116.096 61.1306 116.576 60.3786 116.928C59.6266 117.264 58.7866 117.432 57.8586 117.432C56.8826 117.432 55.9866 117.232 55.1706 116.832C54.3706 116.416 53.7226 115.784 53.2266 114.936C52.7306 114.072 52.4506 112.96 52.3866 111.6L53.4426 113.208V121.8H50.1066ZM57.0186 114.624C57.7386 114.624 58.3626 114.448 58.8906 114.096C59.4346 113.744 59.8586 113.256 60.1626 112.632C60.4666 111.992 60.6186 111.272 60.6186 110.472C60.6186 109.64 60.4666 108.92 60.1626 108.312C59.8586 107.704 59.4346 107.232 58.8906 106.896C58.3626 106.544 57.7386 106.368 57.0186 106.368C56.3626 106.368 55.7546 106.512 55.1946 106.8C54.6506 107.088 54.2026 107.512 53.8506 108.072C53.5146 108.632 53.3466 109.304 53.3466 110.088V111.048C53.3466 111.8 53.5226 112.44 53.8746 112.968C54.2266 113.496 54.6826 113.904 55.2426 114.192C55.8026 114.48 56.3946 114.624 57.0186 114.624ZM67.7998 117V103.968H71.1358V117H67.7998ZM65.9758 106.464V103.968H71.1358V106.464H65.9758ZM69.0238 102.408C68.3678 102.408 67.8798 102.24 67.5598 101.904C67.2558 101.552 67.1038 101.12 67.1038 100.608C67.1038 100.064 67.2558 99.624 67.5598 99.288C67.8798 98.952 68.3678 98.784 69.0238 98.784C69.6798 98.784 70.1598 98.952 70.4638 99.288C70.7678 99.624 70.9198 100.064 70.9198 100.608C70.9198 101.12 70.7678 101.552 70.4638 101.904C70.1598 102.24 69.6798 102.408 69.0238 102.408ZM75.2685 117V103.968H77.9085V109.56H77.6685C77.6685 108.232 77.8445 107.128 78.1965 106.248C78.5485 105.352 79.0685 104.68 79.7565 104.232C80.4605 103.784 81.3325 103.56 82.3725 103.56H82.5165C84.0685 103.56 85.2445 104.064 86.0445 105.072C86.8445 106.064 87.2445 107.552 87.2445 109.536V117H83.9085V109.248C83.9085 108.448 83.6765 107.8 83.2125 107.304C82.7645 106.808 82.1405 106.56 81.3405 106.56C80.5245 106.56 79.8605 106.816 79.3485 107.328C78.8525 107.824 78.6045 108.496 78.6045 109.344V117H75.2685ZM96.951 117.456C95.831 117.456 94.847 117.264 93.999 116.88C93.167 116.496 92.471 115.984 91.911 115.344C91.367 114.688 90.951 113.96 90.663 113.16C90.391 112.36 90.255 111.544 90.255 110.712V110.256C90.255 109.392 90.391 108.56 90.663 107.76C90.951 106.944 91.367 106.224 91.911 105.6C92.471 104.96 93.159 104.456 93.975 104.088C94.791 103.704 95.735 103.512 96.807 103.512C98.215 103.512 99.391 103.824 100.335 104.448C101.295 105.056 102.015 105.864 102.495 106.872C102.975 107.864 103.215 108.936 103.215 110.088V111.288H91.671V109.248H101.127L100.095 110.256C100.095 109.424 99.975 108.712 99.735 108.12C99.495 107.528 99.127 107.072 98.631 106.752C98.151 106.432 97.543 106.272 96.807 106.272C96.071 106.272 95.447 106.44 94.935 106.776C94.423 107.112 94.031 107.6 93.759 108.24C93.503 108.864 93.375 109.616 93.375 110.496C93.375 111.312 93.503 112.04 93.759 112.68C94.015 113.304 94.407 113.8 94.935 114.168C95.463 114.52 96.135 114.696 96.951 114.696C97.767 114.696 98.431 114.536 98.943 114.216C99.455 113.88 99.783 113.472 99.927 112.992H102.999C102.807 113.888 102.439 114.672 101.895 115.344C101.351 116.016 100.655 116.536 99.807 116.904C98.975 117.272 98.023 117.456 96.951 117.456ZM111.018 117.408C109.226 117.408 107.818 117.032 106.794 116.28C105.786 115.512 105.258 114.456 105.21 113.112H108.21C108.258 113.56 108.506 113.968 108.954 114.336C109.402 114.704 110.106 114.888 111.066 114.888C111.866 114.888 112.498 114.744 112.962 114.456C113.442 114.168 113.682 113.776 113.682 113.28C113.682 112.848 113.498 112.504 113.13 112.248C112.778 111.992 112.17 111.824 111.306 111.744L110.154 111.624C108.698 111.464 107.578 111.048 106.794 110.376C106.01 109.704 105.618 108.808 105.618 107.688C105.618 106.792 105.842 106.04 106.29 105.432C106.738 104.824 107.354 104.368 108.138 104.064C108.938 103.744 109.85 103.584 110.874 103.584C112.474 103.584 113.77 103.936 114.762 104.64C115.754 105.344 116.274 106.376 116.322 107.736H113.322C113.29 107.288 113.066 106.904 112.65 106.584C112.234 106.264 111.634 106.104 110.85 106.104C110.146 106.104 109.602 106.24 109.218 106.512C108.834 106.784 108.642 107.136 108.642 107.568C108.642 107.984 108.794 108.304 109.098 108.528C109.418 108.752 109.93 108.904 110.634 108.984L111.786 109.104C113.322 109.264 114.522 109.688 115.386 110.376C116.266 111.064 116.706 111.992 116.706 113.16C116.706 114.024 116.466 114.776 115.986 115.416C115.522 116.04 114.866 116.528 114.018 116.88C113.17 117.232 112.17 117.408 111.018 117.408ZM124.478 117.408C122.686 117.408 121.278 117.032 120.254 116.28C119.246 115.512 118.718 114.456 118.67 113.112H121.67C121.718 113.56 121.966 113.968 122.414 114.336C122.862 114.704 123.566 114.888 124.526 114.888C125.326 114.888 125.958 114.744 126.422 114.456C126.902 114.168 127.142 113.776 127.142 113.28C127.142 112.848 126.958 112.504 126.59 112.248C126.238 111.992 125.63 111.824 124.766 111.744L123.614 111.624C122.158 111.464 121.038 111.048 120.254 110.376C119.47 109.704 119.078 108.808 119.078 107.688C119.078 106.792 119.302 106.04 119.75 105.432C120.198 104.824 120.814 104.368 121.598 104.064C122.398 103.744 123.31 103.584 124.334 103.584C125.934 103.584 127.23 103.936 128.222 104.64C129.214 105.344 129.734 106.376 129.782 107.736H126.782C126.75 107.288 126.526 106.904 126.11 106.584C125.694 106.264 125.094 106.104 124.31 106.104C123.606 106.104 123.062 106.24 122.678 106.512C122.294 106.784 122.102 107.136 122.102 107.568C122.102 107.984 122.254 108.304 122.558 108.528C122.878 108.752 123.39 108.904 124.094 108.984L125.246 109.104C126.782 109.264 127.982 109.688 128.846 110.376C129.726 111.064 130.166 111.992 130.166 113.16C130.166 114.024 129.926 114.776 129.446 115.416C128.982 116.04 128.326 116.528 127.478 116.88C126.63 117.232 125.63 117.408 124.478 117.408ZM146.573 117V113.136H146.021V108.84C146.021 108.088 145.837 107.528 145.469 107.16C145.101 106.792 144.533 106.608 143.765 106.608C143.365 106.608 142.885 106.616 142.325 106.632C141.765 106.648 141.197 106.672 140.621 106.704C140.061 106.72 139.557 106.744 139.109 106.776V103.944C139.477 103.912 139.893 103.88 140.357 103.848C140.821 103.816 141.293 103.8 141.773 103.8C142.269 103.784 142.733 103.776 143.165 103.776C144.509 103.776 145.621 103.952 146.501 104.304C147.397 104.656 148.069 105.208 148.517 105.96C148.981 106.712 149.213 107.696 149.213 108.912V117H146.573ZM142.373 117.336C141.429 117.336 140.597 117.168 139.877 116.832C139.173 116.496 138.621 116.016 138.221 115.392C137.837 114.768 137.645 114.016 137.645 113.136C137.645 112.176 137.877 111.392 138.341 110.784C138.821 110.176 139.485 109.72 140.333 109.416C141.197 109.112 142.205 108.96 143.357 108.96H146.381V110.952H143.309C142.541 110.952 141.949 111.144 141.533 111.528C141.133 111.896 140.933 112.376 140.933 112.968C140.933 113.56 141.133 114.04 141.533 114.408C141.949 114.776 142.541 114.96 143.309 114.96C143.773 114.96 144.197 114.88 144.581 114.72C144.981 114.544 145.309 114.256 145.565 113.856C145.837 113.44 145.989 112.88 146.021 112.176L146.837 113.112C146.757 114.024 146.533 114.792 146.165 115.416C145.813 116.04 145.317 116.52 144.677 116.856C144.053 117.176 143.285 117.336 142.373 117.336ZM157.803 117.408C156.011 117.408 154.603 117.032 153.579 116.28C152.571 115.512 152.043 114.456 151.995 113.112H154.995C155.043 113.56 155.291 113.968 155.739 114.336C156.187 114.704 156.891 114.888 157.851 114.888C158.651 114.888 159.283 114.744 159.747 114.456C160.227 114.168 160.467 113.776 160.467 113.28C160.467 112.848 160.283 112.504 159.915 112.248C159.563 111.992 158.955 111.824 158.091 111.744L156.939 111.624C155.483 111.464 154.363 111.048 153.579 110.376C152.795 109.704 152.403 108.808 152.403 107.688C152.403 106.792 152.627 106.04 153.075 105.432C153.523 104.824 154.139 104.368 154.923 104.064C155.723 103.744 156.635 103.584 157.659 103.584C159.259 103.584 160.555 103.936 161.547 104.64C162.539 105.344 163.059 106.376 163.107 107.736H160.107C160.075 107.288 159.851 106.904 159.435 106.584C159.019 106.264 158.419 106.104 157.635 106.104C156.931 106.104 156.387 106.24 156.003 106.512C155.619 106.784 155.427 107.136 155.427 107.568C155.427 107.984 155.579 108.304 155.883 108.528C156.203 108.752 156.715 108.904 157.419 108.984L158.571 109.104C160.107 109.264 161.307 109.688 162.171 110.376C163.051 111.064 163.491 111.992 163.491 113.16C163.491 114.024 163.251 114.776 162.771 115.416C162.307 116.04 161.651 116.528 160.803 116.88C159.955 117.232 158.955 117.408 157.803 117.408ZM179.898 117V113.136H179.346V108.84C179.346 108.088 179.162 107.528 178.794 107.16C178.426 106.792 177.858 106.608 177.09 106.608C176.69 106.608 176.21 106.616 175.65 106.632C175.09 106.648 174.522 106.672 173.946 106.704C173.386 106.72 172.882 106.744 172.434 106.776V103.944C172.802 103.912 173.218 103.88 173.682 103.848C174.146 103.816 174.618 103.8 175.098 103.8C175.594 103.784 176.058 103.776 176.49 103.776C177.834 103.776 178.946 103.952 179.826 104.304C180.722 104.656 181.394 105.208 181.842 105.96C182.306 106.712 182.538 107.696 182.538 108.912V117H179.898ZM175.698 117.336C174.754 117.336 173.922 117.168 173.202 116.832C172.498 116.496 171.946 116.016 171.546 115.392C171.162 114.768 170.97 114.016 170.97 113.136C170.97 112.176 171.202 111.392 171.666 110.784C172.146 110.176 172.81 109.72 173.658 109.416C174.522 109.112 175.53 108.96 176.682 108.96H179.706V110.952H176.634C175.866 110.952 175.274 111.144 174.858 111.528C174.458 111.896 174.258 112.376 174.258 112.968C174.258 113.56 174.458 114.04 174.858 114.408C175.274 114.776 175.866 114.96 176.634 114.96C177.098 114.96 177.522 114.88 177.906 114.72C178.306 114.544 178.634 114.256 178.89 113.856C179.162 113.44 179.314 112.88 179.346 112.176L180.162 113.112C180.082 114.024 179.858 114.792 179.49 115.416C179.138 116.04 178.642 116.52 178.002 116.856C177.378 117.176 176.61 117.336 175.698 117.336ZM196.595 117.408C194.803 117.408 193.395 117.032 192.371 116.28C191.363 115.512 190.835 114.456 190.787 113.112H193.787C193.835 113.56 194.083 113.968 194.531 114.336C194.979 114.704 195.683 114.888 196.643 114.888C197.443 114.888 198.075 114.744 198.539 114.456C199.019 114.168 199.259 113.776 199.259 113.28C199.259 112.848 199.075 112.504 198.707 112.248C198.355 111.992 197.747 111.824 196.883 111.744L195.731 111.624C194.275 111.464 193.155 111.048 192.371 110.376C191.587 109.704 191.195 108.808 191.195 107.688C191.195 106.792 191.419 106.04 191.867 105.432C192.315 104.824 192.931 104.368 193.715 104.064C194.515 103.744 195.427 103.584 196.451 103.584C198.051 103.584 199.347 103.936 200.339 104.64C201.331 105.344 201.851 106.376 201.899 107.736H198.899C198.867 107.288 198.643 106.904 198.227 106.584C197.811 106.264 197.211 106.104 196.427 106.104C195.723 106.104 195.179 106.24 194.795 106.512C194.411 106.784 194.219 107.136 194.219 107.568C194.219 107.984 194.371 108.304 194.675 108.528C194.995 108.752 195.507 108.904 196.211 108.984L197.363 109.104C198.899 109.264 200.099 109.688 200.963 110.376C201.843 111.064 202.283 111.992 202.283 113.16C202.283 114.024 202.043 114.776 201.563 115.416C201.099 116.04 200.443 116.528 199.595 116.88C198.747 117.232 197.747 117.408 196.595 117.408ZM211.159 117.456C210.039 117.456 209.055 117.264 208.207 116.88C207.375 116.496 206.679 115.984 206.119 115.344C205.575 114.688 205.159 113.96 204.871 113.16C204.599 112.36 204.463 111.544 204.463 110.712V110.256C204.463 109.392 204.599 108.56 204.871 107.76C205.159 106.944 205.575 106.224 206.119 105.6C206.679 104.96 207.367 104.456 208.183 104.088C208.999 103.704 209.943 103.512 211.015 103.512C212.423 103.512 213.599 103.824 214.543 104.448C215.503 105.056 216.223 105.864 216.703 106.872C217.183 107.864 217.423 108.936 217.423 110.088V111.288H205.879V109.248H215.335L214.303 110.256C214.303 109.424 214.183 108.712 213.943 108.12C213.703 107.528 213.335 107.072 212.839 106.752C212.359 106.432 211.751 106.272 211.015 106.272C210.279 106.272 209.655 106.44 209.143 106.776C208.631 107.112 208.239 107.6 207.967 108.24C207.711 108.864 207.583 109.616 207.583 110.496C207.583 111.312 207.711 112.04 207.967 112.68C208.223 113.304 208.615 113.8 209.143 114.168C209.671 114.52 210.343 114.696 211.159 114.696C211.975 114.696 212.639 114.536 213.151 114.216C213.663 113.88 213.991 113.472 214.135 112.992H217.207C217.015 113.888 216.647 114.672 216.103 115.344C215.559 116.016 214.863 116.536 214.015 116.904C213.183 117.272 212.231 117.456 211.159 117.456ZM220.498 117V103.968H223.138V109.488H223.066C223.066 107.616 223.466 106.2 224.266 105.24C225.066 104.28 226.242 103.8 227.794 103.8H228.274V106.704H227.362C226.242 106.704 225.37 107.008 224.746 107.616C224.138 108.208 223.834 109.072 223.834 110.208V117H220.498ZM233.808 117L229.728 103.968H233.16L237.072 117H233.808ZM234.792 117V114.264H238.32V117H234.792ZM236.112 117L239.472 103.968H242.688L239.16 117H236.112ZM246.12 117V103.968H249.456V117H246.12ZM244.296 106.464V103.968H249.456V106.464H244.296ZM247.344 102.408C246.688 102.408 246.2 102.24 245.88 101.904C245.576 101.552 245.424 101.12 245.424 100.608C245.424 100.064 245.576 99.624 245.88 99.288C246.2 98.952 246.688 98.784 247.344 98.784C248 98.784 248.48 98.952 248.784 99.288C249.088 99.624 249.24 100.064 249.24 100.608C249.24 101.12 249.088 101.552 248.784 101.904C248.48 102.24 248 102.408 247.344 102.408ZM259.372 117.456C258.236 117.456 257.252 117.264 256.42 116.88C255.604 116.496 254.916 115.984 254.356 115.344C253.812 114.704 253.404 113.984 253.132 113.184C252.86 112.384 252.724 111.568 252.724 110.736V110.28C252.724 109.4 252.86 108.56 253.132 107.76C253.42 106.944 253.844 106.224 254.404 105.6C254.964 104.96 255.652 104.456 256.468 104.088C257.3 103.704 258.26 103.512 259.348 103.512C260.484 103.512 261.5 103.736 262.396 104.184C263.292 104.616 264.004 105.224 264.532 106.008C265.076 106.792 265.38 107.704 265.444 108.744H262.204C262.124 108.072 261.836 107.512 261.34 107.064C260.86 106.616 260.196 106.392 259.348 106.392C258.612 106.392 257.996 106.568 257.5 106.92C257.02 107.272 256.66 107.76 256.42 108.384C256.18 108.992 256.06 109.696 256.06 110.496C256.06 111.264 256.172 111.96 256.396 112.584C256.636 113.208 256.996 113.696 257.476 114.048C257.972 114.4 258.604 114.576 259.372 114.576C259.948 114.576 260.444 114.472 260.86 114.264C261.276 114.056 261.604 113.768 261.844 113.4C262.1 113.032 262.26 112.616 262.324 112.152H265.564C265.5 113.208 265.188 114.136 264.628 114.936C264.084 115.72 263.356 116.336 262.444 116.784C261.548 117.232 260.524 117.456 259.372 117.456ZM274.357 117.456C273.237 117.456 272.253 117.264 271.405 116.88C270.573 116.496 269.877 115.984 269.317 115.344C268.773 114.688 268.357 113.96 268.069 113.16C267.797 112.36 267.661 111.544 267.661 110.712V110.256C267.661 109.392 267.797 108.56 268.069 107.76C268.357 106.944 268.773 106.224 269.317 105.6C269.877 104.96 270.565 104.456 271.381 104.088C272.197 103.704 273.141 103.512 274.213 103.512C275.621 103.512 276.797 103.824 277.741 104.448C278.701 105.056 279.421 105.864 279.901 106.872C280.381 107.864 280.621 108.936 280.621 110.088V111.288H269.077V109.248H278.533L277.501 110.256C277.501 109.424 277.381 108.712 277.141 108.12C276.901 107.528 276.533 107.072 276.037 106.752C275.557 106.432 274.949 106.272 274.213 106.272C273.477 106.272 272.853 106.44 272.341 106.776C271.829 107.112 271.437 107.6 271.165 108.24C270.909 108.864 270.781 109.616 270.781 110.496C270.781 111.312 270.909 112.04 271.165 112.68C271.421 113.304 271.813 113.8 272.341 114.168C272.869 114.52 273.541 114.696 274.357 114.696C275.173 114.696 275.837 114.536 276.349 114.216C276.861 113.88 277.189 113.472 277.333 112.992H280.405C280.213 113.888 279.845 114.672 279.301 115.344C278.757 116.016 278.061 116.536 277.213 116.904C276.381 117.272 275.429 117.456 274.357 117.456Z" fill="white"/>
</svg>
