<svg width="72" height="80" viewBox="0 0 72 80" fill="none" xmlns="http://www.w3.org/2000/svg">
<path fill-rule="evenodd" clip-rule="evenodd" d="M37.4744 0.0436989C36.2533 0.134011 34.684 0.424507 34.684 0.560391C34.684 2.03015 36.4587 6.7324 37.9494 9.21223C40.3701 13.2388 45.06 17.692 47.8687 18.6309C47.9312 18.6519 47.8787 18.8375 47.7741 18.9647C47.7662 18.9745 47.4326 18.7945 47.0329 18.5647C45.8776 17.9009 43.9553 17.1878 42.0614 16.7202C34.3669 14.8207 26.2584 16.5021 19.96 21.303C19.2638 21.8338 18.1639 22.7636 18.1311 22.8493C18.1028 22.9226 19.1242 24.0837 19.6747 24.6044C24.6215 29.2823 31.7788 30.3785 37.9195 27.3989C39.598 26.5844 40.9166 26.5971 42.2075 27.4403C45.9948 29.9134 43.2411 36.0715 38.9512 34.7227C19.6437 28.652 0.975588 46.0304 5.62172 65.7496C5.81802 66.5832 5.81988 66.579 5.22083 66.6669C0.747545 67.3228 -1.48142 72.4433 1.08536 76.1669C3.24688 79.3024 7.71208 79.6843 10.3984 76.9632C10.8007 76.556 10.9983 76.4632 11.096 76.6357C11.4023 77.1765 13.702 79.4021 14.201 79.6408L14.5276 79.7968L26.1897 79.8122L37.8521 79.8276L38.8138 79.6218L39.7756 79.4158L40.0943 79.5401C42.6572 80.5381 45.5186 77.9144 44.8714 75.1601C44.3458 72.9234 41.6566 71.6047 39.7146 72.6314C39.637 72.6726 39.6001 72.6612 39.5716 72.5871C39.5291 72.4757 39.493 72.4768 36.6729 72.6582C34.6543 72.7883 33.0808 72.6913 33.0808 72.4366C33.0808 72.3334 33.1105 72.3274 33.4224 72.3686C34.0882 72.4568 36.7986 72.4123 37.5338 72.3009C39.686 71.9755 41.1432 71.4409 43.0937 70.261C44.4242 69.4563 44.5709 69.3993 44.6261 69.6667C44.6404 69.7368 44.722 70.1395 44.8073 70.5617C45.4806 73.8976 47.2452 76.9905 49.7781 79.2745L50.3874 79.8239L52.4478 79.8254C55.2331 79.827 56.021 79.6156 57.0354 78.5949C59.2439 76.3725 57.8173 72.5257 54.6955 72.2843C54.0943 72.2379 54.0892 72.2206 54.4544 71.4908C55.6305 69.1407 56.48 66.4869 56.8896 63.8849C56.9554 63.4672 57.0211 63.0714 57.0357 63.0051C57.0506 62.9366 57.2942 62.7233 57.6007 62.5102C62.3975 59.1768 64.9972 53.4041 64.3625 47.4964C64.2986 46.901 63.613 43.1814 63.4078 42.3163C62.8193 39.8351 64.4648 37.6305 67.0921 37.3802C69.7133 37.1303 72.1784 33.9313 71.8829 31.1632L71.8431 30.7897L70.2878 28.8201C69.4327 27.7368 67.8912 25.7828 66.8626 24.4779C65.8341 23.1731 64.7522 21.8536 64.4581 21.5458C62.1692 19.1482 58.7428 17.4265 55.3259 16.9568C54.7077 16.8717 54.7237 16.9004 54.7085 15.8568C54.5753 6.65457 46.6318 -0.633849 37.4744 0.0436989Z" fill="#FCFCFC"/>
</svg>
