<?xml version="1.0" encoding="UTF-8" standalone="no"?>
<svg
   xmlns:dc="http://purl.org/dc/elements/1.1/"
   xmlns:cc="http://creativecommons.org/ns#"
   xmlns:rdf="http://www.w3.org/1999/02/22-rdf-syntax-ns#"
   xmlns:svg="http://www.w3.org/2000/svg"
   xmlns="http://www.w3.org/2000/svg"
   viewBox="0 0 559.37067 793.70135"
   height="793.70135"
   width="559.37067"
   xml:space="preserve"
   id="svg2"
   version="1.1"><metadata
     id="metadata8"><rdf:RDF><cc:Work
         rdf:about=""><dc:format>image/svg+xml</dc:format><dc:type
           rdf:resource="http://purl.org/dc/dcmitype/StillImage" /></cc:Work></rdf:RDF></metadata><defs
     id="defs6"><clipPath
       id="clipPath18"
       clipPathUnits="userSpaceOnUse"><path
         id="path16"
         d="M 0,595.276 H 419.528 V 0 H 0 Z" /></clipPath></defs><g
     transform="matrix(1.3333333,0,0,-1.3333333,0,793.70133)"
     id="g10"><g
       id="g12"><g
         clip-path="url(#clipPath18)"
         id="g14"><g
           transform="translate(393.0566,361.6184)"
           id="g20"><path
             id="path22"
             style="fill:#ffffff;fill-opacity:1;fill-rule:nonzero;stroke:none"
             d="m 0,0 c -0.001,0.002 -0.002,0.004 -0.003,0.006 -11.726,14.508 -23.451,29.017 -35.177,43.525 -4.729,4.976 -12.593,12.045 -24.002,17.648 -9.795,4.812 -18.742,6.844 -25.059,7.765 0.07,3.471 0.185,43.258 -33.178,67.061 -28.662,20.45 -60.157,13.495 -64.943,12.354 2.128,-11.171 7.084,-29.38 19.765,-48.355 15.501,-23.194 34.693,-35.785 45.178,-41.648 -10.06,5.13 -45.965,21.881 -90.003,10.941 -28.193,-7.003 -47.02,-22.201 -56.12,-30.707 4.191,-4.6 29.301,-31.295 67.062,-30.001 14.216,0.488 25.709,4.787 33.476,8.685 3.302,1.657 7.121,2.195 10.705,1.297 8.091,-2.027 14.263,-8.419 15.42,-15.801 1.685,-10.736 -7.422,-23.669 -20.497,-22.994 -0.492,0.025 -0.979,0.103 -1.458,0.219 -47.128,11.387 -96.691,4.063 -130.804,-29.564 -40.362,-39.786 -38.336,-91.782 -35.404,-113.042 -18.695,7.699 -36.452,2.264 -41.293,0.616 -0.5,-4.718 -2.817,-30.328 12.795,-48.391 15.638,-18.094 42.753,-21.085 56.722,-14.199 5.866,-6.777 14.821,-14.359 16.959,-14.335 0.002,0 0.004,-0.002 0.005,-0.002 1.028,-0.123 2.069,0.005 3.104,0.007 42.166,0.099 84.331,0.196 126.497,0.294 11.237,0.909 19.283,10.178 18.795,19.646 -0.366,7.106 -5.323,14.28 -12.932,16.464 -0.498,0.06 -0.996,0.12 -1.494,0.18 -12.569,-0.233 -25.139,-0.466 -37.709,-0.698 7.74,0.393 17.075,1.647 27.292,4.754 9.275,2.82 16.948,6.456 22.921,9.838 0.795,-6.752 3.038,-18.188 10.25,-30.324 5.81,-9.775 11.911,-17.48 17.803,-19.577 4.878,-1.735 20.421,-0.71 20.421,-0.71 9.889,1.027 17.366,9.419 17.3,19.006 -0.069,9.967 -8.271,18.437 -18.562,18.824 -0.214,0.008 -0.351,0.215 -0.25,0.405 3.156,5.947 6.51,13.397 9.241,22.25 2.54,8.226 3.945,15.727 4.726,22.049 7.71,5.271 25.137,18.828 32.484,42.132 4.7,14.906 3.689,28.775 3.151,35.438 -0.798,9.881 -2.88,18.245 -5.023,24.713 -0.043,0.203 -0.082,0.392 -0.124,0.594 -0.169,2.022 -0.513,10.346 5.344,16.037 3.162,3.073 7.015,4.293 7.846,4.542 3.166,0.951 5.181,0.647 7.116,0.773 9.868,0.646 16.941,12.452 17.719,13.782 C 0.736,-10.51 0.285,-2.728 0,0" /></g></g></g></g></svg>