<svg width="80" height="89" viewBox="0 0 80 89" fill="none" xmlns="http://www.w3.org/2000/svg">
<path fill-rule="evenodd" clip-rule="evenodd" d="M41.6921 0.0485075C40.3335 0.148757 38.5876 0.47122 38.5876 0.622057C38.5876 2.25354 40.562 7.47323 42.2205 10.2259C44.9136 14.6956 50.1314 19.6388 53.2562 20.681C53.3257 20.7044 53.2673 20.9104 53.151 21.0515C53.1422 21.0624 52.771 20.8626 52.3264 20.6076C51.041 19.8707 48.9023 19.0791 46.7953 18.5601C38.2348 16.4516 29.2137 18.318 22.2064 23.6472C21.4319 24.2364 20.2081 25.2685 20.1717 25.3637C20.1403 25.445 21.2765 26.7339 21.889 27.3119C27.3925 32.5045 35.3554 33.7214 42.1873 30.4138C44.0546 29.5097 45.5217 29.5238 46.9579 30.4598C51.1714 33.2051 48.1077 40.0408 43.3351 38.5435C21.8546 31.8048 1.08539 51.0956 6.25443 72.9847C6.47282 73.91 6.4749 73.9054 5.80842 74.0029C0.83168 74.731 -1.64815 80.4149 1.20751 84.5483C3.61231 88.0288 8.58005 88.4527 11.5687 85.4323C12.0163 84.9802 12.2361 84.8772 12.3448 85.0687C12.6856 85.6691 15.2441 88.1395 15.7993 88.4044L16.1627 88.5777L29.1373 88.5948L42.1122 88.6119L43.1822 88.3834L44.2522 88.1547L44.6068 88.2926C47.4581 89.4005 50.6416 86.4881 49.9215 83.4308C49.3368 80.9478 46.3449 79.4841 44.1844 80.6238C44.098 80.6695 44.0569 80.6568 44.0253 80.5746C43.978 80.451 43.9378 80.4521 40.8003 80.6536C38.5545 80.7979 36.804 80.6903 36.804 80.4076C36.804 80.293 36.837 80.2863 37.184 80.332C37.9248 80.43 40.9402 80.3805 41.7581 80.2569C44.1525 79.8957 45.7738 79.3023 47.9438 77.9925C49.4241 77.0993 49.5873 77.036 49.6487 77.3328C49.6646 77.4107 49.7553 77.8576 49.8502 78.3263C50.5993 82.0293 52.5625 85.4625 55.3805 87.9979L56.0583 88.6077L58.3507 88.6093C61.4495 88.6112 62.326 88.3765 63.4546 87.2435C65.9116 84.7765 64.3245 80.5064 60.8513 80.2385C60.1825 80.187 60.1768 80.1678 60.5831 79.3577C61.8915 76.7489 62.8367 73.8031 63.2924 70.9148C63.3655 70.4512 63.4387 70.0118 63.4549 69.9381C63.4715 69.8621 63.7425 69.6254 64.0835 69.3888C69.4201 65.6886 72.3125 59.2807 71.6063 52.7229C71.5352 52.062 70.7725 47.9331 70.5442 46.9728C69.8895 44.2185 71.7201 41.7714 74.6432 41.4935C77.5593 41.2161 80.3019 37.6651 79.9732 34.5924L79.9288 34.1778L78.1986 31.9915C77.2472 30.789 75.5322 28.6199 74.3879 27.1714C73.2435 25.7231 72.0399 24.2584 71.7127 23.9168C69.1662 21.2553 65.3541 19.3441 61.5526 18.8227C60.8649 18.7282 60.8827 18.7601 60.8659 17.6017C60.7177 7.38684 51.8801 -0.703597 41.6921 0.0485075Z" fill="#2074FF"/>
<path fill-rule="evenodd" clip-rule="evenodd" d="M41.6921 0.0485075C40.3335 0.148757 38.5876 0.47122 38.5876 0.622057C38.5876 2.25354 40.562 7.47323 42.2205 10.2259C44.9136 14.6956 50.1314 19.6388 53.2562 20.681C53.3257 20.7044 53.2673 20.9104 53.151 21.0515C53.1422 21.0624 52.771 20.8626 52.3264 20.6076C51.041 19.8707 48.9023 19.0791 46.7953 18.5601C38.2348 16.4516 29.2137 18.318 22.2064 23.6472C21.4319 24.2364 20.2081 25.2685 20.1717 25.3637C20.1403 25.445 21.2765 26.7339 21.889 27.3119C27.3925 32.5045 35.3554 33.7214 42.1873 30.4138C44.0546 29.5097 45.5217 29.5238 46.9579 30.4598C51.1714 33.2051 48.1077 40.0408 43.3351 38.5435C21.8546 31.8048 1.08539 51.0956 6.25443 72.9847C6.47282 73.91 6.4749 73.9054 5.80842 74.0029C0.83168 74.731 -1.64815 80.4149 1.20751 84.5483C3.61231 88.0288 8.58005 88.4527 11.5687 85.4323C12.0163 84.9802 12.2361 84.8772 12.3448 85.0687C12.6856 85.6691 15.2441 88.1395 15.7993 88.4044L16.1627 88.5777L29.1373 88.5948L42.1122 88.6119L43.1822 88.3834L44.2522 88.1547L44.6068 88.2926C47.4581 89.4005 50.6416 86.4881 49.9215 83.4308C49.3368 80.9478 46.3449 79.4841 44.1844 80.6238C44.098 80.6695 44.0569 80.6568 44.0253 80.5746C43.978 80.451 43.9378 80.4521 40.8003 80.6536C38.5545 80.7979 36.804 80.6903 36.804 80.4076C36.804 80.293 36.837 80.2863 37.184 80.332C37.9248 80.43 40.9402 80.3805 41.7581 80.2569C44.1525 79.8957 45.7738 79.3023 47.9438 77.9925C49.4241 77.0993 49.5873 77.036 49.6487 77.3328C49.6646 77.4107 49.7553 77.8576 49.8502 78.3263C50.5993 82.0293 52.5625 85.4625 55.3805 87.9979L56.0583 88.6077L58.3507 88.6093C61.4495 88.6112 62.326 88.3765 63.4546 87.2435C65.9116 84.7765 64.3245 80.5064 60.8513 80.2385C60.1825 80.187 60.1768 80.1678 60.5831 79.3577C61.8915 76.7489 62.8367 73.8031 63.2924 70.9148C63.3655 70.4512 63.4387 70.0118 63.4549 69.9381C63.4715 69.8621 63.7425 69.6254 64.0835 69.3888C69.4201 65.6886 72.3125 59.2807 71.6063 52.7229C71.5352 52.062 70.7725 47.9331 70.5442 46.9728C69.8895 44.2185 71.7201 41.7714 74.6432 41.4935C77.5593 41.2161 80.3019 37.6651 79.9732 34.5924L79.9288 34.1778L78.1986 31.9915C77.2472 30.789 75.5322 28.6199 74.3879 27.1714C73.2435 25.7231 72.0399 24.2584 71.7127 23.9168C69.1662 21.2553 65.3541 19.3441 61.5526 18.8227C60.8649 18.7282 60.8827 18.7601 60.8659 17.6017C60.7177 7.38684 51.8801 -0.703597 41.6921 0.0485075Z" fill="url(#paint0_linear)"/>
<defs>
<linearGradient id="paint0_linear" x1="40" y1="0" x2="40" y2="88.6119" gradientUnits="userSpaceOnUse">
<stop stop-color="#95BCFD"/>
<stop offset="1" stop-color="white" stop-opacity="0"/>
</linearGradient>
</defs>
</svg>
