<svg width="721" height="173" viewBox="0 0 721 173" fill="none" xmlns="http://www.w3.org/2000/svg">
<path fill-rule="evenodd" clip-rule="evenodd" d="M59.7649 101.777V88.0282L66.6672 94.9031L59.7649 101.777Z" fill="#645FCE" fill-opacity="0.02"/>
<path fill-rule="evenodd" clip-rule="evenodd" d="M82.1168 150H60.1646V113.379L82.1168 91.517V150Z" fill="#645FCE" fill-opacity="0.6"/>
<path fill-rule="evenodd" clip-rule="evenodd" d="M111.998 150H90.0459V88.43L111.998 66.5691V150Z" fill="#645FCE" fill-opacity="0.8"/>
<path fill-rule="evenodd" clip-rule="evenodd" d="M141.881 150H119.929V53.8602L141.881 32V150Z" fill="#645FCE"/>
<path fill-rule="evenodd" clip-rule="evenodd" d="M52.234 121.276V150H23.39L52.234 121.276Z" fill="#645FCE" fill-opacity="0.4"/>
<path fill-rule="evenodd" clip-rule="evenodd" d="M91.3355 32L70.9405 52.3107L50.5455 32H91.3355Z" fill="#645FCE" fill-opacity="0.5"/>
<path fill-rule="evenodd" clip-rule="evenodd" d="M91.3355 32L70.9405 52.3107L50.5455 32H91.3355Z" fill="#40356F" fill-opacity="0.5"/>
<path fill-rule="evenodd" clip-rule="evenodd" d="M29.8828 130.663V62.208L51.835 84.0689V108.803L29.8828 130.663Z" fill="#40356F" fill-opacity="0.8"/>
<path fill-rule="evenodd" clip-rule="evenodd" d="M59.7649 101.777V88.0282L66.6672 94.9031L59.7649 101.777Z" fill="#40356F" fill-opacity="0.6"/>
<path fill-rule="evenodd" clip-rule="evenodd" d="M14.8441 150H0V32L21.9522 53.8602V142.922L14.8441 150Z" fill="#40356F"/>
<path fill-rule="evenodd" clip-rule="evenodd" d="M52.234 121.276V150H23.39L52.234 121.276Z" fill="#40356F" fill-opacity="0.6"/>
<path d="M306.22 22.2V150H276.7V97.62H225.76V150H196.24V22.2H225.76V71.7H276.7V22.2H306.22ZM365.453 22.2H392.093L438.713 150H408.473L398.573 121.38H358.793L349.073 150H318.833L365.453 22.2ZM393.713 101.04L378.773 55.86L363.473 101.04H393.713ZM486.039 22.2H512.679L559.299 150H529.059L519.159 121.38H479.379L469.659 150H439.419L486.039 22.2ZM514.299 101.04L499.359 55.86L484.059 101.04H514.299ZM646.631 59.64C646.271 59.16 645.011 58.26 642.851 56.94C640.691 55.62 637.991 54.24 634.751 52.8C631.511 51.36 627.971 50.1 624.131 49.02C620.291 47.94 616.451 47.4 612.611 47.4C602.051 47.4 596.771 50.94 596.771 58.02C596.771 60.18 597.311 61.98 598.391 63.42C599.591 64.86 601.271 66.18 603.431 67.38C605.711 68.46 608.531 69.48 611.891 70.44C615.251 71.4 619.151 72.48 623.591 73.68C629.711 75.36 635.231 77.22 640.151 79.26C645.071 81.18 649.211 83.64 652.571 86.64C656.051 89.52 658.691 93.06 660.491 97.26C662.411 101.46 663.371 106.5 663.371 112.38C663.371 119.58 661.991 125.7 659.231 130.74C656.591 135.66 653.051 139.68 648.611 142.8C644.171 145.8 639.071 148.02 633.311 149.46C627.551 150.78 621.611 151.44 615.491 151.44C610.811 151.44 606.011 151.08 601.091 150.36C596.171 149.64 591.371 148.62 586.691 147.3C582.011 145.86 577.451 144.18 573.011 142.26C568.691 140.34 564.671 138.12 560.951 135.6L573.911 109.86C574.391 110.46 575.951 111.6 578.591 113.28C581.231 114.96 584.471 116.64 588.311 118.32C592.271 120 596.651 121.5 601.451 122.82C606.251 124.14 611.111 124.8 616.031 124.8C626.471 124.8 631.691 121.62 631.691 115.26C631.691 112.86 630.911 110.88 629.351 109.32C627.791 107.76 625.631 106.38 622.871 105.18C620.111 103.86 616.811 102.66 612.971 101.58C609.251 100.5 605.171 99.3 600.731 97.98C594.851 96.18 589.751 94.26 585.431 92.22C581.111 90.06 577.511 87.6 574.631 84.84C571.871 82.08 569.771 78.9 568.331 75.3C567.011 71.7 566.351 67.5 566.351 62.7C566.351 55.98 567.611 50.04 570.131 44.88C572.651 39.72 576.071 35.4 580.391 31.92C584.711 28.32 589.691 25.62 595.331 23.82C601.091 22.02 607.151 21.12 613.511 21.12C617.951 21.12 622.331 21.54 626.651 22.38C630.971 23.22 635.111 24.3 639.071 25.62C643.031 26.94 646.691 28.44 650.051 30.12C653.531 31.8 656.711 33.48 659.591 35.16L646.631 59.64Z" fill="#453392"/>
<path d="M306.22 22.2V150H276.7V97.62H225.76V150H196.24V22.2H225.76V71.7H276.7V22.2H306.22ZM365.453 22.2H392.093L438.713 150H408.473L398.573 121.38H358.793L349.073 150H318.833L365.453 22.2ZM393.713 101.04L378.773 55.86L363.473 101.04H393.713ZM486.039 22.2H512.679L559.299 150H529.059L519.159 121.38H479.379L469.659 150H439.419L486.039 22.2ZM514.299 101.04L499.359 55.86L484.059 101.04H514.299ZM646.631 59.64C646.271 59.16 645.011 58.26 642.851 56.94C640.691 55.62 637.991 54.24 634.751 52.8C631.511 51.36 627.971 50.1 624.131 49.02C620.291 47.94 616.451 47.4 612.611 47.4C602.051 47.4 596.771 50.94 596.771 58.02C596.771 60.18 597.311 61.98 598.391 63.42C599.591 64.86 601.271 66.18 603.431 67.38C605.711 68.46 608.531 69.48 611.891 70.44C615.251 71.4 619.151 72.48 623.591 73.68C629.711 75.36 635.231 77.22 640.151 79.26C645.071 81.18 649.211 83.64 652.571 86.64C656.051 89.52 658.691 93.06 660.491 97.26C662.411 101.46 663.371 106.5 663.371 112.38C663.371 119.58 661.991 125.7 659.231 130.74C656.591 135.66 653.051 139.68 648.611 142.8C644.171 145.8 639.071 148.02 633.311 149.46C627.551 150.78 621.611 151.44 615.491 151.44C610.811 151.44 606.011 151.08 601.091 150.36C596.171 149.64 591.371 148.62 586.691 147.3C582.011 145.86 577.451 144.18 573.011 142.26C568.691 140.34 564.671 138.12 560.951 135.6L573.911 109.86C574.391 110.46 575.951 111.6 578.591 113.28C581.231 114.96 584.471 116.64 588.311 118.32C592.271 120 596.651 121.5 601.451 122.82C606.251 124.14 611.111 124.8 616.031 124.8C626.471 124.8 631.691 121.62 631.691 115.26C631.691 112.86 630.911 110.88 629.351 109.32C627.791 107.76 625.631 106.38 622.871 105.18C620.111 103.86 616.811 102.66 612.971 101.58C609.251 100.5 605.171 99.3 600.731 97.98C594.851 96.18 589.751 94.26 585.431 92.22C581.111 90.06 577.511 87.6 574.631 84.84C571.871 82.08 569.771 78.9 568.331 75.3C567.011 71.7 566.351 67.5 566.351 62.7C566.351 55.98 567.611 50.04 570.131 44.88C572.651 39.72 576.071 35.4 580.391 31.92C584.711 28.32 589.691 25.62 595.331 23.82C601.091 22.02 607.151 21.12 613.511 21.12C617.951 21.12 622.331 21.54 626.651 22.38C630.971 23.22 635.111 24.3 639.071 25.62C643.031 26.94 646.691 28.44 650.051 30.12C653.531 31.8 656.711 33.48 659.591 35.16L646.631 59.64Z" fill="url(#paint0_linear)"/>
<defs>
<linearGradient id="paint0_linear" x1="250.545" y1="173" x2="739.571" y2="173" gradientUnits="userSpaceOnUse">
<stop stop-color="#645FCE"/>
<stop offset="0.176993" stop-color="#524CCC"/>
<stop offset="0.431103" stop-color="#6C68D5" stop-opacity="0.229167"/>
<stop offset="0.70439" stop-color="#2018C6" stop-opacity="0.234375"/>
<stop offset="1" stop-color="white" stop-opacity="0"/>
</linearGradient>
</defs>
</svg>
