<svg width="100" height="100" viewBox="0 0 100 100" fill="none" xmlns="http://www.w3.org/2000/svg">
<rect width="100" height="100" rx="50" fill="#E0E3FA"/>
<path d="M77.9751 38.3121C77.9751 38.3105 77.9735 38.3105 77.9751 38.3121C76.1527 35.9667 74.3319 33.6213 72.5096 31.2758C71.7747 30.4708 70.5536 29.3297 68.781 28.4228C67.2585 27.6453 65.8696 27.3172 64.8877 27.1685C64.8986 26.6076 64.9172 20.1759 59.733 16.3288C55.2804 13.0232 50.3866 14.1482 49.644 14.3325C49.9749 16.138 50.744 19.0815 52.7155 22.1479C55.1235 25.8964 58.1048 27.9331 59.7345 28.8803C58.1716 28.0511 52.5927 25.3436 45.7523 27.1119C41.3728 28.2434 38.4474 30.7004 37.0336 32.076C37.6846 32.8195 41.5856 37.1337 47.4519 36.9252C49.6611 36.846 51.4462 36.151 52.6533 35.5222C53.166 35.2538 53.7595 35.1682 54.3156 35.312C55.5725 35.6402 56.531 36.6731 56.7113 37.866C56.9723 39.602 55.5585 41.692 53.5264 41.5821C53.4503 41.5773 53.3742 41.566 53.2996 41.5466C45.9776 39.7055 38.2781 40.8903 32.9788 46.3247C26.7086 52.7565 27.0224 61.1602 27.4791 64.5968C24.574 63.3521 21.8164 64.2314 21.0644 64.4965C20.9867 65.2595 20.6263 69.3991 23.0514 72.3184C25.4812 75.2425 29.693 75.7258 31.8633 74.6137C32.7753 75.7097 34.1657 76.9349 34.4982 76.9301C34.4982 76.9301 34.4982 76.9301 34.4998 76.9301C34.6598 76.9495 34.8214 76.9301 34.9814 76.9284C41.5328 76.9123 48.0827 76.8961 54.6341 76.8816C56.3803 76.7345 57.6294 75.236 57.5548 73.7053C57.4974 72.556 56.7283 71.397 55.5461 71.0447C55.4684 71.035 55.3907 71.0253 55.3146 71.0156C53.3617 71.0527 51.4089 71.0915 49.456 71.1287C50.6585 71.0657 52.1096 70.862 53.6958 70.3609C55.1359 69.9051 56.3291 69.3167 57.2566 68.7704C57.3808 69.8614 57.7288 71.7106 58.849 73.6714C59.7516 75.2522 60.6993 76.4969 61.6143 76.8363C62.3725 77.1176 64.7867 76.9511 64.7867 76.9511C66.3232 76.7846 67.4853 75.4284 67.4744 73.8783C67.4636 72.2667 66.1896 70.8976 64.591 70.8361C64.5584 70.8345 64.5366 70.8006 64.5522 70.7715C65.0431 69.8097 65.5635 68.6055 65.9877 67.1749C66.3823 65.8446 66.5998 64.6323 66.7225 63.6107C67.9203 62.7589 70.6282 60.567 71.7685 56.8008C72.4987 54.3907 72.3418 52.1487 72.2579 51.0721C72.1336 49.4751 71.8105 48.1222 71.478 47.078C71.4718 47.0456 71.4656 47.0149 71.4594 46.9826C71.4329 46.6561 71.3801 45.3096 72.289 44.3899C72.7799 43.8936 73.3796 43.6964 73.5085 43.656C74.001 43.5024 74.3133 43.5509 74.6147 43.5315C76.1481 43.4265 77.2464 41.5191 77.3676 41.3041C78.0885 40.011 78.0186 38.7518 77.9751 38.3121Z" fill="url(#paint0_linear_1147_2)"/>
<rect x="0.5" y="0.5" width="99" height="99" rx="49.5" stroke="#3C54FF" stroke-opacity="0.64"/>
<defs>
<linearGradient id="paint0_linear_1147_2" x1="49.5" y1="14" x2="49.5" y2="77" gradientUnits="userSpaceOnUse">
<stop stop-color="#0B24D1"/>
<stop offset="1" stop-color="#7989F4"/>
</linearGradient>
</defs>
</svg>
